M48
; DRILL file {KiCad 8.0.1} date 2024-08-29T15:45:34+0900
; FORMAT={-:-/ absolute / inch / decimal}
; #@! TF.CreationDate,2024-08-29T15:45:34+09:00
; #@! TF.GenerationSoftware,Kicad,Pcbnew,8.0.1
; #@! TF.FileFunction,Plated,1,2,PTH
FMAT,2
INCH
; #@! TA.AperFunction,Plated,PTH,ViaDrill
T1C0.0157
; #@! TA.AperFunction,Plated,PTH,ComponentDrill
T2C0.0315
; #@! TA.AperFunction,Plated,PTH,ComponentDrill
T3C0.0374
; #@! TA.AperFunction,Plated,PTH,ComponentDrill
T4C0.0394
; #@! TA.AperFunction,Plated,PTH,ComponentDrill
T5C0.0402
; #@! TA.AperFunction,Plated,PTH,ComponentDrill
T6C0.0512
%
G90
G05
T1
X0.065Y0.8807
X0.065Y0.7057
X0.065Y0.5307
X0.065Y0.3557
X0.0661Y2.5307
X0.0661Y2.3057
X0.0661Y2.2307
X0.0661Y2.1307
X0.0661Y2.0057
X0.0661Y1.8807
X0.0661Y1.6307
X0.0661Y1.4807
X0.1161Y1.3807
X0.2161Y2.7057
X0.2161Y2.3057
X0.2161Y2.2307
X0.2161Y2.1307
X0.2161Y1.4807
X0.2161Y1.3807
X0.2661Y0.0557
X0.3411Y0.5307
X0.3411Y0.3557
X0.3661Y1.6557
X0.3661Y1.4807
X0.3661Y1.3057
X0.3661Y1.1307
X0.4411Y0.7307
X0.4411Y0.6307
X0.4411Y0.4807
X0.4661Y2.7057
X0.4661Y2.5307
X0.4661Y2.3057
X0.4911Y0.8807
X0.5161Y1.6557
X0.5161Y1.4807
X0.5161Y1.3057
X0.5161Y1.1307
X0.5411Y0.6307
X0.5411Y0.4807
X0.6661Y1.6557
X0.6661Y1.4807
X0.6661Y1.3057
X0.6661Y1.1307
X0.6661Y0.7307
X0.6661Y0.6307
X0.7161Y2.7057
X0.7161Y2.5307
X0.7161Y2.3057
X0.7161Y2.2307
X0.7161Y2.1307
X0.7411Y0.4307
X0.8161Y1.4807
X0.8161Y1.3057
X0.8161Y1.1307
X0.8411Y0.4307
X0.9161Y2.2307
X0.9161Y2.1307
X0.9411Y0.4307
X0.9661Y1.4807
X0.9661Y1.3057
X0.9661Y1.1307
X0.9911Y0.7307
X0.9911Y0.6307
X1.0411Y2.7057
X1.0411Y2.5307
X1.0411Y2.3307
X1.0411Y2.2307
X1.0411Y2.1307
X1.1161Y1.4807
X1.1161Y1.3057
X1.1411Y1.1307
X1.2411Y2.7057
X1.2661Y1.6557
X1.2661Y1.3807
X1.2661Y1.3057
X1.3161Y1.1307
X1.3161Y0.7307
X1.3161Y0.6307
X1.3661Y2.2557
X1.3661Y2.1057
X1.3661Y2.0291
X1.3661Y0.6307
X1.4161Y2.5307
X1.4161Y2.4807
X1.4161Y2.4307
X1.4161Y2.3807
X1.4161Y2.3307
X1.4161Y1.6557
X1.4161Y1.4807
X1.4161Y1.1307
X1.4411Y2.7057
X1.4661Y2.5307
X1.4661Y2.4807
X1.4661Y2.4307
X1.4661Y2.3807
X1.4661Y2.3307
X1.4661Y0.8807
X1.4661Y0.6057
X1.4661Y0.5057
X1.4661Y0.3057
X1.5161Y2.5307
X1.5161Y2.4807
X1.5161Y2.4307
X1.5161Y2.3807
X1.5161Y2.3307
X1.5161Y1.1307
X1.5411Y1.9807
X1.5661Y1.6557
X1.5661Y1.4807
X1.5661Y1.3057
X1.5661Y0.8807
X1.5661Y0.6057
X1.5661Y0.5057
X1.5911Y0.3057
X1.6411Y2.7057
X1.6661Y1.6557
X1.6661Y1.4807
X1.6661Y1.3057
X1.6661Y0.6057
X1.6661Y0.5057
X1.7161Y2.3057
X1.7161Y1.9807
X1.7411Y0.3057
X1.7411Y0.2057
X1.7411Y0.1057
X1.7661Y1.6557
X1.7661Y1.4807
X1.8161Y1.3057
X1.8161Y1.1307
X1.8411Y2.7057
X1.8411Y2.3057
X1.8911Y1.9807
X1.8911Y0.3057
X1.9161Y2.7057
X1.9161Y2.5307
X1.9161Y1.6557
X1.9161Y1.4807
X1.9161Y1.3057
X1.9161Y1.1307
X1.9661Y0.2057
X1.9661Y0.1057
X2.0161Y1.9807
X2.0411Y0.3057
X2.0661Y1.6557
X2.0661Y1.4807
X2.0661Y1.3057
X2.1411Y2.7057
X2.1411Y2.5807
X2.1411Y2.3807
X2.1411Y2.2807
X2.1411Y2.0807
X2.1411Y1.9807
X2.1411Y1.8307
X2.1661Y1.6557
X2.1661Y1.3057
X2.1661Y1.1307
X2.1661Y0.6057
X2.1661Y0.5057
X2.1911Y2.6307
X2.1911Y1.525
X2.1911Y1.4463
X2.1911Y0.3057
X2.1911Y0.2057
X2.1911Y0.1057
X2.2411Y2.5807
X2.2411Y2.4307
X2.2411Y2.2807
X2.2411Y2.0807
X2.2411Y1.7557
X2.2911Y1.9307
X2.2911Y1.8307
X2.2911Y1.3807
X2.2911Y1.2557
X2.3161Y2.4307
X2.3161Y2.2807
X2.3661Y2.7057
X2.3661Y0.6557
X2.3661Y0.5557
X2.3661Y0.4557
X2.3661Y0.3057
X2.3911Y0.0557
X2.4394Y1.6825
X2.4411Y2.0557
X2.4411Y1.9307
X2.4411Y1.8307
X2.4411Y1.5057
X2.4411Y1.3807
X2.4411Y1.2557
X2.4411Y1.1825
X2.4411Y1.0557
X2.4911Y0.4557
X2.5161Y2.1807
X2.5411Y2.7057
X2.5411Y0.0557
X2.5661Y1.6807
X2.5661Y1.5057
X2.5661Y1.1807
X2.5661Y1.0557
X2.5661Y0.6557
X2.6161Y2.3807
X2.6661Y1.8758
X2.6911Y2.5557
X2.6911Y2.3807
X2.6911Y2.1807
X2.6911Y1.6807
X2.6911Y1.5057
X2.6911Y1.1807
X2.6911Y1.0557
X2.6911Y0.9307
X2.6911Y0.4557
X2.6911Y0.3057
X2.6911Y0.1969
T2
X0.6161Y0.8307
X0.6161Y0.5307
X0.7161Y0.8307
X0.7161Y0.5307
X0.8161Y0.8307
X0.8161Y0.5307
X0.9161Y0.8307
X0.9161Y0.5307
X1.0161Y0.8307
X1.0161Y0.5307
X1.1161Y0.8307
X1.1161Y0.5307
X1.1661Y2.4307
X1.2161Y0.8307
X1.2161Y0.5307
X1.3039Y2.4307
X1.3161Y0.8307
X1.3161Y0.5307
T3
X0.1661Y0.8026
X0.1661Y0.7041
X0.1661Y0.6057
X0.4724Y0.1807
X0.5709Y0.1807
X0.6693Y0.1807
X0.7677Y0.1807
X0.8661Y0.1807
X1.5177Y0.7057
X1.5177Y0.4264
X1.6161Y0.7057
X1.6161Y0.4264
X1.7146Y0.7057
X1.7146Y0.4264
X1.813Y0.7057
X1.813Y0.4264
X1.8193Y2.4307
X1.9114Y0.7057
X1.9114Y0.4264
X1.9177Y2.4307
X2.0098Y0.7057
X2.0098Y0.4264
X2.0161Y2.4307
X2.1083Y0.7057
X2.1083Y0.4264
X2.2067Y0.7057
X2.2067Y0.4264
T4
X0.8311Y2.3307
X0.9296Y2.3307
X1.4411Y2.1807
X1.5177Y0.1557
X1.5411Y2.1807
X1.6161Y0.1557
X1.6411Y2.1807
X1.9177Y2.1807
X2.0161Y2.1807
T5
X0.1161Y1.728
X0.1161Y1.028
X0.2161Y1.728
X0.2161Y1.028
X0.3161Y1.728
X0.3161Y1.028
X0.4161Y1.728
X0.4161Y1.028
X0.5161Y1.728
X0.5161Y1.028
X0.6161Y1.728
X0.6161Y1.028
X0.7161Y1.728
X0.7161Y1.028
X0.8161Y1.728
X0.8161Y1.028
X0.9161Y1.728
X0.9161Y1.028
X1.0161Y1.728
X1.0161Y1.028
X1.1161Y1.728
X1.1161Y1.028
X1.2161Y1.728
X1.2161Y1.028
X1.3161Y1.728
X1.3161Y1.028
X1.4161Y1.728
X1.4161Y1.028
X1.5161Y1.728
X1.5161Y1.028
X1.6161Y1.728
X1.6161Y1.028
X1.7161Y1.728
X1.7161Y1.028
X1.8161Y1.728
X1.8161Y1.028
X1.9161Y1.728
X1.9161Y1.028
X2.0161Y1.728
X2.0161Y1.028
T6
X0.2052Y1.9807
X0.3863Y1.9807
X0.8311Y1.9807
X1.0122Y1.9807
T4
G00X0.3411Y2.352
M15
G01X0.3411Y2.2732
M16
G05
G00X0.5656Y2.4307
M15
G01X0.4868Y2.4307
M16
G05
G00X0.5656Y2.1945
M15
G01X0.4868Y2.1945
M16
G05
M30
