%TF.GenerationSoftware,KiCad,Pcbnew,8.0.1*%
%TF.CreationDate,2024-09-06T12:01:45+09:00*%
%TF.ProjectId,raspcat,72617370-6361-4742-9e6b-696361645f70,rev?*%
%TF.SameCoordinates,Original*%
%TF.FileFunction,Legend,Top*%
%TF.FilePolarity,Positive*%
%FSLAX46Y46*%
G04 Gerber Fmt 4.6, Leading zero omitted, Abs format (unit mm)*
G04 Created by KiCad (PCBNEW 8.0.1) date 2024-09-06 12:01:45*
%MOMM*%
%LPD*%
G01*
G04 APERTURE LIST*
G04 Aperture macros list*
%AMRoundRect*
0 Rectangle with rounded corners*
0 $1 Rounding radius*
0 $2 $3 $4 $5 $6 $7 $8 $9 X,Y pos of 4 corners*
0 Add a 4 corners polygon primitive as box body*
4,1,4,$2,$3,$4,$5,$6,$7,$8,$9,$2,$3,0*
0 Add four circle primitives for the rounded corners*
1,1,$1+$1,$2,$3*
1,1,$1+$1,$4,$5*
1,1,$1+$1,$6,$7*
1,1,$1+$1,$8,$9*
0 Add four rect primitives between the rounded corners*
20,1,$1+$1,$2,$3,$4,$5,0*
20,1,$1+$1,$4,$5,$6,$7,0*
20,1,$1+$1,$6,$7,$8,$9,0*
20,1,$1+$1,$8,$9,$2,$3,0*%
G04 Aperture macros list end*
%ADD10C,0.150000*%
%ADD11C,0.120000*%
%ADD12C,0.254000*%
%ADD13R,3.500000X3.500000*%
%ADD14RoundRect,0.750000X-1.000000X0.750000X-1.000000X-0.750000X1.000000X-0.750000X1.000000X0.750000X0*%
%ADD15RoundRect,0.875000X-0.875000X0.875000X-0.875000X-0.875000X0.875000X-0.875000X0.875000X0.875000X0*%
%ADD16RoundRect,0.200000X-0.200000X0.700000X-0.200000X-0.700000X0.200000X-0.700000X0.200000X0.700000X0*%
%ADD17RoundRect,0.237500X0.250000X0.237500X-0.250000X0.237500X-0.250000X-0.237500X0.250000X-0.237500X0*%
%ADD18RoundRect,0.237500X-0.237500X0.300000X-0.237500X-0.300000X0.237500X-0.300000X0.237500X0.300000X0*%
%ADD19RoundRect,0.250000X0.600000X0.750000X-0.600000X0.750000X-0.600000X-0.750000X0.600000X-0.750000X0*%
%ADD20O,1.700000X2.000000*%
%ADD21RoundRect,0.237500X-0.237500X0.250000X-0.237500X-0.250000X0.237500X-0.250000X0.237500X0.250000X0*%
%ADD22RoundRect,0.237500X0.237500X-0.250000X0.237500X0.250000X-0.237500X0.250000X-0.237500X-0.250000X0*%
%ADD23RoundRect,0.237500X-0.250000X-0.237500X0.250000X-0.237500X0.250000X0.237500X-0.250000X0.237500X0*%
%ADD24RoundRect,0.237500X-0.237500X0.287500X-0.237500X-0.287500X0.237500X-0.287500X0.237500X0.287500X0*%
%ADD25R,3.400000X1.000000*%
%ADD26R,3.600000X1.500000*%
%ADD27RoundRect,0.250000X0.600000X0.725000X-0.600000X0.725000X-0.600000X-0.725000X0.600000X-0.725000X0*%
%ADD28O,1.700000X1.950000*%
%ADD29RoundRect,0.237500X0.287500X0.237500X-0.287500X0.237500X-0.287500X-0.237500X0.287500X-0.237500X0*%
%ADD30RoundRect,0.250000X0.725000X-0.600000X0.725000X0.600000X-0.725000X0.600000X-0.725000X-0.600000X0*%
%ADD31O,1.950000X1.700000*%
%ADD32RoundRect,0.237500X0.300000X0.237500X-0.300000X0.237500X-0.300000X-0.237500X0.300000X-0.237500X0*%
%ADD33RoundRect,0.237500X0.237500X-0.300000X0.237500X0.300000X-0.237500X0.300000X-0.237500X-0.300000X0*%
%ADD34R,1.500000X2.300000*%
%ADD35O,1.500000X2.300000*%
%ADD36RoundRect,0.200000X0.750000X0.200000X-0.750000X0.200000X-0.750000X-0.200000X0.750000X-0.200000X0*%
%ADD37C,3.200000*%
%ADD38RoundRect,0.250000X0.300000X0.300000X-0.300000X0.300000X-0.300000X-0.300000X0.300000X-0.300000X0*%
%ADD39RoundRect,0.250000X-0.600000X-0.725000X0.600000X-0.725000X0.600000X0.725000X-0.600000X0.725000X0*%
%ADD40RoundRect,0.237500X-0.300000X-0.237500X0.300000X-0.237500X0.300000X0.237500X-0.300000X0.237500X0*%
%ADD41RoundRect,0.225000X0.225000X0.375000X-0.225000X0.375000X-0.225000X-0.375000X0.225000X-0.375000X0*%
%ADD42RoundRect,0.200000X0.200000X-0.700000X0.200000X0.700000X-0.200000X0.700000X-0.200000X-0.700000X0*%
%ADD43R,1.600000X1.600000*%
%ADD44C,1.600000*%
%ADD45RoundRect,0.250000X-0.450000X0.350000X-0.450000X-0.350000X0.450000X-0.350000X0.450000X0.350000X0*%
%ADD46C,2.300000*%
%ADD47R,1.600000X2.400000*%
%ADD48O,1.600000X2.400000*%
%ADD49O,1.700000X1.700000*%
%ADD50R,1.700000X3.500000*%
%ADD51R,1.700000X1.700000*%
%ADD52RoundRect,0.250000X-0.600000X-0.750000X0.600000X-0.750000X0.600000X0.750000X-0.600000X0.750000X0*%
%ADD53RoundRect,0.150000X0.150000X-0.675000X0.150000X0.675000X-0.150000X0.675000X-0.150000X-0.675000X0*%
G04 APERTURE END LIST*
D10*
G36*
X56221184Y65764765D02*
G01*
X55093406Y65764765D01*
X55093406Y66156559D01*
X55182295Y66156559D01*
X55183736Y66149354D01*
X55183736Y66142005D01*
X55186577Y66135145D01*
X55188034Y66127864D01*
X55192122Y66121759D01*
X55194935Y66114969D01*
X55200185Y66109719D01*
X55204317Y66103549D01*
X55215575Y66094329D01*
X55215627Y66094277D01*
X55215649Y66094268D01*
X55215692Y66094233D01*
X55319630Y66026355D01*
X55384882Y65962623D01*
X55426616Y65882081D01*
X55448724Y65862908D01*
X55476485Y65853654D01*
X55505675Y65855728D01*
X55531850Y65868815D01*
X55551023Y65890923D01*
X55560277Y65918684D01*
X55558203Y65947874D01*
X55552948Y65961606D01*
X55513612Y66037520D01*
X55510131Y66045924D01*
X55507761Y66048812D01*
X55507021Y66050240D01*
X55505522Y66051540D01*
X55500804Y66057289D01*
X55475480Y66082023D01*
X55983218Y66082922D01*
X55983736Y65913433D01*
X55994935Y65886397D01*
X56015627Y65865705D01*
X56042663Y65854506D01*
X56071927Y65854506D01*
X56098963Y65865705D01*
X56119655Y65886397D01*
X56130854Y65913433D01*
X56132295Y65928065D01*
X56130854Y66399840D01*
X56119655Y66426876D01*
X56098963Y66447568D01*
X56071927Y66458767D01*
X56042663Y66458767D01*
X56015627Y66447568D01*
X55994935Y66426876D01*
X55983736Y66399840D01*
X55982295Y66385208D01*
X55982764Y66231506D01*
X55264307Y66230235D01*
X55257217Y66231637D01*
X55250077Y66230210D01*
X55242663Y66230196D01*
X55235802Y66227355D01*
X55228522Y66225898D01*
X55222416Y66221810D01*
X55215627Y66218997D01*
X55210376Y66213747D01*
X55204207Y66209615D01*
X55200130Y66203501D01*
X55194935Y66198305D01*
X55192093Y66191445D01*
X55187974Y66185266D01*
X55186547Y66178058D01*
X55183736Y66171269D01*
X55183736Y66163844D01*
X55182295Y66156559D01*
X55093406Y66156559D01*
X55093406Y66994732D01*
X55182295Y66994732D01*
X55183553Y66815645D01*
X55182884Y66813637D01*
X55183642Y66802965D01*
X55183736Y66789624D01*
X55184767Y66787135D01*
X55184958Y66784447D01*
X55190213Y66770715D01*
X55229548Y66694804D01*
X55233029Y66686399D01*
X55235400Y66683510D01*
X55236140Y66682082D01*
X55237638Y66680783D01*
X55242356Y66675034D01*
X55291816Y66627610D01*
X55318852Y66616411D01*
X55348115Y66616411D01*
X55375152Y66627609D01*
X55395845Y66648302D01*
X55407044Y66675338D01*
X55407044Y66704601D01*
X55395846Y66731637D01*
X55386519Y66743002D01*
X55357887Y66770455D01*
X55332183Y66820059D01*
X55331094Y66975126D01*
X55355034Y67024786D01*
X55375873Y67046521D01*
X55425756Y67072369D01*
X55471089Y67073088D01*
X55558011Y67045141D01*
X56015627Y66589514D01*
X56034744Y66581596D01*
X56042663Y66578316D01*
X56042664Y66578316D01*
X56071927Y66578316D01*
X56098963Y66589514D01*
X56119656Y66610207D01*
X56130854Y66637243D01*
X56132295Y66651875D01*
X56130854Y67161745D01*
X56119655Y67188781D01*
X56098963Y67209473D01*
X56071927Y67220672D01*
X56042663Y67220672D01*
X56015627Y67209473D01*
X55994935Y67188781D01*
X55983736Y67161745D01*
X55982295Y67147113D01*
X55983187Y66831496D01*
X55660525Y67152754D01*
X55659402Y67155001D01*
X55650610Y67162626D01*
X55641820Y67171378D01*
X55639329Y67172410D01*
X55637294Y67174175D01*
X55623869Y67180169D01*
X55509522Y67216934D01*
X55500498Y67220672D01*
X55496746Y67221042D01*
X55495246Y67221524D01*
X55493271Y67221384D01*
X55485866Y67222113D01*
X55420405Y67221075D01*
X55419057Y67221524D01*
X55410522Y67220918D01*
X55395044Y67220672D01*
X55392554Y67219641D01*
X55389867Y67219450D01*
X55376135Y67214195D01*
X55300221Y67174860D01*
X55291817Y67171378D01*
X55288929Y67169009D01*
X55287501Y67168268D01*
X55286201Y67166770D01*
X55280452Y67162051D01*
X55242242Y67122200D01*
X55236140Y67116907D01*
X55234175Y67113786D01*
X55233030Y67112591D01*
X55232272Y67110764D01*
X55228308Y67104464D01*
X55196017Y67037483D01*
X55194935Y67036400D01*
X55191511Y67028136D01*
X55184958Y67014541D01*
X55184767Y67011854D01*
X55183736Y67009364D01*
X55182295Y66994732D01*
X55093406Y66994732D01*
X55093406Y67366305D01*
X55182884Y67366305D01*
X55192138Y67338542D01*
X55211312Y67316435D01*
X55237485Y67303349D01*
X55266675Y67301274D01*
X55281012Y67304534D01*
X56071917Y67569647D01*
X56077105Y67570015D01*
X56085419Y67574173D01*
X56094437Y67577195D01*
X56098482Y67580704D01*
X56103279Y67583102D01*
X56109443Y67590211D01*
X56116545Y67596369D01*
X56118940Y67601161D01*
X56122452Y67605209D01*
X56125426Y67614133D01*
X56129631Y67622542D01*
X56130010Y67627887D01*
X56131706Y67632972D01*
X56131039Y67642355D01*
X56131706Y67651732D01*
X56130011Y67656815D01*
X56129632Y67662162D01*
X56125425Y67670576D01*
X56122452Y67679495D01*
X56118941Y67683543D01*
X56116545Y67688335D01*
X56109440Y67694498D01*
X56103278Y67701602D01*
X56098486Y67703998D01*
X56094438Y67707509D01*
X56081012Y67713503D01*
X55266675Y67983429D01*
X55237485Y67981354D01*
X55211312Y67968268D01*
X55192138Y67946160D01*
X55182884Y67918398D01*
X55184959Y67889208D01*
X55198045Y67863035D01*
X55220153Y67843861D01*
X55233578Y67837867D01*
X55822363Y67642704D01*
X55220152Y67440842D01*
X55198045Y67421668D01*
X55184959Y67395495D01*
X55182884Y67366305D01*
X55093406Y67366305D01*
X55093406Y68072318D01*
X56221184Y68072318D01*
X56221184Y65764765D01*
G37*
G36*
X51624853Y68909779D02*
G01*
X51523661Y68909068D01*
X51435634Y68937370D01*
X51380507Y68991214D01*
X51351394Y69047399D01*
X51316376Y69182631D01*
X51315301Y69278866D01*
X51347847Y69413858D01*
X51377141Y69474623D01*
X51432381Y69531178D01*
X51516904Y69560358D01*
X51623701Y69561109D01*
X51624853Y68909779D01*
G37*
G36*
X49222732Y69070228D02*
G01*
X49134952Y69332100D01*
X49309745Y69332737D01*
X49222732Y69070228D01*
G37*
G36*
X51862459Y68671407D02*
G01*
X45364694Y68671407D01*
X45364694Y69620664D01*
X45453583Y69620664D01*
X45464782Y69593628D01*
X45485474Y69572936D01*
X45512510Y69561737D01*
X45527142Y69560296D01*
X45833224Y69561411D01*
X45834535Y68820664D01*
X45845734Y68793628D01*
X45866426Y68772936D01*
X45893462Y68761737D01*
X45922726Y68761737D01*
X45949762Y68772936D01*
X45970454Y68793628D01*
X45981653Y68820664D01*
X46177393Y68820664D01*
X46188592Y68793628D01*
X46209284Y68772936D01*
X46236320Y68761737D01*
X46250952Y68760296D01*
X46646536Y68761737D01*
X46673572Y68772936D01*
X46694264Y68793628D01*
X46705463Y68820664D01*
X46706896Y68835217D01*
X46861666Y68835217D01*
X46867405Y68806523D01*
X46883688Y68782208D01*
X46908037Y68765975D01*
X46936745Y68760296D01*
X46965439Y68766035D01*
X46989754Y68782318D01*
X46999070Y68793693D01*
X47203530Y69101368D01*
X47416912Y68782318D01*
X47441227Y68766035D01*
X47469921Y68760296D01*
X47498629Y68765975D01*
X47522978Y68782207D01*
X47539261Y68806522D01*
X47545000Y68835217D01*
X47539321Y68863924D01*
X47532404Y68876898D01*
X47292618Y69235428D01*
X47539321Y69606668D01*
X47544984Y69635296D01*
X47699761Y69635296D01*
X47701202Y68820664D01*
X47712401Y68793628D01*
X47733093Y68772936D01*
X47760129Y68761737D01*
X47789393Y68761737D01*
X47816429Y68772936D01*
X47837121Y68793628D01*
X47848320Y68820664D01*
X47849761Y68835296D01*
X47848346Y69635296D01*
X48080714Y69635296D01*
X48082127Y68836281D01*
X48081584Y68823908D01*
X48082152Y68822346D01*
X48082155Y68820664D01*
X48087136Y68808638D01*
X48091584Y68796407D01*
X48092713Y68795174D01*
X48093354Y68793628D01*
X48102559Y68784423D01*
X48111348Y68774826D01*
X48112863Y68774119D01*
X48114046Y68772936D01*
X48126067Y68767957D01*
X48137866Y68762450D01*
X48139537Y68762377D01*
X48141082Y68761737D01*
X48154101Y68761737D01*
X48167102Y68761166D01*
X48168672Y68761737D01*
X48170346Y68761737D01*
X48182372Y68766719D01*
X48194603Y68771166D01*
X48195836Y68772296D01*
X48197382Y68772936D01*
X48206587Y68782142D01*
X48216184Y68790930D01*
X48217358Y68792913D01*
X48218074Y68793628D01*
X48218752Y68795265D01*
X48223678Y68803580D01*
X48421996Y69231035D01*
X48622007Y68804924D01*
X48626687Y68793628D01*
X48627861Y68792454D01*
X48628577Y68790929D01*
X48638180Y68782135D01*
X48647379Y68772936D01*
X48648924Y68772297D01*
X48650158Y68771166D01*
X48662396Y68766716D01*
X48674415Y68761737D01*
X48676086Y68761737D01*
X48677659Y68761165D01*
X48690673Y68761737D01*
X48703679Y68761737D01*
X48705222Y68762377D01*
X48706895Y68762450D01*
X48718702Y68767960D01*
X48730715Y68772936D01*
X48731896Y68774118D01*
X48733413Y68774825D01*
X48742207Y68784429D01*
X48751407Y68793628D01*
X48752047Y68795174D01*
X48753177Y68796407D01*
X48757627Y68808646D01*
X48762606Y68820664D01*
X48762831Y68822956D01*
X48763178Y68823908D01*
X48763100Y68825681D01*
X48764047Y68835296D01*
X48762648Y69625916D01*
X48881303Y69625916D01*
X48884563Y69611579D01*
X49149675Y68820670D01*
X49150044Y68815486D01*
X49154197Y68807179D01*
X49157223Y68798153D01*
X49160734Y68794105D01*
X49163130Y68789313D01*
X49170234Y68783151D01*
X49176397Y68776046D01*
X49181189Y68773650D01*
X49185237Y68770139D01*
X49194156Y68767166D01*
X49202570Y68762959D01*
X49207917Y68762580D01*
X49213000Y68760885D01*
X49222377Y68761552D01*
X49231760Y68760885D01*
X49236845Y68762581D01*
X49242190Y68762960D01*
X49250599Y68767165D01*
X49259523Y68770139D01*
X49263571Y68773651D01*
X49268363Y68776046D01*
X49274522Y68783149D01*
X49281630Y68789312D01*
X49284027Y68794107D01*
X49287537Y68798153D01*
X49293531Y68811579D01*
X49484097Y69386495D01*
X49486416Y69392092D01*
X49486416Y69393490D01*
X49563458Y69625916D01*
X49562791Y69635296D01*
X49680713Y69635296D01*
X49682154Y68820664D01*
X49693353Y68793628D01*
X49714045Y68772936D01*
X49741081Y68761737D01*
X49770345Y68761737D01*
X49797381Y68772936D01*
X49818073Y68793628D01*
X49829272Y68820664D01*
X49830713Y68835296D01*
X49829793Y69355358D01*
X50146769Y68802625D01*
X50150496Y68793628D01*
X50153854Y68790270D01*
X50156248Y68786096D01*
X50164136Y68779988D01*
X50171188Y68772936D01*
X50175606Y68771106D01*
X50179386Y68768179D01*
X50189007Y68765555D01*
X50198224Y68761737D01*
X50203005Y68761737D01*
X50207617Y68760479D01*
X50217514Y68761737D01*
X50227488Y68761737D01*
X50231903Y68763567D01*
X50236647Y68764169D01*
X50245311Y68769120D01*
X50254524Y68772936D01*
X50257902Y68776315D01*
X50262056Y68778688D01*
X50268165Y68786578D01*
X50275216Y68793628D01*
X50277045Y68798045D01*
X50279973Y68801825D01*
X50282597Y68811449D01*
X50286415Y68820664D01*
X50287151Y68828147D01*
X50287673Y68830057D01*
X50287485Y68831533D01*
X50287691Y68833622D01*
X50404542Y68833622D01*
X50410890Y68805056D01*
X50427687Y68781093D01*
X50452375Y68765382D01*
X50481197Y68760315D01*
X50509763Y68766663D01*
X50533726Y68783460D01*
X50542798Y68795030D01*
X50745749Y69115948D01*
X50958653Y68783459D01*
X50982616Y68766663D01*
X51011182Y68760315D01*
X51040004Y68765381D01*
X51064693Y68781093D01*
X51081489Y68805056D01*
X51087837Y68833622D01*
X51082771Y68862443D01*
X51076131Y68875562D01*
X50821118Y69273813D01*
X50821050Y69292439D01*
X51166427Y69292439D01*
X51167659Y69182191D01*
X51166516Y69174507D01*
X51167845Y69165512D01*
X51167868Y69163521D01*
X51168290Y69162501D01*
X51168666Y69159962D01*
X51206672Y69013185D01*
X51207186Y69005963D01*
X51211382Y68994998D01*
X51211709Y68993736D01*
X51212031Y68993301D01*
X51212441Y68992231D01*
X51251777Y68916317D01*
X51255258Y68907913D01*
X51257627Y68905026D01*
X51258368Y68903597D01*
X51259866Y68902298D01*
X51264585Y68896548D01*
X51333781Y68828962D01*
X51334558Y68827408D01*
X51341821Y68821109D01*
X51352140Y68811030D01*
X51354632Y68809998D01*
X51356666Y68808234D01*
X51370091Y68802240D01*
X51484437Y68765476D01*
X51493462Y68761737D01*
X51497213Y68761368D01*
X51498714Y68760885D01*
X51500688Y68761026D01*
X51508094Y68760296D01*
X51713202Y68761737D01*
X51740238Y68772936D01*
X51760930Y68793628D01*
X51772129Y68820664D01*
X51773570Y68835296D01*
X51772129Y69649928D01*
X51760930Y69676964D01*
X51740238Y69697656D01*
X51713202Y69708855D01*
X51698570Y69710296D01*
X51509148Y69708966D01*
X51498713Y69709707D01*
X51495013Y69708866D01*
X51493462Y69708855D01*
X51491631Y69708097D01*
X51484376Y69706447D01*
X51381002Y69670759D01*
X51379177Y69670759D01*
X51370036Y69666974D01*
X51356665Y69662357D01*
X51354630Y69660593D01*
X51352140Y69659561D01*
X51340775Y69650233D01*
X51265596Y69573263D01*
X51258368Y69566994D01*
X51256364Y69563811D01*
X51255258Y69562678D01*
X51254500Y69560851D01*
X51250536Y69554551D01*
X51215634Y69482154D01*
X51211709Y69476856D01*
X51207781Y69465865D01*
X51207186Y69464629D01*
X51207147Y69464091D01*
X51206762Y69463011D01*
X51170970Y69314562D01*
X51167868Y69307071D01*
X51166972Y69297979D01*
X51166516Y69296085D01*
X51166678Y69294993D01*
X51166427Y69292439D01*
X50821050Y69292439D01*
X50819748Y69649928D01*
X50808549Y69676964D01*
X50787857Y69697656D01*
X50760821Y69708855D01*
X50731557Y69708855D01*
X50704521Y69697656D01*
X50683829Y69676964D01*
X50672630Y69649928D01*
X50671189Y69635296D01*
X50672490Y69278126D01*
X50409609Y68862444D01*
X50404542Y68833622D01*
X50287691Y68833622D01*
X50287856Y68835296D01*
X50286415Y69649928D01*
X50275216Y69676964D01*
X50254524Y69697656D01*
X50227488Y69708855D01*
X50198224Y69708855D01*
X50171188Y69697656D01*
X50150496Y69676964D01*
X50139297Y69649928D01*
X50137856Y69635296D01*
X50138775Y69115235D01*
X49821799Y69667968D01*
X49818073Y69676964D01*
X49814714Y69680323D01*
X49812321Y69684496D01*
X49804431Y69690606D01*
X49797381Y69697656D01*
X49792964Y69699486D01*
X49789184Y69702413D01*
X49779560Y69705038D01*
X49770345Y69708855D01*
X49765564Y69708855D01*
X49760952Y69710113D01*
X49751055Y69708855D01*
X49741081Y69708855D01*
X49736665Y69707026D01*
X49731922Y69706423D01*
X49723257Y69701473D01*
X49714045Y69697656D01*
X49710666Y69694278D01*
X49706513Y69691904D01*
X49700403Y69684015D01*
X49693353Y69676964D01*
X49691523Y69672548D01*
X49688596Y69668767D01*
X49685971Y69659144D01*
X49682154Y69649928D01*
X49681417Y69642446D01*
X49680896Y69640535D01*
X49681083Y69639060D01*
X49680713Y69635296D01*
X49562791Y69635296D01*
X49561383Y69655106D01*
X49548297Y69681279D01*
X49526190Y69700453D01*
X49498427Y69709707D01*
X49469237Y69707632D01*
X49443064Y69694546D01*
X49423890Y69672438D01*
X49417896Y69659013D01*
X49359065Y69481529D01*
X49085198Y69480531D01*
X49020871Y69672438D01*
X49001697Y69694546D01*
X48975524Y69707632D01*
X48946334Y69709707D01*
X48918572Y69700453D01*
X48896464Y69681279D01*
X48883378Y69655106D01*
X48881303Y69625916D01*
X48762648Y69625916D01*
X48762606Y69649928D01*
X48751407Y69676964D01*
X48730715Y69697656D01*
X48703679Y69708855D01*
X48674415Y69708855D01*
X48647379Y69697656D01*
X48626687Y69676964D01*
X48615488Y69649928D01*
X48614047Y69635296D01*
X48614870Y69169833D01*
X48490255Y69435316D01*
X48486511Y69445613D01*
X48484276Y69448053D01*
X48482851Y69451090D01*
X48474445Y69458789D01*
X48466747Y69467194D01*
X48463727Y69468603D01*
X48461270Y69470854D01*
X48450560Y69474749D01*
X48440229Y69479570D01*
X48436897Y69479717D01*
X48433769Y69480854D01*
X48422381Y69480354D01*
X48410993Y69480854D01*
X48407864Y69479717D01*
X48404533Y69479570D01*
X48394201Y69474749D01*
X48383492Y69470854D01*
X48381034Y69468603D01*
X48378015Y69467194D01*
X48370316Y69458789D01*
X48361911Y69451090D01*
X48359427Y69446898D01*
X48358251Y69445613D01*
X48357590Y69443798D01*
X48354417Y69438440D01*
X48230121Y69170533D01*
X48229273Y69649928D01*
X48218074Y69676964D01*
X48197382Y69697656D01*
X48170346Y69708855D01*
X48141082Y69708855D01*
X48114046Y69697656D01*
X48093354Y69676964D01*
X48082155Y69649928D01*
X48080714Y69635296D01*
X47848346Y69635296D01*
X47848320Y69649928D01*
X47837121Y69676964D01*
X47816429Y69697656D01*
X47789393Y69708855D01*
X47760129Y69708855D01*
X47733093Y69697656D01*
X47712401Y69676964D01*
X47701202Y69649928D01*
X47699761Y69635296D01*
X47544984Y69635296D01*
X47545000Y69635375D01*
X47539261Y69664070D01*
X47522978Y69688385D01*
X47498629Y69704617D01*
X47469921Y69710296D01*
X47441227Y69704557D01*
X47416912Y69688274D01*
X47407596Y69676899D01*
X47203135Y69369225D01*
X46989754Y69688274D01*
X46965439Y69704557D01*
X46936745Y69710296D01*
X46908037Y69704617D01*
X46883688Y69688384D01*
X46867405Y69664069D01*
X46861666Y69635375D01*
X46867345Y69606667D01*
X46874262Y69593693D01*
X47114047Y69235165D01*
X46867345Y68863925D01*
X46861666Y68835217D01*
X46706896Y68835217D01*
X46706904Y68835296D01*
X46705463Y69649928D01*
X46694264Y69676964D01*
X46673572Y69697656D01*
X46646536Y69708855D01*
X46631904Y69710296D01*
X46236320Y69708855D01*
X46209284Y69697656D01*
X46188592Y69676964D01*
X46177393Y69649928D01*
X46177393Y69620664D01*
X46188592Y69593628D01*
X46209284Y69572936D01*
X46236320Y69561737D01*
X46250952Y69560296D01*
X46557034Y69561411D01*
X46557513Y69290867D01*
X46350606Y69289807D01*
X46323570Y69278608D01*
X46302878Y69257916D01*
X46291679Y69230880D01*
X46291679Y69201616D01*
X46302878Y69174580D01*
X46323570Y69153888D01*
X46350606Y69142689D01*
X46365238Y69141248D01*
X46557776Y69142235D01*
X46558186Y68910028D01*
X46236320Y68908855D01*
X46209284Y68897656D01*
X46188592Y68876964D01*
X46177393Y68849928D01*
X46177393Y68820664D01*
X45981653Y68820664D01*
X45983094Y68835296D01*
X45981653Y69649928D01*
X45970454Y69676964D01*
X45949762Y69697656D01*
X45922726Y69708855D01*
X45908094Y69710296D01*
X45512510Y69708855D01*
X45485474Y69697656D01*
X45464782Y69676964D01*
X45453583Y69649928D01*
X45453583Y69620664D01*
X45364694Y69620664D01*
X45364694Y69799185D01*
X51862459Y69799185D01*
X51862459Y68671407D01*
G37*
G36*
X56696966Y37855357D02*
G01*
X56718703Y37834517D01*
X56744473Y37784784D01*
X56745356Y37705748D01*
X56721555Y37656377D01*
X56700714Y37634641D01*
X56651146Y37608955D01*
X56458026Y37607811D01*
X56408289Y37631789D01*
X56386552Y37652630D01*
X56360782Y37702361D01*
X56359899Y37781397D01*
X56383701Y37830770D01*
X56404541Y37852504D01*
X56454110Y37878190D01*
X56647230Y37879334D01*
X56696966Y37855357D01*
G37*
G36*
X56462449Y38941288D02*
G01*
X56420030Y38941097D01*
X56380082Y38960356D01*
X56360824Y38997520D01*
X56359814Y39114554D01*
X56378934Y39154214D01*
X56415239Y39173027D01*
X56462449Y38941288D01*
G37*
G36*
X56516735Y41103827D02*
G01*
X56254226Y41190840D01*
X56516098Y41278620D01*
X56516735Y41103827D01*
G37*
G36*
X56316015Y42083928D02*
G01*
X56337749Y42063088D01*
X56363412Y42013562D01*
X56363852Y41916167D01*
X56363360Y41913376D01*
X56363875Y41911050D01*
X56364382Y41798721D01*
X56093962Y41798242D01*
X56093009Y42009504D01*
X56117034Y42059340D01*
X56137874Y42081076D01*
X56187607Y42106847D01*
X56266642Y42107730D01*
X56316015Y42083928D01*
G37*
G36*
X57059374Y36074921D02*
G01*
X55855406Y36074921D01*
X55855406Y36619763D01*
X55944295Y36619763D01*
X55945569Y36505741D01*
X55944884Y36496097D01*
X55945718Y36492428D01*
X55945736Y36490845D01*
X55946494Y36489014D01*
X55948144Y36481760D01*
X55983831Y36378387D01*
X55983831Y36376560D01*
X55987617Y36367419D01*
X55992233Y36354049D01*
X55993998Y36352014D01*
X55995030Y36349523D01*
X56004357Y36338158D01*
X56081332Y36262974D01*
X56087596Y36255751D01*
X56090776Y36253750D01*
X56091912Y36252640D01*
X56093744Y36251882D01*
X56100039Y36247919D01*
X56172437Y36213018D01*
X56177735Y36209092D01*
X56188726Y36205165D01*
X56189962Y36204569D01*
X56190500Y36204531D01*
X56191580Y36204145D01*
X56340029Y36168354D01*
X56347520Y36165251D01*
X56356612Y36164356D01*
X56358506Y36163899D01*
X56359598Y36164062D01*
X56362152Y36163810D01*
X56472400Y36165043D01*
X56480084Y36163899D01*
X56489079Y36165229D01*
X56491070Y36165251D01*
X56492090Y36165674D01*
X56494629Y36166049D01*
X56641406Y36204056D01*
X56648628Y36204569D01*
X56659593Y36208766D01*
X56660855Y36209092D01*
X56661290Y36209415D01*
X56662360Y36209824D01*
X56738270Y36249159D01*
X56746676Y36252640D01*
X56749565Y36255012D01*
X56750993Y36255751D01*
X56752292Y36257250D01*
X56758042Y36261968D01*
X56825627Y36331164D01*
X56827183Y36331941D01*
X56833490Y36339214D01*
X56843560Y36349523D01*
X56844591Y36352014D01*
X56846357Y36354049D01*
X56852351Y36367474D01*
X56889115Y36481821D01*
X56892854Y36490845D01*
X56893223Y36494597D01*
X56893706Y36496097D01*
X56893565Y36498072D01*
X56894295Y36505477D01*
X56893077Y36582208D01*
X56893706Y36591048D01*
X56892879Y36594683D01*
X56892854Y36596300D01*
X56892095Y36598132D01*
X56890446Y36605385D01*
X56854759Y36708759D01*
X56854759Y36710584D01*
X56850972Y36719726D01*
X56846357Y36733096D01*
X56844592Y36735131D01*
X56843561Y36737621D01*
X56834233Y36748986D01*
X56784772Y36796409D01*
X56757736Y36807608D01*
X56743104Y36809049D01*
X56461806Y36807608D01*
X56434770Y36796409D01*
X56414078Y36775717D01*
X56402879Y36748681D01*
X56401438Y36734049D01*
X56402879Y36567036D01*
X56414078Y36540000D01*
X56434770Y36519308D01*
X56461806Y36508109D01*
X56491070Y36508109D01*
X56518106Y36519308D01*
X56538798Y36540000D01*
X56549997Y36567036D01*
X56551438Y36581668D01*
X56550767Y36659430D01*
X56711724Y36660255D01*
X56715402Y36656728D01*
X56744438Y36572622D01*
X56745269Y36520254D01*
X56717221Y36433018D01*
X56663376Y36377891D01*
X56607191Y36348777D01*
X56471960Y36313760D01*
X56375725Y36312685D01*
X56240733Y36345231D01*
X56179967Y36374526D01*
X56123412Y36429764D01*
X56094195Y36514396D01*
X56093233Y36600445D01*
X56129727Y36676144D01*
X56131801Y36705334D01*
X56122547Y36733095D01*
X56103374Y36755203D01*
X56077199Y36768290D01*
X56048009Y36770364D01*
X56020248Y36761110D01*
X55998140Y36741937D01*
X55990308Y36729494D01*
X55958017Y36662514D01*
X55956935Y36661431D01*
X55953511Y36653166D01*
X55946958Y36639572D01*
X55946767Y36636885D01*
X55945736Y36634395D01*
X55944295Y36619763D01*
X55855406Y36619763D01*
X55855406Y37305477D01*
X56210961Y37305477D01*
X56211999Y37240016D01*
X56211550Y37238667D01*
X56212156Y37230132D01*
X56212402Y37214655D01*
X56213432Y37212167D01*
X56213624Y37209477D01*
X56218879Y37195746D01*
X56247465Y37140581D01*
X56244293Y37139266D01*
X56223601Y37118574D01*
X56212402Y37091538D01*
X56212402Y37062274D01*
X56223601Y37035238D01*
X56244293Y37014546D01*
X56271329Y37003347D01*
X56285961Y37001906D01*
X56833927Y37003347D01*
X56860963Y37014546D01*
X56881655Y37035238D01*
X56892854Y37062274D01*
X56892854Y37091538D01*
X56881655Y37118574D01*
X56860963Y37139266D01*
X56833927Y37150465D01*
X56819295Y37151906D01*
X56457432Y37150955D01*
X56408289Y37174646D01*
X56386554Y37195485D01*
X56360705Y37245368D01*
X56359520Y37320109D01*
X56348321Y37347145D01*
X56327629Y37367837D01*
X56300593Y37379036D01*
X56271329Y37379036D01*
X56244293Y37367837D01*
X56223601Y37347145D01*
X56212402Y37320109D01*
X56210961Y37305477D01*
X55855406Y37305477D01*
X55855406Y37800715D01*
X56210961Y37800715D01*
X56212114Y37697504D01*
X56211550Y37695809D01*
X56212242Y37686062D01*
X56212402Y37671797D01*
X56213432Y37669309D01*
X56213624Y37666619D01*
X56218879Y37652887D01*
X56258213Y37576981D01*
X56261697Y37568571D01*
X56264069Y37565681D01*
X56264808Y37564255D01*
X56266303Y37562959D01*
X56271024Y37557206D01*
X56310879Y37518993D01*
X56316168Y37512895D01*
X56319287Y37510931D01*
X56320484Y37509784D01*
X56322312Y37509027D01*
X56328610Y37505062D01*
X56395590Y37472772D01*
X56396674Y37471688D01*
X56404947Y37468262D01*
X56418532Y37461712D01*
X56421218Y37461522D01*
X56423710Y37460489D01*
X56438342Y37459048D01*
X56655441Y37460335D01*
X56657534Y37459637D01*
X56668431Y37460412D01*
X56681546Y37460489D01*
X56684034Y37461520D01*
X56686724Y37461711D01*
X56700456Y37466966D01*
X56776360Y37506300D01*
X56784771Y37509783D01*
X56787663Y37512157D01*
X56789088Y37512895D01*
X56790384Y37514390D01*
X56796136Y37519110D01*
X56834351Y37558966D01*
X56840450Y37564255D01*
X56842413Y37567374D01*
X56843560Y37568570D01*
X56844318Y37570401D01*
X56848282Y37576698D01*
X56880572Y37643679D01*
X56881655Y37644761D01*
X56885078Y37653027D01*
X56891632Y37666620D01*
X56891822Y37669308D01*
X56892854Y37671797D01*
X56894295Y37686429D01*
X56893141Y37789641D01*
X56893706Y37791334D01*
X56893013Y37801081D01*
X56892854Y37815347D01*
X56891822Y37817837D01*
X56891632Y37820524D01*
X56886377Y37834256D01*
X56847043Y37910166D01*
X56843560Y37918575D01*
X56841189Y37921464D01*
X56840450Y37922890D01*
X56838952Y37924189D01*
X56834232Y37929940D01*
X56794378Y37968151D01*
X56789088Y37974251D01*
X56785966Y37976216D01*
X56784771Y37977362D01*
X56782941Y37978120D01*
X56776645Y37982083D01*
X56709664Y38014374D01*
X56708582Y38015456D01*
X56700316Y38018880D01*
X56686723Y38025433D01*
X56684035Y38025624D01*
X56681546Y38026655D01*
X56666914Y38028096D01*
X56449814Y38026810D01*
X56447723Y38027507D01*
X56436825Y38026733D01*
X56423710Y38026655D01*
X56421220Y38025624D01*
X56418533Y38025433D01*
X56404801Y38020178D01*
X56328888Y37980843D01*
X56320484Y37977361D01*
X56317596Y37974992D01*
X56316168Y37974251D01*
X56314868Y37972753D01*
X56309119Y37968034D01*
X56270905Y37928179D01*
X56264808Y37922890D01*
X56262844Y37919771D01*
X56261697Y37918574D01*
X56260938Y37916744D01*
X56256975Y37910447D01*
X56224683Y37843466D01*
X56223601Y37842383D01*
X56220179Y37834123D01*
X56213624Y37820525D01*
X56213432Y37817836D01*
X56212402Y37815347D01*
X56210961Y37800715D01*
X55855406Y37800715D01*
X55855406Y38208802D01*
X56211766Y38208802D01*
X56221609Y38181243D01*
X56241248Y38159549D01*
X56267694Y38147022D01*
X56296922Y38145568D01*
X56311186Y38149132D01*
X56834018Y38337322D01*
X56837561Y38337498D01*
X56847220Y38342074D01*
X56857815Y38345887D01*
X56860606Y38348415D01*
X56864007Y38350025D01*
X56871369Y38358158D01*
X56879509Y38365526D01*
X56881120Y38368929D01*
X56883647Y38371719D01*
X56887338Y38382057D01*
X56892036Y38391972D01*
X56892222Y38395731D01*
X56893490Y38399278D01*
X56892944Y38410239D01*
X56893490Y38421200D01*
X56892222Y38424748D01*
X56892036Y38428506D01*
X56887338Y38438422D01*
X56883647Y38448759D01*
X56881120Y38451550D01*
X56879509Y38454952D01*
X56871373Y38462318D01*
X56864008Y38470453D01*
X56860605Y38472065D01*
X56857815Y38474591D01*
X56844520Y38480870D01*
X56296922Y38674911D01*
X56267695Y38673458D01*
X56241248Y38660930D01*
X56221609Y38639236D01*
X56211766Y38611677D01*
X56213219Y38582450D01*
X56225747Y38556003D01*
X56247441Y38536364D01*
X56260736Y38530085D01*
X56598391Y38410437D01*
X56247441Y38284115D01*
X56225747Y38264476D01*
X56213220Y38238030D01*
X56211766Y38208802D01*
X55855406Y38208802D01*
X55855406Y39134049D01*
X56210961Y39134049D01*
X56212178Y38992934D01*
X56211550Y38991048D01*
X56212283Y38980719D01*
X56212402Y38967036D01*
X56213432Y38964548D01*
X56213624Y38961858D01*
X56218879Y38948126D01*
X56256507Y38875512D01*
X56258899Y38868337D01*
X56262194Y38864537D01*
X56264808Y38859494D01*
X56271911Y38853334D01*
X56278073Y38846229D01*
X56285478Y38841567D01*
X56286915Y38840321D01*
X56288067Y38839937D01*
X56290515Y38838396D01*
X56357495Y38806106D01*
X56358579Y38805022D01*
X56366852Y38801596D01*
X56380437Y38795046D01*
X56383123Y38794856D01*
X56385615Y38793823D01*
X56400247Y38792382D01*
X56549306Y38793055D01*
X56552706Y38792382D01*
X56556224Y38793086D01*
X56693427Y38793705D01*
X56695629Y38792971D01*
X56706805Y38793766D01*
X56719641Y38793823D01*
X56722129Y38794854D01*
X56724819Y38795045D01*
X56738550Y38800300D01*
X56811167Y38837930D01*
X56818342Y38840321D01*
X56822141Y38843616D01*
X56827184Y38846229D01*
X56833343Y38853331D01*
X56840450Y38859494D01*
X56845111Y38866900D01*
X56846357Y38868336D01*
X56846741Y38869490D01*
X56848282Y38871937D01*
X56880572Y38938918D01*
X56881655Y38940000D01*
X56885078Y38948266D01*
X56891632Y38961859D01*
X56891822Y38964547D01*
X56892854Y38967036D01*
X56894295Y38981668D01*
X56893077Y39122783D01*
X56893706Y39124668D01*
X56892972Y39134998D01*
X56892854Y39148681D01*
X56891822Y39151171D01*
X56891632Y39153858D01*
X56886377Y39167590D01*
X56840450Y39256224D01*
X56818342Y39275397D01*
X56790581Y39284651D01*
X56761391Y39282577D01*
X56735216Y39269490D01*
X56716043Y39247382D01*
X56706789Y39219621D01*
X56708863Y39190431D01*
X56714118Y39176699D01*
X56744431Y39118197D01*
X56745441Y39001163D01*
X56726322Y38961505D01*
X56689284Y38942312D01*
X56613973Y38941972D01*
X56549997Y39256012D01*
X56549997Y39262967D01*
X56547208Y39269699D01*
X56545699Y39277109D01*
X56541609Y39283215D01*
X56538798Y39290003D01*
X56533547Y39295254D01*
X56529415Y39301424D01*
X56523301Y39305500D01*
X56518106Y39310695D01*
X56511246Y39313537D01*
X56505067Y39317656D01*
X56497858Y39319083D01*
X56491070Y39321894D01*
X56476438Y39323335D01*
X56476365Y39323334D01*
X56476360Y39323335D01*
X56476353Y39323334D01*
X56410976Y39322297D01*
X56409628Y39322746D01*
X56401093Y39322140D01*
X56385615Y39321894D01*
X56383125Y39320863D01*
X56380438Y39320672D01*
X56366706Y39315417D01*
X56294085Y39277788D01*
X56286915Y39275397D01*
X56283118Y39272105D01*
X56278073Y39269490D01*
X56271909Y39262384D01*
X56264808Y39256224D01*
X56260147Y39248821D01*
X56258900Y39247382D01*
X56258515Y39246228D01*
X56256975Y39243781D01*
X56224683Y39176800D01*
X56223601Y39175717D01*
X56220179Y39167457D01*
X56213624Y39153859D01*
X56213432Y39151170D01*
X56212402Y39148681D01*
X56210961Y39134049D01*
X55855406Y39134049D01*
X55855406Y40010239D01*
X56820485Y40010239D01*
X56821926Y39386083D01*
X56833125Y39359047D01*
X56853817Y39338355D01*
X56880853Y39327156D01*
X56910117Y39327156D01*
X56937153Y39338355D01*
X56957845Y39359047D01*
X56969044Y39386083D01*
X56970485Y39400715D01*
X56969044Y40024871D01*
X56957845Y40051907D01*
X56937153Y40072599D01*
X56910117Y40083798D01*
X56880853Y40083798D01*
X56853817Y40072599D01*
X56833125Y40051907D01*
X56821926Y40024871D01*
X56820485Y40010239D01*
X55855406Y40010239D01*
X55855406Y40186084D01*
X55945736Y40186084D01*
X55956935Y40159048D01*
X55977627Y40138356D01*
X56004663Y40127157D01*
X56019295Y40125716D01*
X56655149Y40127100D01*
X56657533Y40126305D01*
X56669144Y40127131D01*
X56681546Y40127157D01*
X56684035Y40128189D01*
X56686723Y40128379D01*
X56700455Y40133634D01*
X56776366Y40172970D01*
X56784771Y40176450D01*
X56787660Y40178822D01*
X56789088Y40179561D01*
X56790387Y40181060D01*
X56796136Y40185777D01*
X56834351Y40225633D01*
X56840450Y40230922D01*
X56842413Y40234041D01*
X56843560Y40235237D01*
X56844318Y40237068D01*
X56848282Y40243365D01*
X56880572Y40310347D01*
X56881655Y40311429D01*
X56885078Y40319694D01*
X56891632Y40333288D01*
X56891822Y40335976D01*
X56892854Y40338465D01*
X56894295Y40353097D01*
X56893077Y40494212D01*
X56893706Y40496097D01*
X56892972Y40506427D01*
X56892854Y40520110D01*
X56891822Y40522600D01*
X56891632Y40525287D01*
X56886377Y40539019D01*
X56847043Y40614928D01*
X56843560Y40623337D01*
X56841189Y40626226D01*
X56840450Y40627652D01*
X56838952Y40628951D01*
X56834232Y40634702D01*
X56794375Y40672916D01*
X56789088Y40679012D01*
X56785968Y40680976D01*
X56784771Y40682124D01*
X56782939Y40682883D01*
X56776645Y40686845D01*
X56709664Y40719137D01*
X56708582Y40720219D01*
X56700320Y40723642D01*
X56686724Y40730196D01*
X56684034Y40730388D01*
X56681546Y40731418D01*
X56666914Y40732859D01*
X56004663Y40731418D01*
X55977627Y40720219D01*
X55956935Y40699527D01*
X55945736Y40672491D01*
X55945736Y40643227D01*
X55956935Y40616191D01*
X55977627Y40595499D01*
X56004663Y40584300D01*
X56019295Y40582859D01*
X56646963Y40584225D01*
X56696965Y40560120D01*
X56718703Y40539279D01*
X56744431Y40489626D01*
X56745441Y40372592D01*
X56721555Y40323044D01*
X56700715Y40301309D01*
X56651259Y40275682D01*
X56004663Y40274275D01*
X55977627Y40263076D01*
X55956935Y40242384D01*
X55945736Y40215348D01*
X55945736Y40186084D01*
X55855406Y40186084D01*
X55855406Y41181812D01*
X55944884Y41181812D01*
X55946579Y41176727D01*
X55946959Y41171382D01*
X55951164Y41162972D01*
X55954138Y41154050D01*
X55957648Y41150003D01*
X55960045Y41145209D01*
X55967150Y41139046D01*
X55973312Y41131942D01*
X55978103Y41129547D01*
X55982152Y41126035D01*
X55995578Y41120041D01*
X56570493Y40929475D01*
X56576091Y40927156D01*
X56577489Y40927156D01*
X56809915Y40850114D01*
X56839105Y40852189D01*
X56865278Y40865275D01*
X56884452Y40887382D01*
X56893706Y40915145D01*
X56891631Y40944335D01*
X56878545Y40970508D01*
X56856437Y40989682D01*
X56843012Y40995676D01*
X56665527Y41054507D01*
X56664529Y41328374D01*
X56856438Y41392701D01*
X56878545Y41411875D01*
X56891632Y41438048D01*
X56893706Y41467238D01*
X56884452Y41495001D01*
X56865279Y41517108D01*
X56839105Y41530195D01*
X56809915Y41532269D01*
X56795578Y41529009D01*
X56004669Y41263897D01*
X55999485Y41263528D01*
X55991175Y41259374D01*
X55982153Y41256349D01*
X55978105Y41252839D01*
X55973312Y41250442D01*
X55967148Y41243337D01*
X55960045Y41237175D01*
X55957649Y41232384D01*
X55954138Y41228335D01*
X55951163Y41219412D01*
X55946959Y41211002D01*
X55946579Y41205658D01*
X55944884Y41200572D01*
X55945550Y41191192D01*
X55944884Y41181812D01*
X55855406Y41181812D01*
X55855406Y42029287D01*
X55944295Y42029287D01*
X55945736Y41709893D01*
X55956935Y41682857D01*
X55977627Y41662165D01*
X56004663Y41650966D01*
X56019295Y41649525D01*
X56833927Y41650966D01*
X56860963Y41662165D01*
X56881655Y41682857D01*
X56892854Y41709893D01*
X56892854Y41739157D01*
X56881655Y41766193D01*
X56860963Y41786885D01*
X56833927Y41798084D01*
X56819295Y41799525D01*
X56513006Y41798984D01*
X56512660Y41875616D01*
X56873465Y42129797D01*
X56889192Y42154476D01*
X56894277Y42183293D01*
X56887948Y42211864D01*
X56871166Y42235838D01*
X56846487Y42251565D01*
X56817669Y42256650D01*
X56789098Y42250321D01*
X56776285Y42243110D01*
X56508599Y42054530D01*
X56505424Y42062828D01*
X56466088Y42138741D01*
X56462607Y42147145D01*
X56460237Y42150033D01*
X56459497Y42151461D01*
X56457998Y42152761D01*
X56453280Y42158510D01*
X56413424Y42196724D01*
X56408136Y42202821D01*
X56405016Y42204785D01*
X56403820Y42205932D01*
X56401989Y42206691D01*
X56395693Y42210654D01*
X56328711Y42242946D01*
X56327629Y42244028D01*
X56319368Y42247450D01*
X56305771Y42254005D01*
X56303081Y42254197D01*
X56300593Y42255227D01*
X56285961Y42256668D01*
X56182749Y42255515D01*
X56181056Y42256079D01*
X56171308Y42255387D01*
X56157044Y42255227D01*
X56154555Y42254197D01*
X56151866Y42254005D01*
X56138134Y42248750D01*
X56062228Y42209417D01*
X56053817Y42205932D01*
X56050926Y42203560D01*
X56049501Y42202821D01*
X56048204Y42201326D01*
X56042452Y42196605D01*
X56004242Y42156754D01*
X55998140Y42151461D01*
X55996175Y42148340D01*
X55995030Y42147145D01*
X55994272Y42145318D01*
X55990308Y42139018D01*
X55958017Y42072038D01*
X55956935Y42070955D01*
X55953511Y42062690D01*
X55946958Y42049096D01*
X55946767Y42046409D01*
X55945736Y42043919D01*
X55944295Y42029287D01*
X55855406Y42029287D01*
X55855406Y42867382D01*
X55944295Y42867382D01*
X55945736Y42395607D01*
X55956935Y42368571D01*
X55977627Y42347879D01*
X56004663Y42336680D01*
X56033927Y42336680D01*
X56060963Y42347879D01*
X56081655Y42368571D01*
X56092854Y42395607D01*
X56094295Y42410239D01*
X56093825Y42563942D01*
X56833927Y42565251D01*
X56860963Y42576450D01*
X56881655Y42597142D01*
X56892854Y42624178D01*
X56892854Y42653442D01*
X56881655Y42680478D01*
X56860963Y42701170D01*
X56833927Y42712369D01*
X56819295Y42713810D01*
X56093371Y42712526D01*
X56092854Y42882014D01*
X56081655Y42909050D01*
X56060963Y42929742D01*
X56033927Y42940941D01*
X56004663Y42940941D01*
X55977627Y42929742D01*
X55956935Y42909050D01*
X55945736Y42882014D01*
X55944295Y42867382D01*
X55855406Y42867382D01*
X55855406Y43029830D01*
X57059374Y43029830D01*
X57059374Y36074921D01*
G37*
G36*
X56696966Y25650595D02*
G01*
X56718703Y25629755D01*
X56744473Y25580022D01*
X56745356Y25500986D01*
X56721555Y25451615D01*
X56700714Y25429879D01*
X56651146Y25404193D01*
X56458026Y25403049D01*
X56408289Y25427027D01*
X56386552Y25447868D01*
X56360782Y25497599D01*
X56359899Y25576635D01*
X56383701Y25626008D01*
X56404541Y25647742D01*
X56454110Y25673428D01*
X56647230Y25674572D01*
X56696966Y25650595D01*
G37*
G36*
X56462449Y26736526D02*
G01*
X56420030Y26736335D01*
X56380082Y26755594D01*
X56360824Y26792758D01*
X56359814Y26909792D01*
X56378934Y26949452D01*
X56415239Y26968265D01*
X56462449Y26736526D01*
G37*
G36*
X57059374Y23870159D02*
G01*
X55855406Y23870159D01*
X55855406Y24415001D01*
X55944295Y24415001D01*
X55945569Y24300979D01*
X55944884Y24291335D01*
X55945718Y24287666D01*
X55945736Y24286083D01*
X55946494Y24284252D01*
X55948144Y24276998D01*
X55983831Y24173625D01*
X55983831Y24171798D01*
X55987617Y24162657D01*
X55992233Y24149287D01*
X55993998Y24147252D01*
X55995030Y24144761D01*
X56004357Y24133396D01*
X56081332Y24058212D01*
X56087596Y24050989D01*
X56090776Y24048988D01*
X56091912Y24047878D01*
X56093744Y24047120D01*
X56100039Y24043157D01*
X56172437Y24008256D01*
X56177735Y24004330D01*
X56188726Y24000403D01*
X56189962Y23999807D01*
X56190500Y23999769D01*
X56191580Y23999383D01*
X56340029Y23963592D01*
X56347520Y23960489D01*
X56356612Y23959594D01*
X56358506Y23959137D01*
X56359598Y23959300D01*
X56362152Y23959048D01*
X56472400Y23960281D01*
X56480084Y23959137D01*
X56489079Y23960467D01*
X56491070Y23960489D01*
X56492090Y23960912D01*
X56494629Y23961287D01*
X56641406Y23999294D01*
X56648628Y23999807D01*
X56659593Y24004004D01*
X56660855Y24004330D01*
X56661290Y24004653D01*
X56662360Y24005062D01*
X56738270Y24044397D01*
X56746676Y24047878D01*
X56749565Y24050250D01*
X56750993Y24050989D01*
X56752292Y24052488D01*
X56758042Y24057206D01*
X56825627Y24126402D01*
X56827183Y24127179D01*
X56833490Y24134452D01*
X56843560Y24144761D01*
X56844591Y24147252D01*
X56846357Y24149287D01*
X56852351Y24162712D01*
X56889115Y24277059D01*
X56892854Y24286083D01*
X56893223Y24289835D01*
X56893706Y24291335D01*
X56893565Y24293310D01*
X56894295Y24300715D01*
X56893077Y24377446D01*
X56893706Y24386286D01*
X56892879Y24389921D01*
X56892854Y24391538D01*
X56892095Y24393370D01*
X56890446Y24400623D01*
X56854759Y24503997D01*
X56854759Y24505822D01*
X56850972Y24514964D01*
X56846357Y24528334D01*
X56844592Y24530369D01*
X56843561Y24532859D01*
X56834233Y24544224D01*
X56784772Y24591647D01*
X56757736Y24602846D01*
X56743104Y24604287D01*
X56461806Y24602846D01*
X56434770Y24591647D01*
X56414078Y24570955D01*
X56402879Y24543919D01*
X56401438Y24529287D01*
X56402879Y24362274D01*
X56414078Y24335238D01*
X56434770Y24314546D01*
X56461806Y24303347D01*
X56491070Y24303347D01*
X56518106Y24314546D01*
X56538798Y24335238D01*
X56549997Y24362274D01*
X56551438Y24376906D01*
X56550767Y24454668D01*
X56711724Y24455493D01*
X56715402Y24451966D01*
X56744438Y24367860D01*
X56745269Y24315492D01*
X56717221Y24228256D01*
X56663376Y24173129D01*
X56607191Y24144015D01*
X56471960Y24108998D01*
X56375725Y24107923D01*
X56240733Y24140469D01*
X56179967Y24169764D01*
X56123412Y24225002D01*
X56094195Y24309634D01*
X56093233Y24395683D01*
X56129727Y24471382D01*
X56131801Y24500572D01*
X56122547Y24528333D01*
X56103374Y24550441D01*
X56077199Y24563528D01*
X56048009Y24565602D01*
X56020248Y24556348D01*
X55998140Y24537175D01*
X55990308Y24524732D01*
X55958017Y24457752D01*
X55956935Y24456669D01*
X55953511Y24448404D01*
X55946958Y24434810D01*
X55946767Y24432123D01*
X55945736Y24429633D01*
X55944295Y24415001D01*
X55855406Y24415001D01*
X55855406Y25100715D01*
X56210961Y25100715D01*
X56211999Y25035254D01*
X56211550Y25033905D01*
X56212156Y25025370D01*
X56212402Y25009893D01*
X56213432Y25007405D01*
X56213624Y25004715D01*
X56218879Y24990984D01*
X56247465Y24935819D01*
X56244293Y24934504D01*
X56223601Y24913812D01*
X56212402Y24886776D01*
X56212402Y24857512D01*
X56223601Y24830476D01*
X56244293Y24809784D01*
X56271329Y24798585D01*
X56285961Y24797144D01*
X56833927Y24798585D01*
X56860963Y24809784D01*
X56881655Y24830476D01*
X56892854Y24857512D01*
X56892854Y24886776D01*
X56881655Y24913812D01*
X56860963Y24934504D01*
X56833927Y24945703D01*
X56819295Y24947144D01*
X56457432Y24946193D01*
X56408289Y24969884D01*
X56386554Y24990723D01*
X56360705Y25040606D01*
X56359520Y25115347D01*
X56348321Y25142383D01*
X56327629Y25163075D01*
X56300593Y25174274D01*
X56271329Y25174274D01*
X56244293Y25163075D01*
X56223601Y25142383D01*
X56212402Y25115347D01*
X56210961Y25100715D01*
X55855406Y25100715D01*
X55855406Y25595953D01*
X56210961Y25595953D01*
X56212114Y25492742D01*
X56211550Y25491047D01*
X56212242Y25481300D01*
X56212402Y25467035D01*
X56213432Y25464547D01*
X56213624Y25461857D01*
X56218879Y25448125D01*
X56258213Y25372219D01*
X56261697Y25363809D01*
X56264069Y25360919D01*
X56264808Y25359493D01*
X56266303Y25358197D01*
X56271024Y25352444D01*
X56310879Y25314231D01*
X56316168Y25308133D01*
X56319287Y25306169D01*
X56320484Y25305022D01*
X56322312Y25304265D01*
X56328610Y25300300D01*
X56395590Y25268010D01*
X56396674Y25266926D01*
X56404947Y25263500D01*
X56418532Y25256950D01*
X56421218Y25256760D01*
X56423710Y25255727D01*
X56438342Y25254286D01*
X56655441Y25255573D01*
X56657534Y25254875D01*
X56668431Y25255650D01*
X56681546Y25255727D01*
X56684034Y25256758D01*
X56686724Y25256949D01*
X56700456Y25262204D01*
X56776360Y25301538D01*
X56784771Y25305021D01*
X56787663Y25307395D01*
X56789088Y25308133D01*
X56790384Y25309628D01*
X56796136Y25314348D01*
X56834351Y25354204D01*
X56840450Y25359493D01*
X56842413Y25362612D01*
X56843560Y25363808D01*
X56844318Y25365639D01*
X56848282Y25371936D01*
X56880572Y25438917D01*
X56881655Y25439999D01*
X56885078Y25448265D01*
X56891632Y25461858D01*
X56891822Y25464546D01*
X56892854Y25467035D01*
X56894295Y25481667D01*
X56893141Y25584879D01*
X56893706Y25586572D01*
X56893013Y25596319D01*
X56892854Y25610585D01*
X56891822Y25613075D01*
X56891632Y25615762D01*
X56886377Y25629494D01*
X56847043Y25705404D01*
X56843560Y25713813D01*
X56841189Y25716702D01*
X56840450Y25718128D01*
X56838952Y25719427D01*
X56834232Y25725178D01*
X56794378Y25763389D01*
X56789088Y25769489D01*
X56785966Y25771454D01*
X56784771Y25772600D01*
X56782941Y25773358D01*
X56776645Y25777321D01*
X56709664Y25809612D01*
X56708582Y25810694D01*
X56700316Y25814118D01*
X56686723Y25820671D01*
X56684035Y25820862D01*
X56681546Y25821893D01*
X56666914Y25823334D01*
X56449814Y25822048D01*
X56447723Y25822745D01*
X56436825Y25821971D01*
X56423710Y25821893D01*
X56421220Y25820862D01*
X56418533Y25820671D01*
X56404801Y25815416D01*
X56328888Y25776081D01*
X56320484Y25772599D01*
X56317596Y25770230D01*
X56316168Y25769489D01*
X56314868Y25767991D01*
X56309119Y25763272D01*
X56270905Y25723417D01*
X56264808Y25718128D01*
X56262844Y25715009D01*
X56261697Y25713812D01*
X56260938Y25711982D01*
X56256975Y25705685D01*
X56224683Y25638704D01*
X56223601Y25637621D01*
X56220179Y25629361D01*
X56213624Y25615763D01*
X56213432Y25613074D01*
X56212402Y25610585D01*
X56210961Y25595953D01*
X55855406Y25595953D01*
X55855406Y26004040D01*
X56211766Y26004040D01*
X56221609Y25976481D01*
X56241248Y25954787D01*
X56267694Y25942260D01*
X56296922Y25940806D01*
X56311186Y25944370D01*
X56834018Y26132560D01*
X56837561Y26132736D01*
X56847220Y26137312D01*
X56857815Y26141125D01*
X56860606Y26143653D01*
X56864007Y26145263D01*
X56871369Y26153396D01*
X56879509Y26160764D01*
X56881120Y26164167D01*
X56883647Y26166957D01*
X56887338Y26177295D01*
X56892036Y26187210D01*
X56892222Y26190969D01*
X56893490Y26194516D01*
X56892944Y26205477D01*
X56893490Y26216438D01*
X56892222Y26219986D01*
X56892036Y26223744D01*
X56887338Y26233660D01*
X56883647Y26243997D01*
X56881120Y26246788D01*
X56879509Y26250190D01*
X56871373Y26257556D01*
X56864008Y26265691D01*
X56860605Y26267303D01*
X56857815Y26269829D01*
X56844520Y26276108D01*
X56296922Y26470149D01*
X56267695Y26468696D01*
X56241248Y26456168D01*
X56221609Y26434474D01*
X56211766Y26406915D01*
X56213219Y26377688D01*
X56225747Y26351241D01*
X56247441Y26331602D01*
X56260736Y26325323D01*
X56598391Y26205675D01*
X56247441Y26079353D01*
X56225747Y26059714D01*
X56213220Y26033268D01*
X56211766Y26004040D01*
X55855406Y26004040D01*
X55855406Y26929287D01*
X56210961Y26929287D01*
X56212178Y26788172D01*
X56211550Y26786286D01*
X56212283Y26775957D01*
X56212402Y26762274D01*
X56213432Y26759786D01*
X56213624Y26757096D01*
X56218879Y26743364D01*
X56256507Y26670750D01*
X56258899Y26663575D01*
X56262194Y26659775D01*
X56264808Y26654732D01*
X56271911Y26648572D01*
X56278073Y26641467D01*
X56285478Y26636805D01*
X56286915Y26635559D01*
X56288067Y26635175D01*
X56290515Y26633634D01*
X56357495Y26601344D01*
X56358579Y26600260D01*
X56366852Y26596834D01*
X56380437Y26590284D01*
X56383123Y26590094D01*
X56385615Y26589061D01*
X56400247Y26587620D01*
X56549306Y26588293D01*
X56552706Y26587620D01*
X56556224Y26588324D01*
X56693427Y26588943D01*
X56695629Y26588209D01*
X56706805Y26589004D01*
X56719641Y26589061D01*
X56722129Y26590092D01*
X56724819Y26590283D01*
X56738550Y26595538D01*
X56811167Y26633168D01*
X56818342Y26635559D01*
X56822141Y26638854D01*
X56827184Y26641467D01*
X56833343Y26648569D01*
X56840450Y26654732D01*
X56845111Y26662138D01*
X56846357Y26663574D01*
X56846741Y26664728D01*
X56848282Y26667175D01*
X56880572Y26734156D01*
X56881655Y26735238D01*
X56885078Y26743504D01*
X56891632Y26757097D01*
X56891822Y26759785D01*
X56892854Y26762274D01*
X56894295Y26776906D01*
X56893077Y26918021D01*
X56893706Y26919906D01*
X56892972Y26930236D01*
X56892854Y26943919D01*
X56891822Y26946409D01*
X56891632Y26949096D01*
X56886377Y26962828D01*
X56840450Y27051462D01*
X56818342Y27070635D01*
X56790581Y27079889D01*
X56761391Y27077815D01*
X56735216Y27064728D01*
X56716043Y27042620D01*
X56706789Y27014859D01*
X56708863Y26985669D01*
X56714118Y26971937D01*
X56744431Y26913435D01*
X56745441Y26796401D01*
X56726322Y26756743D01*
X56689284Y26737550D01*
X56613973Y26737210D01*
X56549997Y27051250D01*
X56549997Y27058205D01*
X56547208Y27064937D01*
X56545699Y27072347D01*
X56541609Y27078453D01*
X56538798Y27085241D01*
X56533547Y27090492D01*
X56529415Y27096662D01*
X56523301Y27100738D01*
X56518106Y27105933D01*
X56511246Y27108775D01*
X56505067Y27112894D01*
X56497858Y27114321D01*
X56491070Y27117132D01*
X56476438Y27118573D01*
X56476365Y27118572D01*
X56476360Y27118573D01*
X56476353Y27118572D01*
X56410976Y27117535D01*
X56409628Y27117984D01*
X56401093Y27117378D01*
X56385615Y27117132D01*
X56383125Y27116101D01*
X56380438Y27115910D01*
X56366706Y27110655D01*
X56294085Y27073026D01*
X56286915Y27070635D01*
X56283118Y27067343D01*
X56278073Y27064728D01*
X56271909Y27057622D01*
X56264808Y27051462D01*
X56260147Y27044059D01*
X56258900Y27042620D01*
X56258515Y27041466D01*
X56256975Y27039019D01*
X56224683Y26972038D01*
X56223601Y26970955D01*
X56220179Y26962695D01*
X56213624Y26949097D01*
X56213432Y26946408D01*
X56212402Y26943919D01*
X56210961Y26929287D01*
X55855406Y26929287D01*
X55855406Y27805477D01*
X56820485Y27805477D01*
X56821926Y27181321D01*
X56833125Y27154285D01*
X56853817Y27133593D01*
X56880853Y27122394D01*
X56910117Y27122394D01*
X56937153Y27133593D01*
X56957845Y27154285D01*
X56969044Y27181321D01*
X56970485Y27195953D01*
X56969044Y27820109D01*
X56957845Y27847145D01*
X56937153Y27867837D01*
X56910117Y27879036D01*
X56880853Y27879036D01*
X56853817Y27867837D01*
X56833125Y27847145D01*
X56821926Y27820109D01*
X56820485Y27805477D01*
X55855406Y27805477D01*
X55855406Y27981322D01*
X55945736Y27981322D01*
X55956935Y27954286D01*
X55977627Y27933594D01*
X56004663Y27922395D01*
X56019295Y27920954D01*
X56833927Y27922395D01*
X56860963Y27933594D01*
X56881655Y27954286D01*
X56892854Y27981322D01*
X56892854Y28010586D01*
X56881655Y28037622D01*
X56860963Y28058314D01*
X56833927Y28069513D01*
X56819295Y28070954D01*
X56004663Y28069513D01*
X55977627Y28058314D01*
X55956935Y28037622D01*
X55945736Y28010586D01*
X55945736Y27981322D01*
X55855406Y27981322D01*
X55855406Y28643572D01*
X55944295Y28643572D01*
X55945553Y28464485D01*
X55944884Y28462477D01*
X55945642Y28451805D01*
X55945736Y28438464D01*
X55946767Y28435975D01*
X55946958Y28433287D01*
X55952213Y28419555D01*
X55991548Y28343644D01*
X55995029Y28335239D01*
X55997400Y28332350D01*
X55998140Y28330922D01*
X55999638Y28329623D01*
X56004356Y28323874D01*
X56053816Y28276450D01*
X56080852Y28265251D01*
X56110115Y28265251D01*
X56137152Y28276449D01*
X56157845Y28297142D01*
X56169044Y28324178D01*
X56169044Y28353441D01*
X56157846Y28380477D01*
X56148519Y28391842D01*
X56119887Y28419295D01*
X56094183Y28468899D01*
X56093094Y28623966D01*
X56117034Y28673626D01*
X56137873Y28695361D01*
X56187756Y28721209D01*
X56233089Y28721928D01*
X56320011Y28693981D01*
X56777627Y28238354D01*
X56796744Y28230436D01*
X56804663Y28227156D01*
X56804664Y28227156D01*
X56833927Y28227156D01*
X56860963Y28238354D01*
X56881656Y28259047D01*
X56892854Y28286083D01*
X56894295Y28300715D01*
X56892854Y28810585D01*
X56881655Y28837621D01*
X56860963Y28858313D01*
X56833927Y28869512D01*
X56804663Y28869512D01*
X56777627Y28858313D01*
X56756935Y28837621D01*
X56745736Y28810585D01*
X56744295Y28795953D01*
X56745187Y28480336D01*
X56422525Y28801594D01*
X56421402Y28803841D01*
X56412610Y28811466D01*
X56403820Y28820218D01*
X56401329Y28821250D01*
X56399294Y28823015D01*
X56385869Y28829009D01*
X56271522Y28865774D01*
X56262498Y28869512D01*
X56258746Y28869882D01*
X56257246Y28870364D01*
X56255271Y28870224D01*
X56247866Y28870953D01*
X56182405Y28869915D01*
X56181057Y28870364D01*
X56172522Y28869758D01*
X56157044Y28869512D01*
X56154554Y28868481D01*
X56151867Y28868290D01*
X56138135Y28863035D01*
X56062221Y28823700D01*
X56053817Y28820218D01*
X56050929Y28817849D01*
X56049501Y28817108D01*
X56048201Y28815610D01*
X56042452Y28810891D01*
X56004242Y28771040D01*
X55998140Y28765747D01*
X55996175Y28762626D01*
X55995030Y28761431D01*
X55994272Y28759604D01*
X55990308Y28753304D01*
X55958017Y28686323D01*
X55956935Y28685240D01*
X55953511Y28676976D01*
X55946958Y28663381D01*
X55946767Y28660694D01*
X55945736Y28658204D01*
X55944295Y28643572D01*
X55855406Y28643572D01*
X55855406Y29443573D01*
X55944295Y29443573D01*
X55945512Y29366843D01*
X55944884Y29358002D01*
X55945710Y29354368D01*
X55945736Y29352750D01*
X55946494Y29350919D01*
X55948144Y29343665D01*
X55983831Y29240292D01*
X55983831Y29238465D01*
X55987617Y29229324D01*
X55992233Y29215954D01*
X55993998Y29213919D01*
X55995030Y29211428D01*
X56004357Y29200063D01*
X56081332Y29124879D01*
X56087596Y29117656D01*
X56090776Y29115655D01*
X56091912Y29114545D01*
X56093744Y29113787D01*
X56100039Y29109824D01*
X56172437Y29074923D01*
X56177735Y29070997D01*
X56188726Y29067070D01*
X56189962Y29066474D01*
X56190500Y29066436D01*
X56191580Y29066050D01*
X56340029Y29030259D01*
X56347520Y29027156D01*
X56356612Y29026261D01*
X56358506Y29025804D01*
X56359598Y29025967D01*
X56362152Y29025715D01*
X56472400Y29026948D01*
X56480084Y29025804D01*
X56489079Y29027134D01*
X56491070Y29027156D01*
X56492090Y29027579D01*
X56494629Y29027954D01*
X56641406Y29065961D01*
X56648628Y29066474D01*
X56659593Y29070671D01*
X56660855Y29070997D01*
X56661290Y29071320D01*
X56662360Y29071729D01*
X56738270Y29111064D01*
X56746676Y29114545D01*
X56749565Y29116917D01*
X56750993Y29117656D01*
X56752292Y29119155D01*
X56758042Y29123873D01*
X56825627Y29193069D01*
X56827183Y29193846D01*
X56833490Y29201119D01*
X56843560Y29211428D01*
X56844591Y29213919D01*
X56846357Y29215954D01*
X56852351Y29229379D01*
X56889115Y29343726D01*
X56892854Y29352750D01*
X56893223Y29356502D01*
X56893706Y29358002D01*
X56893565Y29359977D01*
X56894295Y29367382D01*
X56893077Y29444113D01*
X56893706Y29452953D01*
X56892879Y29456588D01*
X56892854Y29458205D01*
X56892095Y29460037D01*
X56890446Y29467290D01*
X56854759Y29570664D01*
X56854759Y29572489D01*
X56850972Y29581631D01*
X56846357Y29595001D01*
X56844592Y29597036D01*
X56843561Y29599526D01*
X56834233Y29610891D01*
X56784772Y29658314D01*
X56757735Y29669513D01*
X56728473Y29669513D01*
X56701436Y29658314D01*
X56680744Y29637622D01*
X56669545Y29610585D01*
X56669545Y29581323D01*
X56680744Y29554286D01*
X56690071Y29542921D01*
X56715402Y29518633D01*
X56744438Y29434527D01*
X56745269Y29382159D01*
X56717221Y29294923D01*
X56663376Y29239796D01*
X56607191Y29210682D01*
X56471960Y29175665D01*
X56375725Y29174590D01*
X56240733Y29207136D01*
X56179967Y29236431D01*
X56123412Y29291669D01*
X56094151Y29376428D01*
X56093320Y29428797D01*
X56121470Y29516348D01*
X56157846Y29554287D01*
X56169044Y29581323D01*
X56169044Y29610586D01*
X56157845Y29637622D01*
X56137152Y29658315D01*
X56110115Y29669513D01*
X56080852Y29669513D01*
X56053816Y29658314D01*
X56042451Y29648986D01*
X56012329Y29617570D01*
X56011407Y29617108D01*
X56006853Y29611858D01*
X55995029Y29599525D01*
X55993998Y29597037D01*
X55992233Y29595001D01*
X55986239Y29581575D01*
X55949474Y29467231D01*
X55945736Y29458205D01*
X55945366Y29454454D01*
X55944884Y29452953D01*
X55945024Y29450979D01*
X55944295Y29443573D01*
X55855406Y29443573D01*
X55855406Y29758402D01*
X57059374Y29758402D01*
X57059374Y23870159D01*
G37*
G36*
X23357603Y68671407D02*
G01*
X21620353Y68671407D01*
X21620353Y68838100D01*
X21709242Y68838100D01*
X21713875Y68809205D01*
X21729211Y68784283D01*
X21752918Y68767126D01*
X21781386Y68760348D01*
X21810281Y68764981D01*
X21835203Y68780317D01*
X21852360Y68804024D01*
X21857150Y68817924D01*
X21978629Y69332066D01*
X22054798Y69049137D01*
X22056056Y69039674D01*
X22058467Y69035509D01*
X22059742Y69030775D01*
X22065759Y69022915D01*
X22070718Y69014349D01*
X22074575Y69011397D01*
X22077529Y69007538D01*
X22086096Y69002578D01*
X22093956Y68996562D01*
X22098648Y68995311D01*
X22102854Y68992876D01*
X22112671Y68991572D01*
X22122232Y68989022D01*
X22127044Y68989662D01*
X22131863Y68989021D01*
X22141433Y68991574D01*
X22151240Y68992876D01*
X22155441Y68995309D01*
X22160138Y68996561D01*
X22168002Y69002581D01*
X22176565Y69007538D01*
X22179516Y69011394D01*
X22183376Y69014348D01*
X22188338Y69022920D01*
X22194352Y69030776D01*
X22197046Y69037961D01*
X22198038Y69039673D01*
X22198229Y69041115D01*
X22199515Y69044542D01*
X22275243Y69331259D01*
X22401734Y68804024D01*
X22418891Y68780317D01*
X22443813Y68764981D01*
X22472708Y68760348D01*
X22501176Y68767127D01*
X22524883Y68784283D01*
X22540219Y68809205D01*
X22544852Y68838100D01*
X22542864Y68852668D01*
X22391659Y69482915D01*
X22661571Y69482915D01*
X22662609Y69417454D01*
X22662160Y69416105D01*
X22662766Y69407571D01*
X22663012Y69392092D01*
X22664043Y69389603D01*
X22664234Y69386915D01*
X22669489Y69373183D01*
X22708825Y69297269D01*
X22712306Y69288866D01*
X22714675Y69285979D01*
X22715416Y69284550D01*
X22716914Y69283251D01*
X22721633Y69277501D01*
X22761488Y69239288D01*
X22766777Y69233190D01*
X22769896Y69231227D01*
X22771093Y69230079D01*
X22772923Y69229321D01*
X22779220Y69225357D01*
X22851619Y69190454D01*
X22856916Y69186529D01*
X22867901Y69182604D01*
X22869142Y69182006D01*
X22869682Y69181968D01*
X22870762Y69181582D01*
X23010373Y69147922D01*
X23071385Y69118509D01*
X23093121Y69097669D01*
X23118969Y69047788D01*
X23119621Y69006677D01*
X23095973Y68957623D01*
X23075133Y68935889D01*
X23025530Y68910185D01*
X22866423Y68909068D01*
X22745951Y68947802D01*
X22716761Y68945727D01*
X22690588Y68932641D01*
X22671414Y68910534D01*
X22662160Y68882771D01*
X22664235Y68853581D01*
X22677321Y68827408D01*
X22699428Y68808234D01*
X22712854Y68802240D01*
X22827198Y68765476D01*
X22836224Y68761737D01*
X22839975Y68761368D01*
X22841476Y68760885D01*
X22843450Y68761026D01*
X22850856Y68760296D01*
X23029944Y68761555D01*
X23031952Y68760885D01*
X23042624Y68761644D01*
X23055965Y68761737D01*
X23058454Y68762769D01*
X23061142Y68762959D01*
X23074874Y68768214D01*
X23150788Y68807551D01*
X23159191Y68811031D01*
X23162078Y68813401D01*
X23163507Y68814141D01*
X23164806Y68815640D01*
X23170556Y68820358D01*
X23208769Y68860214D01*
X23214867Y68865502D01*
X23216830Y68868622D01*
X23217978Y68869818D01*
X23218736Y68871649D01*
X23222700Y68877945D01*
X23254991Y68944927D01*
X23256074Y68946009D01*
X23259495Y68954270D01*
X23266051Y68967867D01*
X23266242Y68970557D01*
X23267273Y68973045D01*
X23268714Y68987677D01*
X23267675Y69053139D01*
X23268125Y69054487D01*
X23267518Y69063023D01*
X23267273Y69078499D01*
X23266242Y69080988D01*
X23266051Y69083677D01*
X23260796Y69097409D01*
X23221462Y69173315D01*
X23217978Y69181726D01*
X23215605Y69184617D01*
X23214867Y69186042D01*
X23213371Y69187339D01*
X23208651Y69193091D01*
X23168799Y69231301D01*
X23163507Y69237403D01*
X23160385Y69239368D01*
X23159191Y69240513D01*
X23157363Y69241271D01*
X23151064Y69245235D01*
X23078666Y69280137D01*
X23073369Y69284062D01*
X23062379Y69287989D01*
X23061142Y69288585D01*
X23060602Y69288624D01*
X23059523Y69289009D01*
X22919915Y69322668D01*
X22858897Y69352084D01*
X22837163Y69372924D01*
X22811315Y69422805D01*
X22810663Y69463917D01*
X22834310Y69512968D01*
X22855150Y69534704D01*
X22904753Y69560408D01*
X23063860Y69561525D01*
X23184333Y69522789D01*
X23213523Y69524864D01*
X23239697Y69537950D01*
X23258871Y69560057D01*
X23268125Y69587819D01*
X23266050Y69617009D01*
X23252964Y69643183D01*
X23230857Y69662357D01*
X23217431Y69668351D01*
X23103082Y69705118D01*
X23094060Y69708855D01*
X23090310Y69709225D01*
X23088809Y69709707D01*
X23086833Y69709567D01*
X23079428Y69710296D01*
X22900339Y69709038D01*
X22898332Y69709707D01*
X22887659Y69708949D01*
X22874320Y69708855D01*
X22871831Y69707825D01*
X22869142Y69707633D01*
X22855410Y69702378D01*
X22779504Y69663045D01*
X22771093Y69659560D01*
X22768202Y69657188D01*
X22766777Y69656449D01*
X22765480Y69654954D01*
X22759728Y69650233D01*
X22721518Y69610382D01*
X22715416Y69605089D01*
X22713451Y69601968D01*
X22712306Y69600773D01*
X22711548Y69598946D01*
X22707584Y69592646D01*
X22675293Y69525666D01*
X22674211Y69524583D01*
X22670787Y69516318D01*
X22664234Y69502724D01*
X22664043Y69500037D01*
X22663012Y69497547D01*
X22661571Y69482915D01*
X22391659Y69482915D01*
X22351813Y69648999D01*
X22350419Y69659490D01*
X22348501Y69662802D01*
X22347598Y69666568D01*
X22341214Y69675389D01*
X22335757Y69684815D01*
X22332697Y69687157D01*
X22330441Y69690275D01*
X22321171Y69695979D01*
X22312519Y69702602D01*
X22308795Y69703596D01*
X22305519Y69705611D01*
X22294775Y69707334D01*
X22284244Y69710142D01*
X22280425Y69709635D01*
X22276624Y69710244D01*
X22266028Y69707722D01*
X22255235Y69706287D01*
X22251903Y69704359D01*
X22248156Y69703466D01*
X22239331Y69697080D01*
X22229910Y69691625D01*
X22227569Y69688568D01*
X22224449Y69686309D01*
X22218743Y69677037D01*
X22212123Y69668388D01*
X22210097Y69662987D01*
X22209113Y69661387D01*
X22208825Y69659597D01*
X22206960Y69654621D01*
X22127089Y69352217D01*
X22046638Y69651050D01*
X22044981Y69661387D01*
X22042980Y69664639D01*
X22041971Y69668387D01*
X22035352Y69677034D01*
X22029645Y69686309D01*
X22026524Y69688568D01*
X22024184Y69691625D01*
X22014758Y69697083D01*
X22005938Y69703465D01*
X22002192Y69704357D01*
X21998859Y69706287D01*
X21988064Y69707722D01*
X21977470Y69710244D01*
X21973666Y69709635D01*
X21969851Y69710141D01*
X21959329Y69707336D01*
X21948575Y69705611D01*
X21945295Y69703594D01*
X21941575Y69702601D01*
X21932928Y69695983D01*
X21923653Y69690275D01*
X21921394Y69687155D01*
X21918337Y69684814D01*
X21912882Y69675393D01*
X21906496Y69666568D01*
X21904617Y69661118D01*
X21903675Y69659489D01*
X21903435Y69657687D01*
X21901706Y69652667D01*
X21709242Y68838100D01*
X21620353Y68838100D01*
X21620353Y69799185D01*
X23357603Y69799185D01*
X23357603Y68671407D01*
G37*
G36*
X62117433Y15557966D02*
G01*
X62139169Y15537126D01*
X62164940Y15487393D01*
X62165823Y15408358D01*
X62142021Y15358985D01*
X62121181Y15337251D01*
X62071655Y15311588D01*
X61974260Y15311148D01*
X61971470Y15311640D01*
X61969143Y15311125D01*
X61856814Y15310618D01*
X61856335Y15581038D01*
X62067597Y15581991D01*
X62117433Y15557966D01*
G37*
G36*
X62403651Y14615626D02*
G01*
X58991599Y14615626D01*
X58991599Y14764883D01*
X60909060Y14764883D01*
X60920259Y14737847D01*
X60940951Y14717155D01*
X60967987Y14705956D01*
X60982619Y14704515D01*
X61606774Y14705956D01*
X61633810Y14717155D01*
X61654502Y14737847D01*
X61665701Y14764883D01*
X61665701Y14794147D01*
X61654502Y14821183D01*
X61633810Y14841875D01*
X61606774Y14853074D01*
X61592142Y14854515D01*
X60967987Y14853074D01*
X60940951Y14841875D01*
X60920259Y14821183D01*
X60909060Y14794147D01*
X60909060Y14764883D01*
X58991599Y14764883D01*
X58991599Y15641073D01*
X59080488Y15641073D01*
X59091687Y15614037D01*
X59112379Y15593345D01*
X59139415Y15582146D01*
X59154047Y15580705D01*
X59307749Y15581175D01*
X59309059Y14841073D01*
X59320258Y14814037D01*
X59340950Y14793345D01*
X59367986Y14782146D01*
X59397250Y14782146D01*
X59424286Y14793345D01*
X59444978Y14814037D01*
X59456177Y14841073D01*
X59457618Y14855705D01*
X59456333Y15581629D01*
X59625822Y15582146D01*
X59652858Y15593345D01*
X59673550Y15614037D01*
X59684749Y15641073D01*
X59684749Y15655705D01*
X59802857Y15655705D01*
X59804298Y14841073D01*
X59815497Y14814037D01*
X59836189Y14793345D01*
X59863225Y14782146D01*
X59892489Y14782146D01*
X59919525Y14793345D01*
X59940217Y14814037D01*
X59951416Y14841073D01*
X59952857Y14855705D01*
X59952247Y15200135D01*
X60159155Y15201194D01*
X60186191Y15212393D01*
X60206883Y15233085D01*
X60218082Y15260121D01*
X60218082Y15289385D01*
X60206883Y15316421D01*
X60186191Y15337113D01*
X60159155Y15348312D01*
X60144523Y15349753D01*
X59951984Y15348767D01*
X59951574Y15580974D01*
X60273441Y15582146D01*
X60300477Y15593345D01*
X60321169Y15614037D01*
X60332368Y15641073D01*
X60375726Y15641073D01*
X60386925Y15614037D01*
X60407617Y15593345D01*
X60434653Y15582146D01*
X60449285Y15580705D01*
X60602987Y15581175D01*
X60604297Y14841073D01*
X60615496Y14814037D01*
X60636188Y14793345D01*
X60663224Y14782146D01*
X60692488Y14782146D01*
X60719524Y14793345D01*
X60740216Y14814037D01*
X60751415Y14841073D01*
X60752856Y14855705D01*
X60751571Y15581629D01*
X60921060Y15582146D01*
X60948096Y15593345D01*
X60968788Y15614037D01*
X60979987Y15641073D01*
X60979987Y15655705D01*
X61707619Y15655705D01*
X61709060Y14841073D01*
X61720259Y14814037D01*
X61740951Y14793345D01*
X61767987Y14782146D01*
X61797251Y14782146D01*
X61824287Y14793345D01*
X61844979Y14814037D01*
X61856178Y14841073D01*
X61857619Y14855705D01*
X61857077Y15161994D01*
X61933709Y15162340D01*
X62187891Y14801535D01*
X62212570Y14785808D01*
X62241387Y14780723D01*
X62269958Y14787052D01*
X62293932Y14803834D01*
X62309659Y14828513D01*
X62314744Y14857331D01*
X62308415Y14885902D01*
X62301204Y14898715D01*
X62112623Y15166401D01*
X62120922Y15169576D01*
X62196836Y15208913D01*
X62205239Y15212393D01*
X62208126Y15214763D01*
X62209555Y15215503D01*
X62210854Y15217002D01*
X62216604Y15221720D01*
X62254817Y15261576D01*
X62260915Y15266864D01*
X62262878Y15269984D01*
X62264026Y15271180D01*
X62264784Y15273011D01*
X62268748Y15279307D01*
X62301039Y15346289D01*
X62302122Y15347371D01*
X62305543Y15355632D01*
X62312099Y15369229D01*
X62312290Y15371919D01*
X62313321Y15374407D01*
X62314762Y15389039D01*
X62313608Y15492251D01*
X62314173Y15493944D01*
X62313480Y15503692D01*
X62313321Y15517956D01*
X62312290Y15520445D01*
X62312099Y15523134D01*
X62306844Y15536866D01*
X62267510Y15612772D01*
X62264026Y15621183D01*
X62261653Y15624074D01*
X62260915Y15625499D01*
X62259419Y15626796D01*
X62254699Y15632548D01*
X62214847Y15670758D01*
X62209555Y15676860D01*
X62206433Y15678825D01*
X62205239Y15679970D01*
X62203411Y15680728D01*
X62197112Y15684692D01*
X62130131Y15716983D01*
X62129049Y15718065D01*
X62120783Y15721489D01*
X62107190Y15728042D01*
X62104502Y15728233D01*
X62102013Y15729264D01*
X62087381Y15730705D01*
X61767987Y15729264D01*
X61740951Y15718065D01*
X61720259Y15697373D01*
X61709060Y15670337D01*
X61707619Y15655705D01*
X60979987Y15655705D01*
X60979987Y15670337D01*
X60968788Y15697373D01*
X60948096Y15718065D01*
X60921060Y15729264D01*
X60906428Y15730705D01*
X60434653Y15729264D01*
X60407617Y15718065D01*
X60386925Y15697373D01*
X60375726Y15670337D01*
X60375726Y15641073D01*
X60332368Y15641073D01*
X60332368Y15670337D01*
X60321169Y15697373D01*
X60300477Y15718065D01*
X60273441Y15729264D01*
X60258809Y15730705D01*
X59863225Y15729264D01*
X59836189Y15718065D01*
X59815497Y15697373D01*
X59804298Y15670337D01*
X59802857Y15655705D01*
X59684749Y15655705D01*
X59684749Y15670337D01*
X59673550Y15697373D01*
X59652858Y15718065D01*
X59625822Y15729264D01*
X59611190Y15730705D01*
X59139415Y15729264D01*
X59112379Y15718065D01*
X59091687Y15697373D01*
X59080488Y15670337D01*
X59080488Y15641073D01*
X58991599Y15641073D01*
X58991599Y15819594D01*
X62403651Y15819594D01*
X62403651Y14615626D01*
G37*
G36*
X974174Y17242482D02*
G01*
X975184Y17125449D01*
X951297Y17075899D01*
X930457Y17054165D01*
X880888Y17028479D01*
X687768Y17027335D01*
X638032Y17051312D01*
X616297Y17072151D01*
X590567Y17121805D01*
X589557Y17238839D01*
X599828Y17260145D01*
X964687Y17260790D01*
X974174Y17242482D01*
G37*
G36*
X726344Y18003457D02*
G01*
X745577Y17966342D01*
X746724Y17803057D01*
X746055Y17801049D01*
X746813Y17790377D01*
X746816Y17789853D01*
X599975Y17789365D01*
X590592Y17807471D01*
X589503Y17962537D01*
X608676Y18002308D01*
X646070Y18021686D01*
X687180Y18022338D01*
X726344Y18003457D01*
G37*
G36*
X1479593Y16789683D02*
G01*
X86590Y16789683D01*
X86590Y17319892D01*
X175479Y17319892D01*
X186678Y17292856D01*
X207370Y17272164D01*
X234406Y17260965D01*
X249038Y17259524D01*
X440854Y17259864D01*
X440704Y17258334D01*
X441921Y17117219D01*
X441293Y17115333D01*
X442026Y17105004D01*
X442145Y17091321D01*
X443175Y17088833D01*
X443367Y17086143D01*
X448622Y17072412D01*
X487956Y16996505D01*
X491440Y16988094D01*
X493812Y16985203D01*
X494551Y16983778D01*
X496046Y16982482D01*
X500767Y16976729D01*
X540618Y16938520D01*
X545911Y16932417D01*
X549032Y16930453D01*
X550227Y16929307D01*
X552054Y16928550D01*
X558354Y16924585D01*
X625334Y16892295D01*
X626417Y16891212D01*
X634682Y16887789D01*
X648276Y16881235D01*
X650963Y16881045D01*
X653453Y16880013D01*
X668085Y16878572D01*
X885184Y16879859D01*
X887276Y16879161D01*
X898173Y16879936D01*
X911289Y16880013D01*
X913778Y16881045D01*
X916466Y16881235D01*
X930198Y16886490D01*
X1006112Y16925827D01*
X1014515Y16929307D01*
X1017402Y16931677D01*
X1018831Y16932417D01*
X1020130Y16933916D01*
X1025880Y16938634D01*
X1064093Y16978490D01*
X1070191Y16983778D01*
X1072154Y16986898D01*
X1073302Y16988094D01*
X1074060Y16989925D01*
X1078024Y16996221D01*
X1110315Y17063203D01*
X1111398Y17064285D01*
X1114819Y17072546D01*
X1121375Y17086143D01*
X1121566Y17088833D01*
X1122597Y17091321D01*
X1124038Y17105953D01*
X1122820Y17247069D01*
X1123449Y17248954D01*
X1122715Y17259279D01*
X1122597Y17272966D01*
X1121564Y17275458D01*
X1121374Y17278144D01*
X1116119Y17291876D01*
X1113269Y17297375D01*
X1122597Y17319892D01*
X1122597Y17349156D01*
X1111398Y17376192D01*
X1090706Y17396884D01*
X1063670Y17408083D01*
X1049038Y17409524D01*
X548587Y17408639D01*
X544420Y17408935D01*
X543504Y17408630D01*
X234406Y17408083D01*
X207370Y17396884D01*
X186678Y17376192D01*
X175479Y17349156D01*
X175479Y17319892D01*
X86590Y17319892D01*
X86590Y17982144D01*
X440704Y17982144D01*
X441962Y17803056D01*
X441293Y17801048D01*
X442051Y17790376D01*
X442145Y17777036D01*
X443175Y17774548D01*
X443367Y17771858D01*
X448622Y17758127D01*
X451472Y17752627D01*
X442145Y17730109D01*
X442145Y17700845D01*
X453344Y17673809D01*
X474036Y17653117D01*
X501072Y17641918D01*
X515704Y17640477D01*
X847638Y17641580D01*
X849180Y17641066D01*
X856843Y17641611D01*
X923077Y17641831D01*
X925371Y17641066D01*
X936772Y17641877D01*
X949384Y17641918D01*
X951873Y17642950D01*
X954561Y17643140D01*
X968293Y17648395D01*
X1040913Y17686025D01*
X1048084Y17688415D01*
X1051880Y17691708D01*
X1056926Y17694322D01*
X1063089Y17701429D01*
X1070191Y17707588D01*
X1074851Y17714992D01*
X1076099Y17716430D01*
X1076483Y17717585D01*
X1078024Y17720031D01*
X1110315Y17787013D01*
X1111398Y17788095D01*
X1114819Y17796356D01*
X1121375Y17809953D01*
X1121566Y17812643D01*
X1122597Y17815131D01*
X1124038Y17829763D01*
X1122820Y17970879D01*
X1123449Y17972764D01*
X1122715Y17983089D01*
X1122597Y17996776D01*
X1121564Y17999268D01*
X1121374Y18001954D01*
X1116119Y18015686D01*
X1070191Y18104318D01*
X1048083Y18123492D01*
X1020322Y18132745D01*
X991132Y18130671D01*
X964958Y18117583D01*
X945784Y18095475D01*
X936531Y18067714D01*
X938605Y18038524D01*
X943860Y18024792D01*
X974174Y17966292D01*
X975184Y17849259D01*
X956064Y17809599D01*
X919062Y17790425D01*
X904212Y17790376D01*
X895354Y17807471D01*
X894207Y17970756D01*
X894877Y17972763D01*
X894118Y17983436D01*
X894025Y17996776D01*
X892993Y17999266D01*
X892803Y18001953D01*
X887548Y18015685D01*
X849918Y18088306D01*
X847528Y18095476D01*
X844235Y18099273D01*
X841621Y18104318D01*
X834514Y18110482D01*
X828355Y18117583D01*
X820951Y18122244D01*
X819513Y18123491D01*
X818358Y18123876D01*
X815912Y18125416D01*
X748930Y18157708D01*
X747848Y18158790D01*
X739587Y18162212D01*
X725990Y18168767D01*
X723300Y18168959D01*
X720812Y18169989D01*
X706180Y18171430D01*
X640718Y18170392D01*
X639370Y18170841D01*
X630840Y18170235D01*
X615358Y18169989D01*
X612866Y18168957D01*
X610180Y18168766D01*
X596448Y18163511D01*
X523832Y18125883D01*
X516658Y18123491D01*
X512859Y18120197D01*
X507816Y18117583D01*
X501654Y18110479D01*
X494551Y18104318D01*
X489890Y18096915D01*
X488642Y18095475D01*
X488256Y18094320D01*
X486718Y18091875D01*
X454426Y18024895D01*
X453344Y18023812D01*
X449921Y18015551D01*
X443367Y18001954D01*
X443175Y17999265D01*
X442145Y17996776D01*
X440704Y17982144D01*
X86590Y17982144D01*
X86590Y18629763D01*
X440704Y18629763D01*
X441921Y18553035D01*
X441293Y18544191D01*
X442119Y18540557D01*
X442145Y18538940D01*
X442903Y18537110D01*
X444553Y18529854D01*
X480241Y18426482D01*
X480241Y18424657D01*
X484024Y18415523D01*
X488643Y18402144D01*
X490408Y18400109D01*
X491439Y18397620D01*
X500766Y18386255D01*
X550226Y18338831D01*
X577262Y18327632D01*
X606525Y18327632D01*
X633562Y18338830D01*
X654255Y18359523D01*
X665454Y18386559D01*
X665454Y18415822D01*
X654256Y18442858D01*
X644929Y18454223D01*
X619597Y18478511D01*
X590560Y18562620D01*
X589729Y18614987D01*
X617778Y18702223D01*
X671624Y18757351D01*
X727806Y18786463D01*
X863038Y18821481D01*
X959273Y18822556D01*
X1094265Y18790010D01*
X1155031Y18760715D01*
X1211586Y18705476D01*
X1240847Y18620718D01*
X1241678Y18568349D01*
X1213528Y18480798D01*
X1177153Y18442858D01*
X1165955Y18415821D01*
X1165955Y18386559D01*
X1177154Y18359523D01*
X1197847Y18338830D01*
X1224884Y18327632D01*
X1254146Y18327632D01*
X1281182Y18338831D01*
X1292548Y18348159D01*
X1322669Y18379576D01*
X1323592Y18380037D01*
X1328145Y18385288D01*
X1339970Y18397620D01*
X1341000Y18400109D01*
X1342766Y18402144D01*
X1348760Y18415570D01*
X1385524Y18529915D01*
X1389263Y18538940D01*
X1389632Y18542692D01*
X1390115Y18544192D01*
X1389974Y18546167D01*
X1390704Y18553572D01*
X1389486Y18630303D01*
X1390115Y18639143D01*
X1389288Y18642778D01*
X1389263Y18644395D01*
X1388504Y18646227D01*
X1386855Y18653480D01*
X1351168Y18756854D01*
X1351168Y18758680D01*
X1347379Y18767827D01*
X1342766Y18781191D01*
X1341002Y18783225D01*
X1339970Y18785717D01*
X1330642Y18797082D01*
X1253671Y18872261D01*
X1247403Y18879489D01*
X1244219Y18881493D01*
X1243087Y18882599D01*
X1241259Y18883357D01*
X1234960Y18887321D01*
X1162561Y18922223D01*
X1157264Y18926148D01*
X1146272Y18930076D01*
X1145037Y18930671D01*
X1144498Y18930710D01*
X1143419Y18931095D01*
X994969Y18966887D01*
X987479Y18969989D01*
X978386Y18970885D01*
X976493Y18971341D01*
X975400Y18971179D01*
X972847Y18971430D01*
X862598Y18970198D01*
X854915Y18971341D01*
X845919Y18970012D01*
X843929Y18969989D01*
X842907Y18969567D01*
X840371Y18969191D01*
X693592Y18931185D01*
X686371Y18930671D01*
X675405Y18926475D01*
X674144Y18926148D01*
X673708Y18925826D01*
X672639Y18925416D01*
X596731Y18886084D01*
X588322Y18882600D01*
X585431Y18880228D01*
X584006Y18879489D01*
X582707Y18877993D01*
X576957Y18873272D01*
X509372Y18804077D01*
X507817Y18803299D01*
X501508Y18796025D01*
X491440Y18785717D01*
X490409Y18783229D01*
X488643Y18781192D01*
X482649Y18767766D01*
X445882Y18653418D01*
X442145Y18644395D01*
X441775Y18640646D01*
X441293Y18639144D01*
X441433Y18637169D01*
X440704Y18629763D01*
X86590Y18629763D01*
X86590Y19060319D01*
X1479593Y19060319D01*
X1479593Y16789683D01*
G37*
G36*
X45033239Y1334914D02*
G01*
X45033884Y970056D01*
X45015575Y960569D01*
X44898541Y959559D01*
X44848994Y983445D01*
X44827258Y1004286D01*
X44801572Y1053854D01*
X44800428Y1246974D01*
X44824405Y1296710D01*
X44845245Y1318446D01*
X44894899Y1344176D01*
X45011932Y1345186D01*
X45033239Y1334914D01*
G37*
G36*
X45957223Y721816D02*
G01*
X43762777Y721816D01*
X43762777Y1342848D01*
X43851666Y1342848D01*
X43852898Y1232600D01*
X43851755Y1224916D01*
X43853084Y1215921D01*
X43853107Y1213930D01*
X43853529Y1212910D01*
X43853905Y1210371D01*
X43891911Y1063594D01*
X43892425Y1056372D01*
X43896621Y1045407D01*
X43896948Y1044145D01*
X43897270Y1043710D01*
X43897680Y1042640D01*
X43937014Y966730D01*
X43940496Y958324D01*
X43942867Y955435D01*
X43943607Y954007D01*
X43945105Y952708D01*
X43949824Y946958D01*
X44019019Y879373D01*
X44019797Y877817D01*
X44027069Y871510D01*
X44037379Y861440D01*
X44039869Y860409D01*
X44041905Y858643D01*
X44055330Y852649D01*
X44169676Y815885D01*
X44178701Y812146D01*
X44182452Y811777D01*
X44183953Y811294D01*
X44185927Y811435D01*
X44193333Y810705D01*
X44270063Y811923D01*
X44278904Y811294D01*
X44282538Y812121D01*
X44284156Y812146D01*
X44285987Y812905D01*
X44293241Y814554D01*
X44396614Y850241D01*
X44398440Y850241D01*
X44407576Y854026D01*
X44420952Y858643D01*
X44422988Y860410D01*
X44425477Y861440D01*
X44436842Y870767D01*
X44484266Y920228D01*
X44495464Y947265D01*
X44495464Y976528D01*
X44484266Y1003564D01*
X44463573Y1024257D01*
X44436537Y1035455D01*
X44407274Y1035455D01*
X44380237Y1024257D01*
X44368872Y1014929D01*
X44344584Y989598D01*
X44260477Y960562D01*
X44208109Y959731D01*
X44120873Y987779D01*
X44065746Y1041624D01*
X44036632Y1097809D01*
X44001615Y1233040D01*
X44001239Y1266658D01*
X44651666Y1266658D01*
X44652952Y1049559D01*
X44652255Y1047466D01*
X44653029Y1036569D01*
X44653107Y1023454D01*
X44654137Y1020966D01*
X44654329Y1018276D01*
X44659584Y1004544D01*
X44698917Y928640D01*
X44702401Y920229D01*
X44704774Y917337D01*
X44705513Y915912D01*
X44707007Y914616D01*
X44711728Y908864D01*
X44751583Y870649D01*
X44756873Y864550D01*
X44759991Y862587D01*
X44761188Y861440D01*
X44763018Y860682D01*
X44769316Y856718D01*
X44836296Y824428D01*
X44837379Y823345D01*
X44845644Y819922D01*
X44859238Y813368D01*
X44861925Y813178D01*
X44864415Y812146D01*
X44879047Y810705D01*
X45020161Y811923D01*
X45022047Y811294D01*
X45032376Y812028D01*
X45046060Y812146D01*
X45048549Y813178D01*
X45051237Y813368D01*
X45064969Y818623D01*
X45070469Y821474D01*
X45092987Y812146D01*
X45122251Y812146D01*
X45149287Y823345D01*
X45169979Y844037D01*
X45181178Y871073D01*
X45182619Y885705D01*
X45181877Y1304753D01*
X45375476Y1304753D01*
X45376245Y1276581D01*
X45376065Y1276038D01*
X45376383Y1271561D01*
X45376917Y1252026D01*
X45377947Y1249538D01*
X45378139Y1246848D01*
X45383394Y1233117D01*
X45421023Y1160500D01*
X45423415Y1153325D01*
X45426709Y1149526D01*
X45429323Y1144483D01*
X45436424Y1138324D01*
X45442588Y1131217D01*
X45449993Y1126556D01*
X45451430Y1125310D01*
X45452583Y1124926D01*
X45455031Y1123385D01*
X45522011Y1091095D01*
X45523094Y1090012D01*
X45531359Y1086589D01*
X45544953Y1080035D01*
X45547640Y1079845D01*
X45550130Y1078813D01*
X45564762Y1077372D01*
X45659729Y1078434D01*
X45699212Y1059400D01*
X45718783Y1021631D01*
X45718876Y1018234D01*
X45700360Y979827D01*
X45663195Y960569D01*
X45546161Y959559D01*
X45470285Y996137D01*
X45441095Y998211D01*
X45413334Y988957D01*
X45391226Y969784D01*
X45378139Y943609D01*
X45376065Y914419D01*
X45385319Y886658D01*
X45404492Y864550D01*
X45416935Y856718D01*
X45483916Y824428D01*
X45484999Y823345D01*
X45493263Y819922D01*
X45506858Y813368D01*
X45509545Y813178D01*
X45512035Y812146D01*
X45526667Y810705D01*
X45667781Y811923D01*
X45669667Y811294D01*
X45679996Y812028D01*
X45693680Y812146D01*
X45696169Y813178D01*
X45698857Y813368D01*
X45712589Y818623D01*
X45785209Y856253D01*
X45792380Y858643D01*
X45796176Y861936D01*
X45801222Y864550D01*
X45807385Y871657D01*
X45814487Y877816D01*
X45819147Y885220D01*
X45820395Y886658D01*
X45820779Y887813D01*
X45822320Y890259D01*
X45854611Y957241D01*
X45855694Y958323D01*
X45859115Y966584D01*
X45865671Y980181D01*
X45865862Y982871D01*
X45866893Y985359D01*
X45868334Y999991D01*
X45867564Y1028164D01*
X45867745Y1028706D01*
X45867426Y1033184D01*
X45866893Y1052718D01*
X45865862Y1055207D01*
X45865671Y1057896D01*
X45860416Y1071628D01*
X45822786Y1144245D01*
X45820395Y1151419D01*
X45817100Y1155219D01*
X45814487Y1160261D01*
X45807385Y1166421D01*
X45801222Y1173527D01*
X45793816Y1178189D01*
X45792380Y1179434D01*
X45791226Y1179819D01*
X45788779Y1181359D01*
X45721798Y1213650D01*
X45720716Y1214732D01*
X45712450Y1218156D01*
X45698857Y1224709D01*
X45696169Y1224900D01*
X45693680Y1225931D01*
X45679048Y1227372D01*
X45584080Y1226311D01*
X45544598Y1245345D01*
X45525026Y1283114D01*
X45524933Y1286511D01*
X45543448Y1324917D01*
X45580693Y1344218D01*
X45659728Y1345101D01*
X45735428Y1308607D01*
X45764618Y1306532D01*
X45792379Y1315786D01*
X45814487Y1334959D01*
X45827574Y1361133D01*
X45829649Y1390323D01*
X45820395Y1418085D01*
X45801222Y1440192D01*
X45788779Y1448025D01*
X45721798Y1480317D01*
X45720716Y1481399D01*
X45712454Y1484822D01*
X45698858Y1491376D01*
X45696168Y1491568D01*
X45693680Y1492598D01*
X45679048Y1494039D01*
X45575835Y1492886D01*
X45574142Y1493450D01*
X45564400Y1492758D01*
X45550130Y1492598D01*
X45547638Y1491566D01*
X45544952Y1491375D01*
X45531220Y1486120D01*
X45458604Y1448492D01*
X45451430Y1446100D01*
X45447631Y1442806D01*
X45442588Y1440192D01*
X45436426Y1433088D01*
X45429323Y1426927D01*
X45424662Y1419524D01*
X45423414Y1418084D01*
X45423028Y1416929D01*
X45421490Y1414484D01*
X45389198Y1347504D01*
X45388116Y1346421D01*
X45384693Y1338160D01*
X45378139Y1324563D01*
X45377947Y1321874D01*
X45376917Y1319385D01*
X45375476Y1304753D01*
X45181877Y1304753D01*
X45181733Y1386157D01*
X45182030Y1390324D01*
X45181724Y1391240D01*
X45181178Y1700337D01*
X45169979Y1727373D01*
X45149287Y1748065D01*
X45122251Y1759264D01*
X45092987Y1759264D01*
X45065951Y1748065D01*
X45045259Y1727373D01*
X45034060Y1700337D01*
X45032619Y1685705D01*
X45032958Y1493889D01*
X45031428Y1494039D01*
X44890312Y1492822D01*
X44888427Y1493450D01*
X44878102Y1492717D01*
X44864415Y1492598D01*
X44861923Y1491566D01*
X44859237Y1491375D01*
X44845505Y1486120D01*
X44769600Y1446788D01*
X44761189Y1443303D01*
X44758297Y1440931D01*
X44756873Y1440192D01*
X44755576Y1438697D01*
X44749824Y1433976D01*
X44711610Y1394121D01*
X44705513Y1388832D01*
X44703549Y1385713D01*
X44702402Y1384516D01*
X44701643Y1382686D01*
X44697680Y1376389D01*
X44665388Y1309409D01*
X44664306Y1308326D01*
X44660883Y1300065D01*
X44654329Y1286468D01*
X44654137Y1283779D01*
X44653107Y1281290D01*
X44651666Y1266658D01*
X44001239Y1266658D01*
X44000540Y1329275D01*
X44033086Y1464267D01*
X44062381Y1525033D01*
X44117620Y1581588D01*
X44202378Y1610849D01*
X44254747Y1611680D01*
X44342298Y1583530D01*
X44380238Y1547154D01*
X44407274Y1535956D01*
X44436537Y1535956D01*
X44463573Y1547155D01*
X44484266Y1567848D01*
X44495464Y1594885D01*
X44495464Y1624148D01*
X44484265Y1651184D01*
X44474937Y1662549D01*
X44443520Y1692671D01*
X44443059Y1693593D01*
X44437808Y1698147D01*
X44425476Y1709971D01*
X44422987Y1711002D01*
X44420952Y1712767D01*
X44407526Y1718761D01*
X44293181Y1755526D01*
X44284156Y1759264D01*
X44280404Y1759634D01*
X44278904Y1760116D01*
X44276929Y1759976D01*
X44269524Y1760705D01*
X44192793Y1759488D01*
X44183953Y1760116D01*
X44180318Y1759290D01*
X44178701Y1759264D01*
X44176869Y1758506D01*
X44169616Y1756856D01*
X44066243Y1721169D01*
X44064416Y1721169D01*
X44055269Y1717381D01*
X44041905Y1712767D01*
X44039871Y1711004D01*
X44037379Y1709971D01*
X44026014Y1700643D01*
X43950835Y1623673D01*
X43943607Y1617404D01*
X43941603Y1614221D01*
X43940497Y1613088D01*
X43939739Y1611261D01*
X43935775Y1604961D01*
X43900873Y1532563D01*
X43896948Y1527265D01*
X43893020Y1516274D01*
X43892425Y1515038D01*
X43892386Y1514500D01*
X43892001Y1513420D01*
X43856209Y1364971D01*
X43853107Y1357480D01*
X43852211Y1348388D01*
X43851755Y1346494D01*
X43851917Y1345402D01*
X43851666Y1342848D01*
X43762777Y1342848D01*
X43762777Y1849594D01*
X45957223Y1849594D01*
X45957223Y721816D01*
G37*
G36*
X8345442Y68290407D02*
G01*
X3942062Y68290407D01*
X3942062Y69254296D01*
X4030951Y69254296D01*
X4032392Y68439664D01*
X4043591Y68412628D01*
X4064283Y68391936D01*
X4091319Y68380737D01*
X4120583Y68380737D01*
X4147619Y68391936D01*
X4168311Y68412628D01*
X4179510Y68439664D01*
X4180951Y68454296D01*
X4180031Y68974358D01*
X4497007Y68421625D01*
X4500734Y68412628D01*
X4504092Y68409270D01*
X4506486Y68405096D01*
X4514374Y68398988D01*
X4521426Y68391936D01*
X4525844Y68390106D01*
X4529624Y68387179D01*
X4539245Y68384555D01*
X4548462Y68380737D01*
X4553243Y68380737D01*
X4557855Y68379479D01*
X4567752Y68380737D01*
X4577726Y68380737D01*
X4582141Y68382567D01*
X4586885Y68383169D01*
X4595549Y68388120D01*
X4604762Y68391936D01*
X4608140Y68395315D01*
X4612294Y68397688D01*
X4618403Y68405578D01*
X4625454Y68412628D01*
X4627283Y68417045D01*
X4630211Y68420825D01*
X4632835Y68430449D01*
X4636653Y68439664D01*
X4637389Y68447147D01*
X4637911Y68449057D01*
X4637723Y68450533D01*
X4638094Y68454296D01*
X4636679Y69254296D01*
X4869046Y69254296D01*
X4870487Y68439664D01*
X4881686Y68412628D01*
X4902378Y68391936D01*
X4929414Y68380737D01*
X4958678Y68380737D01*
X4985714Y68391936D01*
X5006406Y68412628D01*
X5017605Y68439664D01*
X5019046Y68454296D01*
X5019029Y68463676D01*
X6126778Y68463676D01*
X6128853Y68434486D01*
X6141939Y68408313D01*
X6164047Y68389139D01*
X6191809Y68379885D01*
X6220999Y68381960D01*
X6247172Y68395046D01*
X6266346Y68417154D01*
X6272340Y68430579D01*
X6467503Y69019365D01*
X6669365Y68417154D01*
X6688539Y68395046D01*
X6714712Y68381960D01*
X6743902Y68379885D01*
X6771665Y68389139D01*
X6793772Y68408313D01*
X6806858Y68434486D01*
X6808933Y68463676D01*
X6805673Y68478013D01*
X6737006Y68682867D01*
X6888094Y68682867D01*
X6889132Y68617407D01*
X6888683Y68616058D01*
X6889289Y68607524D01*
X6889535Y68592045D01*
X6890566Y68589556D01*
X6890757Y68586868D01*
X6896012Y68573136D01*
X6935348Y68497222D01*
X6938829Y68488818D01*
X6941198Y68485931D01*
X6941939Y68484502D01*
X6943437Y68483203D01*
X6948156Y68477453D01*
X6988007Y68439244D01*
X6993300Y68433141D01*
X6996421Y68431177D01*
X6997616Y68430031D01*
X6999443Y68429274D01*
X7005743Y68425309D01*
X7072724Y68393019D01*
X7073807Y68391936D01*
X7082071Y68388513D01*
X7095666Y68381959D01*
X7098353Y68381769D01*
X7100843Y68380737D01*
X7115475Y68379296D01*
X7294562Y68380555D01*
X7296570Y68379885D01*
X7307242Y68380644D01*
X7320583Y68380737D01*
X7323072Y68381769D01*
X7325760Y68381959D01*
X7339492Y68387214D01*
X7415403Y68426550D01*
X7423808Y68430030D01*
X7426697Y68432402D01*
X7428125Y68433141D01*
X7429424Y68434640D01*
X7435173Y68439357D01*
X7482597Y68488817D01*
X7493796Y68515853D01*
X7493796Y68545116D01*
X7482598Y68572153D01*
X7461905Y68592846D01*
X7434869Y68604045D01*
X7405606Y68604045D01*
X7378570Y68592847D01*
X7367205Y68583520D01*
X7339752Y68554889D01*
X7290148Y68529185D01*
X7135081Y68528096D01*
X7085421Y68552036D01*
X7063686Y68572875D01*
X7037838Y68622758D01*
X7037119Y68668091D01*
X7065066Y68755013D01*
X7520693Y69212628D01*
X7531891Y69239664D01*
X7651440Y69239664D01*
X7662639Y69212628D01*
X7683331Y69191936D01*
X7710367Y69180737D01*
X7724999Y69179296D01*
X7878701Y69179766D01*
X7879972Y68461309D01*
X7878570Y68454218D01*
X7879997Y68447079D01*
X7880011Y68439664D01*
X7882852Y68432804D01*
X7884309Y68425523D01*
X7888397Y68419418D01*
X7891210Y68412628D01*
X7896460Y68407378D01*
X7900592Y68401208D01*
X7906706Y68397132D01*
X7911902Y68391936D01*
X7918762Y68389095D01*
X7924941Y68384975D01*
X7932149Y68383549D01*
X7938938Y68380737D01*
X7946364Y68380737D01*
X7953648Y68379296D01*
X7960853Y68380737D01*
X7968202Y68380737D01*
X7975062Y68383579D01*
X7982343Y68385035D01*
X7988448Y68389124D01*
X7995238Y68391936D01*
X8000488Y68397187D01*
X8006658Y68401318D01*
X8015878Y68412577D01*
X8015930Y68412628D01*
X8015939Y68412651D01*
X8015974Y68412693D01*
X8083852Y68516632D01*
X8147584Y68581884D01*
X8228126Y68623617D01*
X8247299Y68645725D01*
X8256553Y68673486D01*
X8254479Y68702676D01*
X8241392Y68728851D01*
X8219284Y68748024D01*
X8191523Y68757278D01*
X8162333Y68755204D01*
X8148601Y68749949D01*
X8072687Y68710614D01*
X8064283Y68707132D01*
X8061395Y68704763D01*
X8059967Y68704022D01*
X8058667Y68702524D01*
X8052918Y68697805D01*
X8028184Y68672482D01*
X8027285Y69180220D01*
X8196774Y69180737D01*
X8223810Y69191936D01*
X8244502Y69212628D01*
X8255701Y69239664D01*
X8255701Y69268928D01*
X8244502Y69295964D01*
X8223810Y69316656D01*
X8196774Y69327855D01*
X8182142Y69329296D01*
X7710367Y69327855D01*
X7683331Y69316656D01*
X7662639Y69295964D01*
X7651440Y69268928D01*
X7651440Y69239664D01*
X7531891Y69239664D01*
X7531891Y69239665D01*
X7531891Y69268928D01*
X7520693Y69295964D01*
X7500000Y69316657D01*
X7472964Y69327855D01*
X7458332Y69329296D01*
X6948462Y69327855D01*
X6921426Y69316656D01*
X6900734Y69295964D01*
X6889535Y69268928D01*
X6889535Y69239664D01*
X6900734Y69212628D01*
X6921426Y69191936D01*
X6948462Y69180737D01*
X6963094Y69179296D01*
X7278711Y69180189D01*
X6957453Y68857527D01*
X6955206Y68856403D01*
X6947581Y68847612D01*
X6938829Y68838821D01*
X6937797Y68836331D01*
X6936032Y68834295D01*
X6930038Y68820870D01*
X6893273Y68706524D01*
X6889535Y68697499D01*
X6889165Y68693748D01*
X6888683Y68692247D01*
X6888823Y68690273D01*
X6888094Y68682867D01*
X6737006Y68682867D01*
X6540560Y69268920D01*
X6540192Y69274106D01*
X6536035Y69282419D01*
X6533012Y69291439D01*
X6529502Y69295486D01*
X6527105Y69300280D01*
X6519997Y69306444D01*
X6513838Y69313546D01*
X6509046Y69315942D01*
X6504998Y69319453D01*
X6496074Y69322428D01*
X6487665Y69326632D01*
X6482320Y69327012D01*
X6477235Y69328707D01*
X6467852Y69328041D01*
X6458475Y69328707D01*
X6453392Y69327013D01*
X6448045Y69326633D01*
X6439631Y69322427D01*
X6430712Y69319453D01*
X6426664Y69315943D01*
X6421872Y69313546D01*
X6415709Y69306442D01*
X6408605Y69300279D01*
X6406209Y69295488D01*
X6402698Y69291439D01*
X6396704Y69278013D01*
X6126778Y68463676D01*
X5019029Y68463676D01*
X5018196Y68934902D01*
X5251440Y68934902D01*
X5262639Y68907866D01*
X5283331Y68887174D01*
X5310367Y68875975D01*
X5324999Y68874534D01*
X5949154Y68875975D01*
X5976190Y68887174D01*
X5996882Y68907866D01*
X6008081Y68934902D01*
X6008081Y68964166D01*
X5996882Y68991202D01*
X5976190Y69011894D01*
X5949154Y69023093D01*
X5934522Y69024534D01*
X5310367Y69023093D01*
X5283331Y69011894D01*
X5262639Y68991202D01*
X5251440Y68964166D01*
X5251440Y68934902D01*
X5018196Y68934902D01*
X5017605Y69268928D01*
X5006406Y69295964D01*
X4985714Y69316656D01*
X4958678Y69327855D01*
X4929414Y69327855D01*
X4902378Y69316656D01*
X4881686Y69295964D01*
X4870487Y69268928D01*
X4869046Y69254296D01*
X4636679Y69254296D01*
X4636653Y69268928D01*
X4625454Y69295964D01*
X4604762Y69316656D01*
X4577726Y69327855D01*
X4548462Y69327855D01*
X4521426Y69316656D01*
X4500734Y69295964D01*
X4489535Y69268928D01*
X4488094Y69254296D01*
X4489013Y68734235D01*
X4172037Y69286968D01*
X4168311Y69295964D01*
X4164952Y69299323D01*
X4162559Y69303496D01*
X4154669Y69309606D01*
X4147619Y69316656D01*
X4143202Y69318486D01*
X4139422Y69321413D01*
X4129798Y69324038D01*
X4120583Y69327855D01*
X4115802Y69327855D01*
X4111190Y69329113D01*
X4101293Y69327855D01*
X4091319Y69327855D01*
X4086903Y69326026D01*
X4082160Y69325423D01*
X4073495Y69320473D01*
X4064283Y69316656D01*
X4060904Y69313278D01*
X4056751Y69310904D01*
X4050641Y69303015D01*
X4043591Y69295964D01*
X4041761Y69291548D01*
X4038834Y69287767D01*
X4036209Y69278144D01*
X4032392Y69268928D01*
X4031655Y69261446D01*
X4031134Y69259535D01*
X4031321Y69258060D01*
X4030951Y69254296D01*
X3942062Y69254296D01*
X3942062Y69418185D01*
X8345442Y69418185D01*
X8345442Y68290407D01*
G37*
G36*
X19245182Y1335125D02*
G01*
X19245977Y969906D01*
X19227956Y960569D01*
X19110922Y959559D01*
X19061375Y983445D01*
X19039639Y1004286D01*
X19013953Y1053854D01*
X19012809Y1246974D01*
X19036786Y1296710D01*
X19057626Y1318446D01*
X19107280Y1344176D01*
X19224313Y1345186D01*
X19245182Y1335125D01*
G37*
G36*
X16683386Y1321299D02*
G01*
X16705120Y1300459D01*
X16730806Y1250890D01*
X16731950Y1057770D01*
X16707973Y1008034D01*
X16687133Y986297D01*
X16637479Y960569D01*
X16520445Y959559D01*
X16499140Y969830D01*
X16498495Y1334689D01*
X16516803Y1344176D01*
X16633836Y1345186D01*
X16683386Y1321299D01*
G37*
G36*
X17407196Y1321299D02*
G01*
X17428930Y1300459D01*
X17454616Y1250890D01*
X17455760Y1057770D01*
X17431783Y1008034D01*
X17410943Y986297D01*
X17361289Y960569D01*
X17244255Y959559D01*
X17222950Y969830D01*
X17222305Y1334689D01*
X17240613Y1344176D01*
X17357646Y1345186D01*
X17407196Y1321299D01*
G37*
G36*
X15987782Y1326066D02*
G01*
X16006595Y1289761D01*
X15774856Y1242551D01*
X15774665Y1284969D01*
X15793923Y1324917D01*
X15831089Y1344176D01*
X15948122Y1345186D01*
X15987782Y1326066D01*
G37*
G36*
X19483889Y455150D02*
G01*
X14318014Y455150D01*
X14318014Y1533324D01*
X14406903Y1533324D01*
X14407941Y1467863D01*
X14407492Y1466514D01*
X14408098Y1457979D01*
X14408344Y1442502D01*
X14409374Y1440014D01*
X14409566Y1437324D01*
X14414821Y1423593D01*
X14454155Y1347686D01*
X14457639Y1339275D01*
X14460011Y1336384D01*
X14460750Y1334959D01*
X14462245Y1333663D01*
X14466966Y1327910D01*
X14506817Y1289701D01*
X14512110Y1283598D01*
X14515231Y1281634D01*
X14516426Y1280488D01*
X14518253Y1279731D01*
X14524553Y1275766D01*
X14596950Y1240865D01*
X14602248Y1236939D01*
X14613237Y1233013D01*
X14614475Y1232416D01*
X14615014Y1232378D01*
X14616094Y1231992D01*
X14755705Y1198332D01*
X14816719Y1168918D01*
X14838453Y1148078D01*
X14864301Y1098197D01*
X14864953Y1057085D01*
X14841306Y1008034D01*
X14820466Y986297D01*
X14770862Y960594D01*
X14611756Y959477D01*
X14491283Y998211D01*
X14462093Y996136D01*
X14435920Y983050D01*
X14416746Y960942D01*
X14407492Y933180D01*
X14409567Y903990D01*
X14422653Y877817D01*
X14444761Y858643D01*
X14458186Y852649D01*
X14572532Y815885D01*
X14581557Y812146D01*
X14585308Y811777D01*
X14586809Y811294D01*
X14588783Y811435D01*
X14596189Y810705D01*
X14775276Y811964D01*
X14777284Y811294D01*
X14787956Y812053D01*
X14801297Y812146D01*
X14803786Y813178D01*
X14806474Y813368D01*
X14820206Y818623D01*
X14896119Y857959D01*
X14904524Y861440D01*
X14907411Y863810D01*
X14908840Y864550D01*
X14910140Y866050D01*
X14915890Y870768D01*
X14954100Y910622D01*
X14960201Y915912D01*
X14962165Y919034D01*
X14963312Y920229D01*
X14964069Y922059D01*
X14968033Y928355D01*
X15000323Y995336D01*
X15001406Y996418D01*
X15004829Y1004684D01*
X15011383Y1018277D01*
X15011573Y1020965D01*
X15012605Y1023454D01*
X15014046Y1038086D01*
X15013007Y1103548D01*
X15013457Y1104896D01*
X15012850Y1113431D01*
X15012605Y1128909D01*
X15011573Y1131399D01*
X15011383Y1134086D01*
X15006128Y1147818D01*
X14966792Y1223731D01*
X14963311Y1232135D01*
X14960941Y1235023D01*
X14960201Y1236451D01*
X14958702Y1237751D01*
X14953984Y1243500D01*
X14914128Y1281714D01*
X14908840Y1287811D01*
X14905720Y1289775D01*
X14904524Y1290922D01*
X14902693Y1291681D01*
X14896397Y1295644D01*
X14823997Y1330548D01*
X14818701Y1334472D01*
X14807715Y1338398D01*
X14806475Y1338995D01*
X14805934Y1339034D01*
X14804855Y1339419D01*
X14665247Y1373078D01*
X14604231Y1402493D01*
X14602235Y1404407D01*
X15094059Y1404407D01*
X15105258Y1377371D01*
X15125950Y1356679D01*
X15152986Y1345480D01*
X15167618Y1344039D01*
X15207606Y1344220D01*
X15208290Y1011765D01*
X15207493Y1009372D01*
X15208319Y997740D01*
X15208345Y985359D01*
X15209376Y982870D01*
X15209567Y980182D01*
X15214822Y966450D01*
X15252451Y893830D01*
X15254842Y886658D01*
X15258134Y882862D01*
X15260749Y877816D01*
X15267853Y871655D01*
X15274015Y864550D01*
X15281420Y859889D01*
X15282857Y858643D01*
X15284010Y858259D01*
X15286458Y856718D01*
X15353438Y824428D01*
X15354521Y823345D01*
X15362786Y819922D01*
X15376380Y813368D01*
X15379067Y813178D01*
X15381557Y812146D01*
X15396189Y810705D01*
X15487012Y812146D01*
X15514048Y823345D01*
X15534740Y844037D01*
X15545939Y871073D01*
X15545939Y900337D01*
X15534740Y927373D01*
X15514048Y948065D01*
X15487012Y959264D01*
X15472380Y960705D01*
X15415187Y959798D01*
X15376025Y978678D01*
X15356871Y1015642D01*
X15356590Y1152294D01*
X15625951Y1152294D01*
X15626654Y1148776D01*
X15627273Y1011573D01*
X15626540Y1009371D01*
X15627334Y998195D01*
X15627392Y985359D01*
X15628422Y982871D01*
X15628614Y980181D01*
X15633869Y966450D01*
X15671498Y893833D01*
X15673890Y886658D01*
X15677184Y882859D01*
X15679798Y877816D01*
X15686899Y871657D01*
X15693063Y864550D01*
X15700468Y859889D01*
X15701905Y858643D01*
X15703058Y858259D01*
X15705506Y856718D01*
X15772486Y824428D01*
X15773569Y823345D01*
X15781834Y819922D01*
X15795428Y813368D01*
X15798115Y813178D01*
X15800605Y812146D01*
X15815237Y810705D01*
X15956351Y811923D01*
X15958237Y811294D01*
X15968566Y812028D01*
X15982250Y812146D01*
X15984739Y813178D01*
X15987427Y813368D01*
X16001159Y818623D01*
X16089793Y864550D01*
X16108966Y886658D01*
X16118220Y914419D01*
X16116146Y943609D01*
X16103059Y969784D01*
X16080951Y988957D01*
X16053190Y998211D01*
X16024000Y996137D01*
X16010268Y990882D01*
X15951765Y960569D01*
X15834731Y959559D01*
X15795073Y978678D01*
X15775880Y1015716D01*
X15775540Y1091027D01*
X16089580Y1155003D01*
X16096536Y1155003D01*
X16103267Y1157792D01*
X16110678Y1159301D01*
X16116783Y1163390D01*
X16123572Y1166202D01*
X16128824Y1171455D01*
X16134992Y1175585D01*
X16139066Y1181697D01*
X16144264Y1186894D01*
X16147105Y1193755D01*
X16151225Y1199933D01*
X16152651Y1207142D01*
X16155463Y1213930D01*
X16156904Y1228562D01*
X16156902Y1228635D01*
X16156904Y1228640D01*
X16156902Y1228647D01*
X16155865Y1294024D01*
X16156315Y1295372D01*
X16155708Y1303907D01*
X16155463Y1319385D01*
X16154431Y1321875D01*
X16154241Y1324562D01*
X16148986Y1338294D01*
X16111356Y1410915D01*
X16108966Y1418085D01*
X16108139Y1419039D01*
X16349761Y1419039D01*
X16350646Y918589D01*
X16350350Y914419D01*
X16350655Y913504D01*
X16351202Y604407D01*
X16362401Y577371D01*
X16383093Y556679D01*
X16410129Y545480D01*
X16439393Y545480D01*
X16466429Y556679D01*
X16487121Y577371D01*
X16498320Y604407D01*
X16499761Y619039D01*
X16499421Y810856D01*
X16500951Y810705D01*
X16642065Y811923D01*
X16643951Y811294D01*
X16654280Y812028D01*
X16667964Y812146D01*
X16670453Y813178D01*
X16673141Y813368D01*
X16686873Y818623D01*
X16762786Y857959D01*
X16771191Y861440D01*
X16774078Y863810D01*
X16775507Y864550D01*
X16776807Y866050D01*
X16782557Y870768D01*
X16820767Y910622D01*
X16826868Y915912D01*
X16828832Y919034D01*
X16829979Y920229D01*
X16830736Y922059D01*
X16834700Y928355D01*
X16866990Y995336D01*
X16868073Y996418D01*
X16871496Y1004684D01*
X16878050Y1018277D01*
X16878240Y1020965D01*
X16879272Y1023454D01*
X16880713Y1038086D01*
X16879426Y1255186D01*
X16880124Y1257277D01*
X16879349Y1268175D01*
X16879272Y1281290D01*
X16878240Y1283780D01*
X16878050Y1286467D01*
X16872795Y1300199D01*
X16833459Y1376112D01*
X16829978Y1384516D01*
X16827608Y1387404D01*
X16826868Y1388832D01*
X16825369Y1390132D01*
X16820651Y1395881D01*
X16796498Y1419039D01*
X17073571Y1419039D01*
X17074456Y918589D01*
X17074160Y914419D01*
X17074465Y913504D01*
X17075012Y604407D01*
X17086211Y577371D01*
X17106903Y556679D01*
X17133939Y545480D01*
X17163203Y545480D01*
X17190239Y556679D01*
X17210931Y577371D01*
X17222130Y604407D01*
X17223571Y619039D01*
X17223231Y810856D01*
X17224761Y810705D01*
X17365875Y811923D01*
X17367761Y811294D01*
X17378090Y812028D01*
X17391774Y812146D01*
X17394263Y813178D01*
X17396951Y813368D01*
X17410683Y818623D01*
X17486596Y857959D01*
X17495001Y861440D01*
X17497888Y863810D01*
X17499317Y864550D01*
X17500617Y866050D01*
X17506367Y870768D01*
X17544577Y910622D01*
X17550678Y915912D01*
X17552642Y919034D01*
X17553789Y920229D01*
X17554546Y922059D01*
X17558510Y928355D01*
X17590800Y995336D01*
X17591883Y996418D01*
X17595306Y1004684D01*
X17601860Y1018277D01*
X17602050Y1020965D01*
X17603082Y1023454D01*
X17604523Y1038086D01*
X17603236Y1255186D01*
X17603934Y1257277D01*
X17603159Y1268175D01*
X17603082Y1281290D01*
X17602050Y1283780D01*
X17601860Y1286467D01*
X17596605Y1300199D01*
X17557269Y1376112D01*
X17553788Y1384516D01*
X17551418Y1387404D01*
X17550678Y1388832D01*
X17549179Y1390132D01*
X17544461Y1395881D01*
X17520308Y1419039D01*
X17797381Y1419039D01*
X17798822Y871073D01*
X17810021Y844037D01*
X17830713Y823345D01*
X17857749Y812146D01*
X17887013Y812146D01*
X17914049Y823345D01*
X17934741Y844037D01*
X17945940Y871073D01*
X17947381Y885705D01*
X17945978Y1419039D01*
X18178333Y1419039D01*
X18179774Y871073D01*
X18190973Y844037D01*
X18211665Y823345D01*
X18238701Y812146D01*
X18267965Y812146D01*
X18295001Y823345D01*
X18315693Y844037D01*
X18326892Y871073D01*
X18328333Y885705D01*
X18327213Y1311559D01*
X18333816Y1318446D01*
X18383549Y1344218D01*
X18462585Y1345101D01*
X18502068Y1326066D01*
X18521242Y1289064D01*
X18522631Y871073D01*
X18533830Y844037D01*
X18554522Y823345D01*
X18581558Y812146D01*
X18610822Y812146D01*
X18637858Y823345D01*
X18658550Y844037D01*
X18669749Y871073D01*
X18671190Y885705D01*
X18669924Y1266658D01*
X18864047Y1266658D01*
X18865333Y1049559D01*
X18864636Y1047466D01*
X18865410Y1036569D01*
X18865488Y1023454D01*
X18866518Y1020966D01*
X18866710Y1018276D01*
X18871965Y1004544D01*
X18911298Y928640D01*
X18914782Y920229D01*
X18917155Y917337D01*
X18917894Y915912D01*
X18919388Y914616D01*
X18924109Y908864D01*
X18963964Y870649D01*
X18969254Y864550D01*
X18972372Y862587D01*
X18973569Y861440D01*
X18975399Y860682D01*
X18981697Y856718D01*
X19048677Y824428D01*
X19049760Y823345D01*
X19058025Y819922D01*
X19071619Y813368D01*
X19074306Y813178D01*
X19076796Y812146D01*
X19091428Y810705D01*
X19232542Y811923D01*
X19234428Y811294D01*
X19244757Y812028D01*
X19246320Y812042D01*
X19246365Y791370D01*
X19222260Y741367D01*
X19201420Y719632D01*
X19151686Y693861D01*
X19072651Y692978D01*
X18996952Y729471D01*
X18967762Y731545D01*
X18940001Y722291D01*
X18917893Y703118D01*
X18904806Y676943D01*
X18902732Y647753D01*
X18911986Y619992D01*
X18931159Y597884D01*
X18943602Y590052D01*
X19010582Y557762D01*
X19011665Y556679D01*
X19019930Y553256D01*
X19033524Y546702D01*
X19036211Y546512D01*
X19038701Y545480D01*
X19053333Y544039D01*
X19156544Y545193D01*
X19158238Y544628D01*
X19167984Y545321D01*
X19182251Y545480D01*
X19184740Y546512D01*
X19187428Y546702D01*
X19201160Y551957D01*
X19277071Y591293D01*
X19285476Y594773D01*
X19288365Y597145D01*
X19289793Y597884D01*
X19291092Y599383D01*
X19296841Y604100D01*
X19335056Y643956D01*
X19341155Y649245D01*
X19343118Y652364D01*
X19344265Y653560D01*
X19345023Y655391D01*
X19348987Y661688D01*
X19381277Y728670D01*
X19382360Y729752D01*
X19385783Y738017D01*
X19392337Y751611D01*
X19392527Y754299D01*
X19393559Y756788D01*
X19395000Y771420D01*
X19393676Y1379990D01*
X19394411Y1390324D01*
X19393648Y1392612D01*
X19393559Y1433671D01*
X19382360Y1460707D01*
X19361668Y1481399D01*
X19334632Y1492598D01*
X19305368Y1492598D01*
X19281904Y1482879D01*
X19277216Y1484821D01*
X19263619Y1491376D01*
X19260929Y1491568D01*
X19258441Y1492598D01*
X19243809Y1494039D01*
X19102693Y1492822D01*
X19100808Y1493450D01*
X19090483Y1492717D01*
X19076796Y1492598D01*
X19074304Y1491566D01*
X19071618Y1491375D01*
X19057886Y1486120D01*
X18981981Y1446788D01*
X18973570Y1443303D01*
X18970678Y1440931D01*
X18969254Y1440192D01*
X18967957Y1438697D01*
X18962205Y1433976D01*
X18923991Y1394121D01*
X18917894Y1388832D01*
X18915930Y1385713D01*
X18914783Y1384516D01*
X18914024Y1382686D01*
X18910061Y1376389D01*
X18877769Y1309409D01*
X18876687Y1308326D01*
X18873264Y1300065D01*
X18866710Y1286468D01*
X18866518Y1283779D01*
X18865488Y1281290D01*
X18864047Y1266658D01*
X18669924Y1266658D01*
X18669836Y1293079D01*
X18670601Y1295372D01*
X18669790Y1306774D01*
X18669749Y1319385D01*
X18668717Y1321875D01*
X18668527Y1324562D01*
X18663272Y1338294D01*
X18625642Y1410915D01*
X18623252Y1418085D01*
X18619959Y1421882D01*
X18617345Y1426927D01*
X18610238Y1433091D01*
X18604079Y1440192D01*
X18596675Y1444853D01*
X18595237Y1446100D01*
X18594082Y1446485D01*
X18591636Y1448025D01*
X18524654Y1480317D01*
X18523572Y1481399D01*
X18515311Y1484821D01*
X18501714Y1491376D01*
X18499024Y1491568D01*
X18496536Y1492598D01*
X18481904Y1494039D01*
X18378691Y1492886D01*
X18376998Y1493450D01*
X18367256Y1492758D01*
X18352986Y1492598D01*
X18350494Y1491566D01*
X18347808Y1491375D01*
X18334076Y1486120D01*
X18305228Y1471172D01*
X18295001Y1481399D01*
X18267965Y1492598D01*
X18238701Y1492598D01*
X18211665Y1481399D01*
X18190973Y1460707D01*
X18179774Y1433671D01*
X18178333Y1419039D01*
X17945978Y1419039D01*
X17945940Y1433671D01*
X17934741Y1460707D01*
X17914049Y1481399D01*
X17887013Y1492598D01*
X17857749Y1492598D01*
X17830713Y1481399D01*
X17810021Y1460707D01*
X17798822Y1433671D01*
X17797381Y1419039D01*
X17520308Y1419039D01*
X17504605Y1434095D01*
X17499317Y1440192D01*
X17496197Y1442156D01*
X17495001Y1443303D01*
X17493170Y1444062D01*
X17486874Y1448025D01*
X17419892Y1480317D01*
X17418810Y1481399D01*
X17410549Y1484821D01*
X17396952Y1491376D01*
X17394262Y1491568D01*
X17391774Y1492598D01*
X17377142Y1494039D01*
X17236026Y1492822D01*
X17234141Y1493450D01*
X17223816Y1492717D01*
X17210129Y1492598D01*
X17207637Y1491566D01*
X17204951Y1491375D01*
X17191219Y1486120D01*
X17185720Y1483271D01*
X17163203Y1492598D01*
X17133939Y1492598D01*
X17106903Y1481399D01*
X17086211Y1460707D01*
X17075012Y1433671D01*
X17073571Y1419039D01*
X16796498Y1419039D01*
X16780795Y1434095D01*
X16775507Y1440192D01*
X16772387Y1442156D01*
X16771191Y1443303D01*
X16769360Y1444062D01*
X16763064Y1448025D01*
X16696082Y1480317D01*
X16695000Y1481399D01*
X16686739Y1484821D01*
X16673142Y1491376D01*
X16670452Y1491568D01*
X16667964Y1492598D01*
X16653332Y1494039D01*
X16512216Y1492822D01*
X16510331Y1493450D01*
X16500006Y1492717D01*
X16486319Y1492598D01*
X16483827Y1491566D01*
X16481141Y1491375D01*
X16467409Y1486120D01*
X16461910Y1483271D01*
X16439393Y1492598D01*
X16410129Y1492598D01*
X16383093Y1481399D01*
X16362401Y1460707D01*
X16351202Y1433671D01*
X16349761Y1419039D01*
X16108139Y1419039D01*
X16105673Y1421882D01*
X16103059Y1426927D01*
X16095952Y1433091D01*
X16089793Y1440192D01*
X16082389Y1444853D01*
X16080951Y1446100D01*
X16079796Y1446485D01*
X16077350Y1448025D01*
X16010368Y1480317D01*
X16009286Y1481399D01*
X16001025Y1484821D01*
X15987428Y1491376D01*
X15984738Y1491568D01*
X15982250Y1492598D01*
X15967618Y1494039D01*
X15826502Y1492822D01*
X15824617Y1493450D01*
X15814292Y1492717D01*
X15800605Y1492598D01*
X15798113Y1491566D01*
X15795427Y1491375D01*
X15781695Y1486120D01*
X15709079Y1448492D01*
X15701905Y1446100D01*
X15698106Y1442806D01*
X15693063Y1440192D01*
X15686901Y1433088D01*
X15679798Y1426927D01*
X15675137Y1419524D01*
X15673889Y1418084D01*
X15673503Y1416929D01*
X15671965Y1414484D01*
X15639673Y1347504D01*
X15638591Y1346421D01*
X15635168Y1338160D01*
X15628614Y1324563D01*
X15628422Y1321874D01*
X15627392Y1319385D01*
X15625951Y1304753D01*
X15626623Y1155694D01*
X15625951Y1152294D01*
X15356590Y1152294D01*
X15356194Y1344890D01*
X15487012Y1345480D01*
X15514048Y1356679D01*
X15534740Y1377371D01*
X15545939Y1404407D01*
X15545939Y1433671D01*
X15534740Y1460707D01*
X15514048Y1481399D01*
X15487012Y1492598D01*
X15472380Y1494039D01*
X15355888Y1493514D01*
X15355601Y1632978D01*
X17760726Y1632978D01*
X17765875Y1620548D01*
X17771924Y1605943D01*
X17771925Y1605942D01*
X17781253Y1594576D01*
X17830714Y1547154D01*
X17846551Y1540595D01*
X17857749Y1535956D01*
X17857750Y1535956D01*
X17887012Y1535956D01*
X17887013Y1535956D01*
X17914049Y1547155D01*
X17925414Y1556482D01*
X17972836Y1605942D01*
X17984035Y1632978D01*
X17984035Y1662241D01*
X17983908Y1662549D01*
X17972836Y1689278D01*
X17963509Y1700643D01*
X17914049Y1748065D01*
X17914047Y1748066D01*
X17887013Y1759264D01*
X17857749Y1759264D01*
X17854797Y1758041D01*
X17830714Y1748066D01*
X17819349Y1738739D01*
X17771925Y1689278D01*
X17771924Y1689277D01*
X17767285Y1678079D01*
X17760726Y1662242D01*
X17760726Y1662241D01*
X17760726Y1662240D01*
X17760726Y1632978D01*
X15355601Y1632978D01*
X15355463Y1700337D01*
X15344264Y1727373D01*
X15323572Y1748065D01*
X15296536Y1759264D01*
X15267272Y1759264D01*
X15240236Y1748065D01*
X15219544Y1727373D01*
X15208345Y1700337D01*
X15206904Y1685705D01*
X15207300Y1492844D01*
X15152986Y1492598D01*
X15125950Y1481399D01*
X15105258Y1460707D01*
X15094059Y1433671D01*
X15094059Y1404407D01*
X14602235Y1404407D01*
X14582496Y1423332D01*
X14556647Y1473215D01*
X14555995Y1514325D01*
X14579643Y1563379D01*
X14600483Y1585113D01*
X14650086Y1610817D01*
X14809193Y1611934D01*
X14929666Y1573199D01*
X14958856Y1575274D01*
X14985029Y1588360D01*
X15004203Y1610467D01*
X15013457Y1638230D01*
X15011382Y1667420D01*
X14998296Y1693593D01*
X14976189Y1712767D01*
X14962763Y1718761D01*
X14848418Y1755526D01*
X14839393Y1759264D01*
X14835641Y1759634D01*
X14834141Y1760116D01*
X14832166Y1759976D01*
X14824761Y1760705D01*
X14645672Y1759447D01*
X14643665Y1760116D01*
X14632992Y1759358D01*
X14619652Y1759264D01*
X14617162Y1758233D01*
X14614475Y1758042D01*
X14600743Y1752787D01*
X14524830Y1713452D01*
X14516426Y1709970D01*
X14513538Y1707601D01*
X14512110Y1706860D01*
X14510810Y1705362D01*
X14505061Y1700643D01*
X14466847Y1660788D01*
X14460750Y1655499D01*
X14458786Y1652380D01*
X14457639Y1651183D01*
X14456880Y1649353D01*
X14452917Y1643056D01*
X14420625Y1576075D01*
X14419543Y1574992D01*
X14416121Y1566732D01*
X14409566Y1553134D01*
X14409374Y1550445D01*
X14408344Y1547956D01*
X14406903Y1533324D01*
X14318014Y1533324D01*
X14318014Y1849594D01*
X19483889Y1849594D01*
X19483889Y455150D01*
G37*
G36*
X62402210Y7630626D02*
G01*
X59067790Y7630626D01*
X59067790Y7779883D01*
X60985251Y7779883D01*
X60996450Y7752847D01*
X61017142Y7732155D01*
X61044178Y7720956D01*
X61058810Y7719515D01*
X61682965Y7720956D01*
X61710001Y7732155D01*
X61730693Y7752847D01*
X61741892Y7779883D01*
X61741892Y7809147D01*
X61730693Y7836183D01*
X61710001Y7856875D01*
X61682965Y7868074D01*
X61668333Y7869515D01*
X61044178Y7868074D01*
X61017142Y7856875D01*
X60996450Y7836183D01*
X60985251Y7809147D01*
X60985251Y7779883D01*
X59067790Y7779883D01*
X59067790Y8656073D01*
X59156679Y8656073D01*
X59167878Y8629037D01*
X59188570Y8608345D01*
X59215606Y8597146D01*
X59230238Y8595705D01*
X59383940Y8596175D01*
X59385250Y7856073D01*
X59396449Y7829037D01*
X59417141Y7808345D01*
X59444177Y7797146D01*
X59473441Y7797146D01*
X59500477Y7808345D01*
X59521169Y7829037D01*
X59532368Y7856073D01*
X59533809Y7870705D01*
X59532524Y8596629D01*
X59702013Y8597146D01*
X59729049Y8608345D01*
X59749741Y8629037D01*
X59760940Y8656073D01*
X59760940Y8670705D01*
X59879048Y8670705D01*
X59880489Y7856073D01*
X59891688Y7829037D01*
X59912380Y7808345D01*
X59939416Y7797146D01*
X59968680Y7797146D01*
X59995716Y7808345D01*
X60016408Y7829037D01*
X60027607Y7856073D01*
X60029048Y7870705D01*
X60028438Y8215135D01*
X60235346Y8216194D01*
X60262382Y8227393D01*
X60283074Y8248085D01*
X60294273Y8275121D01*
X60294273Y8304385D01*
X60283074Y8331421D01*
X60262382Y8352113D01*
X60235346Y8363312D01*
X60220714Y8364753D01*
X60028175Y8363767D01*
X60027765Y8595974D01*
X60349632Y8597146D01*
X60376668Y8608345D01*
X60397360Y8629037D01*
X60408559Y8656073D01*
X60451917Y8656073D01*
X60463116Y8629037D01*
X60483808Y8608345D01*
X60510844Y8597146D01*
X60525476Y8595705D01*
X60679178Y8596175D01*
X60680488Y7856073D01*
X60691687Y7829037D01*
X60712379Y7808345D01*
X60739415Y7797146D01*
X60768679Y7797146D01*
X60795715Y7808345D01*
X60816407Y7829037D01*
X60827606Y7856073D01*
X60829047Y7870705D01*
X60827762Y8596629D01*
X60997251Y8597146D01*
X61024287Y8608345D01*
X61044979Y8629037D01*
X61056178Y8656073D01*
X61056178Y8670705D01*
X61783810Y8670705D01*
X61785251Y7856073D01*
X61796450Y7829037D01*
X61817142Y7808345D01*
X61844178Y7797146D01*
X61858810Y7795705D01*
X62254394Y7797146D01*
X62281430Y7808345D01*
X62302122Y7829037D01*
X62313321Y7856073D01*
X62313321Y7885337D01*
X62302122Y7912373D01*
X62281430Y7933065D01*
X62254394Y7944264D01*
X62239762Y7945705D01*
X61933679Y7944591D01*
X61932369Y8685337D01*
X61921170Y8712373D01*
X61900478Y8733065D01*
X61873442Y8744264D01*
X61844178Y8744264D01*
X61817142Y8733065D01*
X61796450Y8712373D01*
X61785251Y8685337D01*
X61783810Y8670705D01*
X61056178Y8670705D01*
X61056178Y8685337D01*
X61044979Y8712373D01*
X61024287Y8733065D01*
X60997251Y8744264D01*
X60982619Y8745705D01*
X60510844Y8744264D01*
X60483808Y8733065D01*
X60463116Y8712373D01*
X60451917Y8685337D01*
X60451917Y8656073D01*
X60408559Y8656073D01*
X60408559Y8685337D01*
X60397360Y8712373D01*
X60376668Y8733065D01*
X60349632Y8744264D01*
X60335000Y8745705D01*
X59939416Y8744264D01*
X59912380Y8733065D01*
X59891688Y8712373D01*
X59880489Y8685337D01*
X59879048Y8670705D01*
X59760940Y8670705D01*
X59760940Y8685337D01*
X59749741Y8712373D01*
X59729049Y8733065D01*
X59702013Y8744264D01*
X59687381Y8745705D01*
X59215606Y8744264D01*
X59188570Y8733065D01*
X59167878Y8712373D01*
X59156679Y8685337D01*
X59156679Y8656073D01*
X59067790Y8656073D01*
X59067790Y8834594D01*
X62402210Y8834594D01*
X62402210Y7630626D01*
G37*
X7069819Y63856667D02*
X7784104Y63856667D01*
X7784104Y63856667D02*
X7926961Y63809048D01*
X7926961Y63809048D02*
X8022200Y63713810D01*
X8022200Y63713810D02*
X8069819Y63570953D01*
X8069819Y63570953D02*
X8069819Y63475715D01*
X8069819Y64856667D02*
X8069819Y64285239D01*
X8069819Y64570953D02*
X7069819Y64570953D01*
X7069819Y64570953D02*
X7212676Y64475715D01*
X7212676Y64475715D02*
X7307914Y64380477D01*
X7307914Y64380477D02*
X7355533Y64285239D01*
X63814761Y14579943D02*
X63719523Y14627562D01*
X63719523Y14627562D02*
X63624285Y14722800D01*
X63624285Y14722800D02*
X63481428Y14865658D01*
X63481428Y14865658D02*
X63386190Y14913277D01*
X63386190Y14913277D02*
X63290952Y14913277D01*
X63338571Y14675181D02*
X63243333Y14722800D01*
X63243333Y14722800D02*
X63148095Y14818039D01*
X63148095Y14818039D02*
X63100476Y15008515D01*
X63100476Y15008515D02*
X63100476Y15341848D01*
X63100476Y15341848D02*
X63148095Y15532324D01*
X63148095Y15532324D02*
X63243333Y15627562D01*
X63243333Y15627562D02*
X63338571Y15675181D01*
X63338571Y15675181D02*
X63529047Y15675181D01*
X63529047Y15675181D02*
X63624285Y15627562D01*
X63624285Y15627562D02*
X63719523Y15532324D01*
X63719523Y15532324D02*
X63767142Y15341848D01*
X63767142Y15341848D02*
X63767142Y15008515D01*
X63767142Y15008515D02*
X63719523Y14818039D01*
X63719523Y14818039D02*
X63624285Y14722800D01*
X63624285Y14722800D02*
X63529047Y14675181D01*
X63529047Y14675181D02*
X63338571Y14675181D01*
X64148095Y15579943D02*
X64195714Y15627562D01*
X64195714Y15627562D02*
X64290952Y15675181D01*
X64290952Y15675181D02*
X64529047Y15675181D01*
X64529047Y15675181D02*
X64624285Y15627562D01*
X64624285Y15627562D02*
X64671904Y15579943D01*
X64671904Y15579943D02*
X64719523Y15484705D01*
X64719523Y15484705D02*
X64719523Y15389467D01*
X64719523Y15389467D02*
X64671904Y15246610D01*
X64671904Y15246610D02*
X64100476Y14675181D01*
X64100476Y14675181D02*
X64719523Y14675181D01*
X62750833Y61285181D02*
X62417500Y61761372D01*
X62179405Y61285181D02*
X62179405Y62285181D01*
X62179405Y62285181D02*
X62560357Y62285181D01*
X62560357Y62285181D02*
X62655595Y62237562D01*
X62655595Y62237562D02*
X62703214Y62189943D01*
X62703214Y62189943D02*
X62750833Y62094705D01*
X62750833Y62094705D02*
X62750833Y61951848D01*
X62750833Y61951848D02*
X62703214Y61856610D01*
X62703214Y61856610D02*
X62655595Y61808991D01*
X62655595Y61808991D02*
X62560357Y61761372D01*
X62560357Y61761372D02*
X62179405Y61761372D01*
X63322262Y61856610D02*
X63227024Y61904229D01*
X63227024Y61904229D02*
X63179405Y61951848D01*
X63179405Y61951848D02*
X63131786Y62047086D01*
X63131786Y62047086D02*
X63131786Y62094705D01*
X63131786Y62094705D02*
X63179405Y62189943D01*
X63179405Y62189943D02*
X63227024Y62237562D01*
X63227024Y62237562D02*
X63322262Y62285181D01*
X63322262Y62285181D02*
X63512738Y62285181D01*
X63512738Y62285181D02*
X63607976Y62237562D01*
X63607976Y62237562D02*
X63655595Y62189943D01*
X63655595Y62189943D02*
X63703214Y62094705D01*
X63703214Y62094705D02*
X63703214Y62047086D01*
X63703214Y62047086D02*
X63655595Y61951848D01*
X63655595Y61951848D02*
X63607976Y61904229D01*
X63607976Y61904229D02*
X63512738Y61856610D01*
X63512738Y61856610D02*
X63322262Y61856610D01*
X63322262Y61856610D02*
X63227024Y61808991D01*
X63227024Y61808991D02*
X63179405Y61761372D01*
X63179405Y61761372D02*
X63131786Y61666134D01*
X63131786Y61666134D02*
X63131786Y61475658D01*
X63131786Y61475658D02*
X63179405Y61380420D01*
X63179405Y61380420D02*
X63227024Y61332800D01*
X63227024Y61332800D02*
X63322262Y61285181D01*
X63322262Y61285181D02*
X63512738Y61285181D01*
X63512738Y61285181D02*
X63607976Y61332800D01*
X63607976Y61332800D02*
X63655595Y61380420D01*
X63655595Y61380420D02*
X63703214Y61475658D01*
X63703214Y61475658D02*
X63703214Y61666134D01*
X63703214Y61666134D02*
X63655595Y61761372D01*
X63655595Y61761372D02*
X63607976Y61808991D01*
X63607976Y61808991D02*
X63512738Y61856610D01*
X60459580Y63478334D02*
X60507200Y63430715D01*
X60507200Y63430715D02*
X60554819Y63287858D01*
X60554819Y63287858D02*
X60554819Y63192620D01*
X60554819Y63192620D02*
X60507200Y63049763D01*
X60507200Y63049763D02*
X60411961Y62954525D01*
X60411961Y62954525D02*
X60316723Y62906906D01*
X60316723Y62906906D02*
X60126247Y62859287D01*
X60126247Y62859287D02*
X59983390Y62859287D01*
X59983390Y62859287D02*
X59792914Y62906906D01*
X59792914Y62906906D02*
X59697676Y62954525D01*
X59697676Y62954525D02*
X59602438Y63049763D01*
X59602438Y63049763D02*
X59554819Y63192620D01*
X59554819Y63192620D02*
X59554819Y63287858D01*
X59554819Y63287858D02*
X59602438Y63430715D01*
X59602438Y63430715D02*
X59650057Y63478334D01*
X59554819Y64335477D02*
X59554819Y64145001D01*
X59554819Y64145001D02*
X59602438Y64049763D01*
X59602438Y64049763D02*
X59650057Y64002144D01*
X59650057Y64002144D02*
X59792914Y63906906D01*
X59792914Y63906906D02*
X59983390Y63859287D01*
X59983390Y63859287D02*
X60364342Y63859287D01*
X60364342Y63859287D02*
X60459580Y63906906D01*
X60459580Y63906906D02*
X60507200Y63954525D01*
X60507200Y63954525D02*
X60554819Y64049763D01*
X60554819Y64049763D02*
X60554819Y64240239D01*
X60554819Y64240239D02*
X60507200Y64335477D01*
X60507200Y64335477D02*
X60459580Y64383096D01*
X60459580Y64383096D02*
X60364342Y64430715D01*
X60364342Y64430715D02*
X60126247Y64430715D01*
X60126247Y64430715D02*
X60031009Y64383096D01*
X60031009Y64383096D02*
X59983390Y64335477D01*
X59983390Y64335477D02*
X59935771Y64240239D01*
X59935771Y64240239D02*
X59935771Y64049763D01*
X59935771Y64049763D02*
X59983390Y63954525D01*
X59983390Y63954525D02*
X60031009Y63906906D01*
X60031009Y63906906D02*
X60126247Y63859287D01*
X22027666Y56245181D02*
X22027666Y55530896D01*
X22027666Y55530896D02*
X21980047Y55388039D01*
X21980047Y55388039D02*
X21884809Y55292800D01*
X21884809Y55292800D02*
X21741952Y55245181D01*
X21741952Y55245181D02*
X21646714Y55245181D01*
X22456238Y56149943D02*
X22503857Y56197562D01*
X22503857Y56197562D02*
X22599095Y56245181D01*
X22599095Y56245181D02*
X22837190Y56245181D01*
X22837190Y56245181D02*
X22932428Y56197562D01*
X22932428Y56197562D02*
X22980047Y56149943D01*
X22980047Y56149943D02*
X23027666Y56054705D01*
X23027666Y56054705D02*
X23027666Y55959467D01*
X23027666Y55959467D02*
X22980047Y55816610D01*
X22980047Y55816610D02*
X22408619Y55245181D01*
X22408619Y55245181D02*
X23027666Y55245181D01*
X60554819Y54112143D02*
X60078628Y53778810D01*
X60554819Y53540715D02*
X59554819Y53540715D01*
X59554819Y53540715D02*
X59554819Y53921667D01*
X59554819Y53921667D02*
X59602438Y54016905D01*
X59602438Y54016905D02*
X59650057Y54064524D01*
X59650057Y54064524D02*
X59745295Y54112143D01*
X59745295Y54112143D02*
X59888152Y54112143D01*
X59888152Y54112143D02*
X59983390Y54064524D01*
X59983390Y54064524D02*
X60031009Y54016905D01*
X60031009Y54016905D02*
X60078628Y53921667D01*
X60078628Y53921667D02*
X60078628Y53540715D01*
X60554819Y55064524D02*
X60554819Y54493096D01*
X60554819Y54778810D02*
X59554819Y54778810D01*
X59554819Y54778810D02*
X59697676Y54683572D01*
X59697676Y54683572D02*
X59792914Y54588334D01*
X59792914Y54588334D02*
X59840533Y54493096D01*
X59554819Y55683572D02*
X59554819Y55778810D01*
X59554819Y55778810D02*
X59602438Y55874048D01*
X59602438Y55874048D02*
X59650057Y55921667D01*
X59650057Y55921667D02*
X59745295Y55969286D01*
X59745295Y55969286D02*
X59935771Y56016905D01*
X59935771Y56016905D02*
X60173866Y56016905D01*
X60173866Y56016905D02*
X60364342Y55969286D01*
X60364342Y55969286D02*
X60459580Y55921667D01*
X60459580Y55921667D02*
X60507200Y55874048D01*
X60507200Y55874048D02*
X60554819Y55778810D01*
X60554819Y55778810D02*
X60554819Y55683572D01*
X60554819Y55683572D02*
X60507200Y55588334D01*
X60507200Y55588334D02*
X60459580Y55540715D01*
X60459580Y55540715D02*
X60364342Y55493096D01*
X60364342Y55493096D02*
X60173866Y55445477D01*
X60173866Y55445477D02*
X59935771Y55445477D01*
X59935771Y55445477D02*
X59745295Y55493096D01*
X59745295Y55493096D02*
X59650057Y55540715D01*
X59650057Y55540715D02*
X59602438Y55588334D01*
X59602438Y55588334D02*
X59554819Y55683572D01*
X31344819Y2042143D02*
X30868628Y1708810D01*
X31344819Y1470715D02*
X30344819Y1470715D01*
X30344819Y1470715D02*
X30344819Y1851667D01*
X30344819Y1851667D02*
X30392438Y1946905D01*
X30392438Y1946905D02*
X30440057Y1994524D01*
X30440057Y1994524D02*
X30535295Y2042143D01*
X30535295Y2042143D02*
X30678152Y2042143D01*
X30678152Y2042143D02*
X30773390Y1994524D01*
X30773390Y1994524D02*
X30821009Y1946905D01*
X30821009Y1946905D02*
X30868628Y1851667D01*
X30868628Y1851667D02*
X30868628Y1470715D01*
X31344819Y2994524D02*
X31344819Y2423096D01*
X31344819Y2708810D02*
X30344819Y2708810D01*
X30344819Y2708810D02*
X30487676Y2613572D01*
X30487676Y2613572D02*
X30582914Y2518334D01*
X30582914Y2518334D02*
X30630533Y2423096D01*
X30440057Y3375477D02*
X30392438Y3423096D01*
X30392438Y3423096D02*
X30344819Y3518334D01*
X30344819Y3518334D02*
X30344819Y3756429D01*
X30344819Y3756429D02*
X30392438Y3851667D01*
X30392438Y3851667D02*
X30440057Y3899286D01*
X30440057Y3899286D02*
X30535295Y3946905D01*
X30535295Y3946905D02*
X30630533Y3946905D01*
X30630533Y3946905D02*
X30773390Y3899286D01*
X30773390Y3899286D02*
X31344819Y3327858D01*
X31344819Y3327858D02*
X31344819Y3946905D01*
X57379819Y59469643D02*
X56903628Y59136310D01*
X57379819Y58898215D02*
X56379819Y58898215D01*
X56379819Y58898215D02*
X56379819Y59279167D01*
X56379819Y59279167D02*
X56427438Y59374405D01*
X56427438Y59374405D02*
X56475057Y59422024D01*
X56475057Y59422024D02*
X56570295Y59469643D01*
X56570295Y59469643D02*
X56713152Y59469643D01*
X56713152Y59469643D02*
X56808390Y59422024D01*
X56808390Y59422024D02*
X56856009Y59374405D01*
X56856009Y59374405D02*
X56903628Y59279167D01*
X56903628Y59279167D02*
X56903628Y58898215D01*
X57379819Y60422024D02*
X57379819Y59850596D01*
X57379819Y60136310D02*
X56379819Y60136310D01*
X56379819Y60136310D02*
X56522676Y60041072D01*
X56522676Y60041072D02*
X56617914Y59945834D01*
X56617914Y59945834D02*
X56665533Y59850596D01*
X56379819Y61326786D02*
X56379819Y60850596D01*
X56379819Y60850596D02*
X56856009Y60802977D01*
X56856009Y60802977D02*
X56808390Y60850596D01*
X56808390Y60850596D02*
X56760771Y60945834D01*
X56760771Y60945834D02*
X56760771Y61183929D01*
X56760771Y61183929D02*
X56808390Y61279167D01*
X56808390Y61279167D02*
X56856009Y61326786D01*
X56856009Y61326786D02*
X56951247Y61374405D01*
X56951247Y61374405D02*
X57189342Y61374405D01*
X57189342Y61374405D02*
X57284580Y61326786D01*
X57284580Y61326786D02*
X57332200Y61279167D01*
X57332200Y61279167D02*
X57379819Y61183929D01*
X57379819Y61183929D02*
X57379819Y60945834D01*
X57379819Y60945834D02*
X57332200Y60850596D01*
X57332200Y60850596D02*
X57284580Y60802977D01*
X59020833Y50490181D02*
X58687500Y50966372D01*
X58449405Y50490181D02*
X58449405Y51490181D01*
X58449405Y51490181D02*
X58830357Y51490181D01*
X58830357Y51490181D02*
X58925595Y51442562D01*
X58925595Y51442562D02*
X58973214Y51394943D01*
X58973214Y51394943D02*
X59020833Y51299705D01*
X59020833Y51299705D02*
X59020833Y51156848D01*
X59020833Y51156848D02*
X58973214Y51061610D01*
X58973214Y51061610D02*
X58925595Y51013991D01*
X58925595Y51013991D02*
X58830357Y50966372D01*
X58830357Y50966372D02*
X58449405Y50966372D01*
X59877976Y51490181D02*
X59687500Y51490181D01*
X59687500Y51490181D02*
X59592262Y51442562D01*
X59592262Y51442562D02*
X59544643Y51394943D01*
X59544643Y51394943D02*
X59449405Y51252086D01*
X59449405Y51252086D02*
X59401786Y51061610D01*
X59401786Y51061610D02*
X59401786Y50680658D01*
X59401786Y50680658D02*
X59449405Y50585420D01*
X59449405Y50585420D02*
X59497024Y50537800D01*
X59497024Y50537800D02*
X59592262Y50490181D01*
X59592262Y50490181D02*
X59782738Y50490181D01*
X59782738Y50490181D02*
X59877976Y50537800D01*
X59877976Y50537800D02*
X59925595Y50585420D01*
X59925595Y50585420D02*
X59973214Y50680658D01*
X59973214Y50680658D02*
X59973214Y50918753D01*
X59973214Y50918753D02*
X59925595Y51013991D01*
X59925595Y51013991D02*
X59877976Y51061610D01*
X59877976Y51061610D02*
X59782738Y51109229D01*
X59782738Y51109229D02*
X59592262Y51109229D01*
X59592262Y51109229D02*
X59497024Y51061610D01*
X59497024Y51061610D02*
X59449405Y51013991D01*
X59449405Y51013991D02*
X59401786Y50918753D01*
X23089819Y8691906D02*
X22089819Y8691906D01*
X22089819Y8691906D02*
X22089819Y8930001D01*
X22089819Y8930001D02*
X22137438Y9072858D01*
X22137438Y9072858D02*
X22232676Y9168096D01*
X22232676Y9168096D02*
X22327914Y9215715D01*
X22327914Y9215715D02*
X22518390Y9263334D01*
X22518390Y9263334D02*
X22661247Y9263334D01*
X22661247Y9263334D02*
X22851723Y9215715D01*
X22851723Y9215715D02*
X22946961Y9168096D01*
X22946961Y9168096D02*
X23042200Y9072858D01*
X23042200Y9072858D02*
X23089819Y8930001D01*
X23089819Y8930001D02*
X23089819Y8691906D01*
X22089819Y9596668D02*
X22089819Y10215715D01*
X22089819Y10215715D02*
X22470771Y9882382D01*
X22470771Y9882382D02*
X22470771Y10025239D01*
X22470771Y10025239D02*
X22518390Y10120477D01*
X22518390Y10120477D02*
X22566009Y10168096D01*
X22566009Y10168096D02*
X22661247Y10215715D01*
X22661247Y10215715D02*
X22899342Y10215715D01*
X22899342Y10215715D02*
X22994580Y10168096D01*
X22994580Y10168096D02*
X23042200Y10120477D01*
X23042200Y10120477D02*
X23089819Y10025239D01*
X23089819Y10025239D02*
X23089819Y9739525D01*
X23089819Y9739525D02*
X23042200Y9644287D01*
X23042200Y9644287D02*
X22994580Y9596668D01*
X67539819Y19028334D02*
X67063628Y18695001D01*
X67539819Y18456906D02*
X66539819Y18456906D01*
X66539819Y18456906D02*
X66539819Y18837858D01*
X66539819Y18837858D02*
X66587438Y18933096D01*
X66587438Y18933096D02*
X66635057Y18980715D01*
X66635057Y18980715D02*
X66730295Y19028334D01*
X66730295Y19028334D02*
X66873152Y19028334D01*
X66873152Y19028334D02*
X66968390Y18980715D01*
X66968390Y18980715D02*
X67016009Y18933096D01*
X67016009Y18933096D02*
X67063628Y18837858D01*
X67063628Y18837858D02*
X67063628Y18456906D01*
X66635057Y19409287D02*
X66587438Y19456906D01*
X66587438Y19456906D02*
X66539819Y19552144D01*
X66539819Y19552144D02*
X66539819Y19790239D01*
X66539819Y19790239D02*
X66587438Y19885477D01*
X66587438Y19885477D02*
X66635057Y19933096D01*
X66635057Y19933096D02*
X66730295Y19980715D01*
X66730295Y19980715D02*
X66825533Y19980715D01*
X66825533Y19980715D02*
X66968390Y19933096D01*
X66968390Y19933096D02*
X67539819Y19361668D01*
X67539819Y19361668D02*
X67539819Y19980715D01*
X23738333Y39695181D02*
X23405000Y40171372D01*
X23166905Y39695181D02*
X23166905Y40695181D01*
X23166905Y40695181D02*
X23547857Y40695181D01*
X23547857Y40695181D02*
X23643095Y40647562D01*
X23643095Y40647562D02*
X23690714Y40599943D01*
X23690714Y40599943D02*
X23738333Y40504705D01*
X23738333Y40504705D02*
X23738333Y40361848D01*
X23738333Y40361848D02*
X23690714Y40266610D01*
X23690714Y40266610D02*
X23643095Y40218991D01*
X23643095Y40218991D02*
X23547857Y40171372D01*
X23547857Y40171372D02*
X23166905Y40171372D01*
X24643095Y40695181D02*
X24166905Y40695181D01*
X24166905Y40695181D02*
X24119286Y40218991D01*
X24119286Y40218991D02*
X24166905Y40266610D01*
X24166905Y40266610D02*
X24262143Y40314229D01*
X24262143Y40314229D02*
X24500238Y40314229D01*
X24500238Y40314229D02*
X24595476Y40266610D01*
X24595476Y40266610D02*
X24643095Y40218991D01*
X24643095Y40218991D02*
X24690714Y40123753D01*
X24690714Y40123753D02*
X24690714Y39885658D01*
X24690714Y39885658D02*
X24643095Y39790420D01*
X24643095Y39790420D02*
X24595476Y39742800D01*
X24595476Y39742800D02*
X24500238Y39695181D01*
X24500238Y39695181D02*
X24262143Y39695181D01*
X24262143Y39695181D02*
X24166905Y39742800D01*
X24166905Y39742800D02*
X24119286Y39790420D01*
X69349580Y26344524D02*
X69397200Y26296905D01*
X69397200Y26296905D02*
X69444819Y26154048D01*
X69444819Y26154048D02*
X69444819Y26058810D01*
X69444819Y26058810D02*
X69397200Y25915953D01*
X69397200Y25915953D02*
X69301961Y25820715D01*
X69301961Y25820715D02*
X69206723Y25773096D01*
X69206723Y25773096D02*
X69016247Y25725477D01*
X69016247Y25725477D02*
X68873390Y25725477D01*
X68873390Y25725477D02*
X68682914Y25773096D01*
X68682914Y25773096D02*
X68587676Y25820715D01*
X68587676Y25820715D02*
X68492438Y25915953D01*
X68492438Y25915953D02*
X68444819Y26058810D01*
X68444819Y26058810D02*
X68444819Y26154048D01*
X68444819Y26154048D02*
X68492438Y26296905D01*
X68492438Y26296905D02*
X68540057Y26344524D01*
X69444819Y26773096D02*
X68444819Y26773096D01*
X68444819Y26773096D02*
X69444819Y27344524D01*
X69444819Y27344524D02*
X68444819Y27344524D01*
X69444819Y28344524D02*
X69444819Y27773096D01*
X69444819Y28058810D02*
X68444819Y28058810D01*
X68444819Y28058810D02*
X68587676Y27963572D01*
X68587676Y27963572D02*
X68682914Y27868334D01*
X68682914Y27868334D02*
X68730533Y27773096D01*
X21031666Y1585181D02*
X21031666Y870896D01*
X21031666Y870896D02*
X20984047Y728039D01*
X20984047Y728039D02*
X20888809Y632800D01*
X20888809Y632800D02*
X20745952Y585181D01*
X20745952Y585181D02*
X20650714Y585181D01*
X21555476Y585181D02*
X21745952Y585181D01*
X21745952Y585181D02*
X21841190Y632800D01*
X21841190Y632800D02*
X21888809Y680420D01*
X21888809Y680420D02*
X21984047Y823277D01*
X21984047Y823277D02*
X22031666Y1013753D01*
X22031666Y1013753D02*
X22031666Y1394705D01*
X22031666Y1394705D02*
X21984047Y1489943D01*
X21984047Y1489943D02*
X21936428Y1537562D01*
X21936428Y1537562D02*
X21841190Y1585181D01*
X21841190Y1585181D02*
X21650714Y1585181D01*
X21650714Y1585181D02*
X21555476Y1537562D01*
X21555476Y1537562D02*
X21507857Y1489943D01*
X21507857Y1489943D02*
X21460238Y1394705D01*
X21460238Y1394705D02*
X21460238Y1156610D01*
X21460238Y1156610D02*
X21507857Y1061372D01*
X21507857Y1061372D02*
X21555476Y1013753D01*
X21555476Y1013753D02*
X21650714Y966134D01*
X21650714Y966134D02*
X21841190Y966134D01*
X21841190Y966134D02*
X21936428Y1013753D01*
X21936428Y1013753D02*
X21984047Y1061372D01*
X21984047Y1061372D02*
X22031666Y1156610D01*
X64441905Y13025181D02*
X64441905Y14025181D01*
X64441905Y14025181D02*
X64680000Y14025181D01*
X64680000Y14025181D02*
X64822857Y13977562D01*
X64822857Y13977562D02*
X64918095Y13882324D01*
X64918095Y13882324D02*
X64965714Y13787086D01*
X64965714Y13787086D02*
X65013333Y13596610D01*
X65013333Y13596610D02*
X65013333Y13453753D01*
X65013333Y13453753D02*
X64965714Y13263277D01*
X64965714Y13263277D02*
X64918095Y13168039D01*
X64918095Y13168039D02*
X64822857Y13072800D01*
X64822857Y13072800D02*
X64680000Y13025181D01*
X64680000Y13025181D02*
X64441905Y13025181D01*
X65965714Y13025181D02*
X65394286Y13025181D01*
X65680000Y13025181D02*
X65680000Y14025181D01*
X65680000Y14025181D02*
X65584762Y13882324D01*
X65584762Y13882324D02*
X65489524Y13787086D01*
X65489524Y13787086D02*
X65394286Y13739467D01*
X1134819Y11241667D02*
X1849104Y11241667D01*
X1849104Y11241667D02*
X1991961Y11194048D01*
X1991961Y11194048D02*
X2087200Y11098810D01*
X2087200Y11098810D02*
X2134819Y10955953D01*
X2134819Y10955953D02*
X2134819Y10860715D01*
X1134819Y12194048D02*
X1134819Y11717858D01*
X1134819Y11717858D02*
X1611009Y11670239D01*
X1611009Y11670239D02*
X1563390Y11717858D01*
X1563390Y11717858D02*
X1515771Y11813096D01*
X1515771Y11813096D02*
X1515771Y12051191D01*
X1515771Y12051191D02*
X1563390Y12146429D01*
X1563390Y12146429D02*
X1611009Y12194048D01*
X1611009Y12194048D02*
X1706247Y12241667D01*
X1706247Y12241667D02*
X1944342Y12241667D01*
X1944342Y12241667D02*
X2039580Y12194048D01*
X2039580Y12194048D02*
X2087200Y12146429D01*
X2087200Y12146429D02*
X2134819Y12051191D01*
X2134819Y12051191D02*
X2134819Y11813096D01*
X2134819Y11813096D02*
X2087200Y11717858D01*
X2087200Y11717858D02*
X2039580Y11670239D01*
X40655833Y60110420D02*
X40608214Y60062800D01*
X40608214Y60062800D02*
X40465357Y60015181D01*
X40465357Y60015181D02*
X40370119Y60015181D01*
X40370119Y60015181D02*
X40227262Y60062800D01*
X40227262Y60062800D02*
X40132024Y60158039D01*
X40132024Y60158039D02*
X40084405Y60253277D01*
X40084405Y60253277D02*
X40036786Y60443753D01*
X40036786Y60443753D02*
X40036786Y60586610D01*
X40036786Y60586610D02*
X40084405Y60777086D01*
X40084405Y60777086D02*
X40132024Y60872324D01*
X40132024Y60872324D02*
X40227262Y60967562D01*
X40227262Y60967562D02*
X40370119Y61015181D01*
X40370119Y61015181D02*
X40465357Y61015181D01*
X40465357Y61015181D02*
X40608214Y60967562D01*
X40608214Y60967562D02*
X40655833Y60919943D01*
X41036786Y60919943D02*
X41084405Y60967562D01*
X41084405Y60967562D02*
X41179643Y61015181D01*
X41179643Y61015181D02*
X41417738Y61015181D01*
X41417738Y61015181D02*
X41512976Y60967562D01*
X41512976Y60967562D02*
X41560595Y60919943D01*
X41560595Y60919943D02*
X41608214Y60824705D01*
X41608214Y60824705D02*
X41608214Y60729467D01*
X41608214Y60729467D02*
X41560595Y60586610D01*
X41560595Y60586610D02*
X40989167Y60015181D01*
X40989167Y60015181D02*
X41608214Y60015181D01*
X66269819Y19028334D02*
X65793628Y18695001D01*
X66269819Y18456906D02*
X65269819Y18456906D01*
X65269819Y18456906D02*
X65269819Y18837858D01*
X65269819Y18837858D02*
X65317438Y18933096D01*
X65317438Y18933096D02*
X65365057Y18980715D01*
X65365057Y18980715D02*
X65460295Y19028334D01*
X65460295Y19028334D02*
X65603152Y19028334D01*
X65603152Y19028334D02*
X65698390Y18980715D01*
X65698390Y18980715D02*
X65746009Y18933096D01*
X65746009Y18933096D02*
X65793628Y18837858D01*
X65793628Y18837858D02*
X65793628Y18456906D01*
X66269819Y19980715D02*
X66269819Y19409287D01*
X66269819Y19695001D02*
X65269819Y19695001D01*
X65269819Y19695001D02*
X65412676Y19599763D01*
X65412676Y19599763D02*
X65507914Y19504525D01*
X65507914Y19504525D02*
X65555533Y19409287D01*
X30614580Y52275834D02*
X30662200Y52228215D01*
X30662200Y52228215D02*
X30709819Y52085358D01*
X30709819Y52085358D02*
X30709819Y51990120D01*
X30709819Y51990120D02*
X30662200Y51847263D01*
X30662200Y51847263D02*
X30566961Y51752025D01*
X30566961Y51752025D02*
X30471723Y51704406D01*
X30471723Y51704406D02*
X30281247Y51656787D01*
X30281247Y51656787D02*
X30138390Y51656787D01*
X30138390Y51656787D02*
X29947914Y51704406D01*
X29947914Y51704406D02*
X29852676Y51752025D01*
X29852676Y51752025D02*
X29757438Y51847263D01*
X29757438Y51847263D02*
X29709819Y51990120D01*
X29709819Y51990120D02*
X29709819Y52085358D01*
X29709819Y52085358D02*
X29757438Y52228215D01*
X29757438Y52228215D02*
X29805057Y52275834D01*
X30043152Y53132977D02*
X30709819Y53132977D01*
X29662200Y52894882D02*
X30376485Y52656787D01*
X30376485Y52656787D02*
X30376485Y53275834D01*
X33884819Y2042143D02*
X33408628Y1708810D01*
X33884819Y1470715D02*
X32884819Y1470715D01*
X32884819Y1470715D02*
X32884819Y1851667D01*
X32884819Y1851667D02*
X32932438Y1946905D01*
X32932438Y1946905D02*
X32980057Y1994524D01*
X32980057Y1994524D02*
X33075295Y2042143D01*
X33075295Y2042143D02*
X33218152Y2042143D01*
X33218152Y2042143D02*
X33313390Y1994524D01*
X33313390Y1994524D02*
X33361009Y1946905D01*
X33361009Y1946905D02*
X33408628Y1851667D01*
X33408628Y1851667D02*
X33408628Y1470715D01*
X33884819Y2994524D02*
X33884819Y2423096D01*
X33884819Y2708810D02*
X32884819Y2708810D01*
X32884819Y2708810D02*
X33027676Y2613572D01*
X33027676Y2613572D02*
X33122914Y2518334D01*
X33122914Y2518334D02*
X33170533Y2423096D01*
X33884819Y3946905D02*
X33884819Y3375477D01*
X33884819Y3661191D02*
X32884819Y3661191D01*
X32884819Y3661191D02*
X33027676Y3565953D01*
X33027676Y3565953D02*
X33122914Y3470715D01*
X33122914Y3470715D02*
X33170533Y3375477D01*
X16345833Y9310420D02*
X16298214Y9262800D01*
X16298214Y9262800D02*
X16155357Y9215181D01*
X16155357Y9215181D02*
X16060119Y9215181D01*
X16060119Y9215181D02*
X15917262Y9262800D01*
X15917262Y9262800D02*
X15822024Y9358039D01*
X15822024Y9358039D02*
X15774405Y9453277D01*
X15774405Y9453277D02*
X15726786Y9643753D01*
X15726786Y9643753D02*
X15726786Y9786610D01*
X15726786Y9786610D02*
X15774405Y9977086D01*
X15774405Y9977086D02*
X15822024Y10072324D01*
X15822024Y10072324D02*
X15917262Y10167562D01*
X15917262Y10167562D02*
X16060119Y10215181D01*
X16060119Y10215181D02*
X16155357Y10215181D01*
X16155357Y10215181D02*
X16298214Y10167562D01*
X16298214Y10167562D02*
X16345833Y10119943D01*
X16679167Y10215181D02*
X17345833Y10215181D01*
X17345833Y10215181D02*
X16917262Y9215181D01*
X24359819Y8691906D02*
X23359819Y8691906D01*
X23359819Y8691906D02*
X23359819Y8930001D01*
X23359819Y8930001D02*
X23407438Y9072858D01*
X23407438Y9072858D02*
X23502676Y9168096D01*
X23502676Y9168096D02*
X23597914Y9215715D01*
X23597914Y9215715D02*
X23788390Y9263334D01*
X23788390Y9263334D02*
X23931247Y9263334D01*
X23931247Y9263334D02*
X24121723Y9215715D01*
X24121723Y9215715D02*
X24216961Y9168096D01*
X24216961Y9168096D02*
X24312200Y9072858D01*
X24312200Y9072858D02*
X24359819Y8930001D01*
X24359819Y8930001D02*
X24359819Y8691906D01*
X23455057Y9644287D02*
X23407438Y9691906D01*
X23407438Y9691906D02*
X23359819Y9787144D01*
X23359819Y9787144D02*
X23359819Y10025239D01*
X23359819Y10025239D02*
X23407438Y10120477D01*
X23407438Y10120477D02*
X23455057Y10168096D01*
X23455057Y10168096D02*
X23550295Y10215715D01*
X23550295Y10215715D02*
X23645533Y10215715D01*
X23645533Y10215715D02*
X23788390Y10168096D01*
X23788390Y10168096D02*
X24359819Y9596668D01*
X24359819Y9596668D02*
X24359819Y10215715D01*
X62459819Y55223334D02*
X61983628Y54890001D01*
X62459819Y54651906D02*
X61459819Y54651906D01*
X61459819Y54651906D02*
X61459819Y55032858D01*
X61459819Y55032858D02*
X61507438Y55128096D01*
X61507438Y55128096D02*
X61555057Y55175715D01*
X61555057Y55175715D02*
X61650295Y55223334D01*
X61650295Y55223334D02*
X61793152Y55223334D01*
X61793152Y55223334D02*
X61888390Y55175715D01*
X61888390Y55175715D02*
X61936009Y55128096D01*
X61936009Y55128096D02*
X61983628Y55032858D01*
X61983628Y55032858D02*
X61983628Y54651906D01*
X62459819Y55699525D02*
X62459819Y55890001D01*
X62459819Y55890001D02*
X62412200Y55985239D01*
X62412200Y55985239D02*
X62364580Y56032858D01*
X62364580Y56032858D02*
X62221723Y56128096D01*
X62221723Y56128096D02*
X62031247Y56175715D01*
X62031247Y56175715D02*
X61650295Y56175715D01*
X61650295Y56175715D02*
X61555057Y56128096D01*
X61555057Y56128096D02*
X61507438Y56080477D01*
X61507438Y56080477D02*
X61459819Y55985239D01*
X61459819Y55985239D02*
X61459819Y55794763D01*
X61459819Y55794763D02*
X61507438Y55699525D01*
X61507438Y55699525D02*
X61555057Y55651906D01*
X61555057Y55651906D02*
X61650295Y55604287D01*
X61650295Y55604287D02*
X61888390Y55604287D01*
X61888390Y55604287D02*
X61983628Y55651906D01*
X61983628Y55651906D02*
X62031247Y55699525D01*
X62031247Y55699525D02*
X62078866Y55794763D01*
X62078866Y55794763D02*
X62078866Y55985239D01*
X62078866Y55985239D02*
X62031247Y56080477D01*
X62031247Y56080477D02*
X61983628Y56128096D01*
X61983628Y56128096D02*
X61888390Y56175715D01*
X4579580Y40390834D02*
X4627200Y40343215D01*
X4627200Y40343215D02*
X4674819Y40200358D01*
X4674819Y40200358D02*
X4674819Y40105120D01*
X4674819Y40105120D02*
X4627200Y39962263D01*
X4627200Y39962263D02*
X4531961Y39867025D01*
X4531961Y39867025D02*
X4436723Y39819406D01*
X4436723Y39819406D02*
X4246247Y39771787D01*
X4246247Y39771787D02*
X4103390Y39771787D01*
X4103390Y39771787D02*
X3912914Y39819406D01*
X3912914Y39819406D02*
X3817676Y39867025D01*
X3817676Y39867025D02*
X3722438Y39962263D01*
X3722438Y39962263D02*
X3674819Y40105120D01*
X3674819Y40105120D02*
X3674819Y40200358D01*
X3674819Y40200358D02*
X3722438Y40343215D01*
X3722438Y40343215D02*
X3770057Y40390834D01*
X3674819Y41295596D02*
X3674819Y40819406D01*
X3674819Y40819406D02*
X4151009Y40771787D01*
X4151009Y40771787D02*
X4103390Y40819406D01*
X4103390Y40819406D02*
X4055771Y40914644D01*
X4055771Y40914644D02*
X4055771Y41152739D01*
X4055771Y41152739D02*
X4103390Y41247977D01*
X4103390Y41247977D02*
X4151009Y41295596D01*
X4151009Y41295596D02*
X4246247Y41343215D01*
X4246247Y41343215D02*
X4484342Y41343215D01*
X4484342Y41343215D02*
X4579580Y41295596D01*
X4579580Y41295596D02*
X4627200Y41247977D01*
X4627200Y41247977D02*
X4674819Y41152739D01*
X4674819Y41152739D02*
X4674819Y40914644D01*
X4674819Y40914644D02*
X4627200Y40819406D01*
X4627200Y40819406D02*
X4579580Y40771787D01*
X45368095Y50220181D02*
X45368095Y49410658D01*
X45368095Y49410658D02*
X45415714Y49315420D01*
X45415714Y49315420D02*
X45463333Y49267800D01*
X45463333Y49267800D02*
X45558571Y49220181D01*
X45558571Y49220181D02*
X45749047Y49220181D01*
X45749047Y49220181D02*
X45844285Y49267800D01*
X45844285Y49267800D02*
X45891904Y49315420D01*
X45891904Y49315420D02*
X45939523Y49410658D01*
X45939523Y49410658D02*
X45939523Y50220181D01*
X46939523Y49220181D02*
X46368095Y49220181D01*
X46653809Y49220181D02*
X46653809Y50220181D01*
X46653809Y50220181D02*
X46558571Y50077324D01*
X46558571Y50077324D02*
X46463333Y49982086D01*
X46463333Y49982086D02*
X46368095Y49934467D01*
X29645095Y51490181D02*
X29645095Y50680658D01*
X29645095Y50680658D02*
X29692714Y50585420D01*
X29692714Y50585420D02*
X29740333Y50537800D01*
X29740333Y50537800D02*
X29835571Y50490181D01*
X29835571Y50490181D02*
X30026047Y50490181D01*
X30026047Y50490181D02*
X30121285Y50537800D01*
X30121285Y50537800D02*
X30168904Y50585420D01*
X30168904Y50585420D02*
X30216523Y50680658D01*
X30216523Y50680658D02*
X30216523Y51490181D01*
X30597476Y51490181D02*
X31216523Y51490181D01*
X31216523Y51490181D02*
X30883190Y51109229D01*
X30883190Y51109229D02*
X31026047Y51109229D01*
X31026047Y51109229D02*
X31121285Y51061610D01*
X31121285Y51061610D02*
X31168904Y51013991D01*
X31168904Y51013991D02*
X31216523Y50918753D01*
X31216523Y50918753D02*
X31216523Y50680658D01*
X31216523Y50680658D02*
X31168904Y50585420D01*
X31168904Y50585420D02*
X31121285Y50537800D01*
X31121285Y50537800D02*
X31026047Y50490181D01*
X31026047Y50490181D02*
X30740333Y50490181D01*
X30740333Y50490181D02*
X30645095Y50537800D01*
X30645095Y50537800D02*
X30597476Y50585420D01*
X32056905Y66365181D02*
X32056905Y67365181D01*
X32056905Y67365181D02*
X32295000Y67365181D01*
X32295000Y67365181D02*
X32437857Y67317562D01*
X32437857Y67317562D02*
X32533095Y67222324D01*
X32533095Y67222324D02*
X32580714Y67127086D01*
X32580714Y67127086D02*
X32628333Y66936610D01*
X32628333Y66936610D02*
X32628333Y66793753D01*
X32628333Y66793753D02*
X32580714Y66603277D01*
X32580714Y66603277D02*
X32533095Y66508039D01*
X32533095Y66508039D02*
X32437857Y66412800D01*
X32437857Y66412800D02*
X32295000Y66365181D01*
X32295000Y66365181D02*
X32056905Y66365181D01*
X32961667Y67365181D02*
X33628333Y67365181D01*
X33628333Y67365181D02*
X33199762Y66365181D01*
X40605833Y62555181D02*
X40272500Y63031372D01*
X40034405Y62555181D02*
X40034405Y63555181D01*
X40034405Y63555181D02*
X40415357Y63555181D01*
X40415357Y63555181D02*
X40510595Y63507562D01*
X40510595Y63507562D02*
X40558214Y63459943D01*
X40558214Y63459943D02*
X40605833Y63364705D01*
X40605833Y63364705D02*
X40605833Y63221848D01*
X40605833Y63221848D02*
X40558214Y63126610D01*
X40558214Y63126610D02*
X40510595Y63078991D01*
X40510595Y63078991D02*
X40415357Y63031372D01*
X40415357Y63031372D02*
X40034405Y63031372D01*
X40939167Y63555181D02*
X41558214Y63555181D01*
X41558214Y63555181D02*
X41224881Y63174229D01*
X41224881Y63174229D02*
X41367738Y63174229D01*
X41367738Y63174229D02*
X41462976Y63126610D01*
X41462976Y63126610D02*
X41510595Y63078991D01*
X41510595Y63078991D02*
X41558214Y62983753D01*
X41558214Y62983753D02*
X41558214Y62745658D01*
X41558214Y62745658D02*
X41510595Y62650420D01*
X41510595Y62650420D02*
X41462976Y62602800D01*
X41462976Y62602800D02*
X41367738Y62555181D01*
X41367738Y62555181D02*
X41082024Y62555181D01*
X41082024Y62555181D02*
X40986786Y62602800D01*
X40986786Y62602800D02*
X40939167Y62650420D01*
X59131666Y19740181D02*
X59131666Y19025896D01*
X59131666Y19025896D02*
X59084047Y18883039D01*
X59084047Y18883039D02*
X58988809Y18787800D01*
X58988809Y18787800D02*
X58845952Y18740181D01*
X58845952Y18740181D02*
X58750714Y18740181D01*
X60036428Y19406848D02*
X60036428Y18740181D01*
X59798333Y19787800D02*
X59560238Y19073515D01*
X59560238Y19073515D02*
X60179285Y19073515D01*
X34533333Y47410420D02*
X34485714Y47362800D01*
X34485714Y47362800D02*
X34342857Y47315181D01*
X34342857Y47315181D02*
X34247619Y47315181D01*
X34247619Y47315181D02*
X34104762Y47362800D01*
X34104762Y47362800D02*
X34009524Y47458039D01*
X34009524Y47458039D02*
X33961905Y47553277D01*
X33961905Y47553277D02*
X33914286Y47743753D01*
X33914286Y47743753D02*
X33914286Y47886610D01*
X33914286Y47886610D02*
X33961905Y48077086D01*
X33961905Y48077086D02*
X34009524Y48172324D01*
X34009524Y48172324D02*
X34104762Y48267562D01*
X34104762Y48267562D02*
X34247619Y48315181D01*
X34247619Y48315181D02*
X34342857Y48315181D01*
X34342857Y48315181D02*
X34485714Y48267562D01*
X34485714Y48267562D02*
X34533333Y48219943D01*
X34866667Y48315181D02*
X35485714Y48315181D01*
X35485714Y48315181D02*
X35152381Y47934229D01*
X35152381Y47934229D02*
X35295238Y47934229D01*
X35295238Y47934229D02*
X35390476Y47886610D01*
X35390476Y47886610D02*
X35438095Y47838991D01*
X35438095Y47838991D02*
X35485714Y47743753D01*
X35485714Y47743753D02*
X35485714Y47505658D01*
X35485714Y47505658D02*
X35438095Y47410420D01*
X35438095Y47410420D02*
X35390476Y47362800D01*
X35390476Y47362800D02*
X35295238Y47315181D01*
X35295238Y47315181D02*
X35009524Y47315181D01*
X35009524Y47315181D02*
X34914286Y47362800D01*
X34914286Y47362800D02*
X34866667Y47410420D01*
X59131666Y12755181D02*
X59131666Y12040896D01*
X59131666Y12040896D02*
X59084047Y11898039D01*
X59084047Y11898039D02*
X58988809Y11802800D01*
X58988809Y11802800D02*
X58845952Y11755181D01*
X58845952Y11755181D02*
X58750714Y11755181D01*
X59512619Y12755181D02*
X60131666Y12755181D01*
X60131666Y12755181D02*
X59798333Y12374229D01*
X59798333Y12374229D02*
X59941190Y12374229D01*
X59941190Y12374229D02*
X60036428Y12326610D01*
X60036428Y12326610D02*
X60084047Y12278991D01*
X60084047Y12278991D02*
X60131666Y12183753D01*
X60131666Y12183753D02*
X60131666Y11945658D01*
X60131666Y11945658D02*
X60084047Y11850420D01*
X60084047Y11850420D02*
X60036428Y11802800D01*
X60036428Y11802800D02*
X59941190Y11755181D01*
X59941190Y11755181D02*
X59655476Y11755181D01*
X59655476Y11755181D02*
X59560238Y11802800D01*
X59560238Y11802800D02*
X59512619Y11850420D01*
X26341905Y54935181D02*
X26341905Y55935181D01*
X26341905Y55935181D02*
X26580000Y55935181D01*
X26580000Y55935181D02*
X26722857Y55887562D01*
X26722857Y55887562D02*
X26818095Y55792324D01*
X26818095Y55792324D02*
X26865714Y55697086D01*
X26865714Y55697086D02*
X26913333Y55506610D01*
X26913333Y55506610D02*
X26913333Y55363753D01*
X26913333Y55363753D02*
X26865714Y55173277D01*
X26865714Y55173277D02*
X26818095Y55078039D01*
X26818095Y55078039D02*
X26722857Y54982800D01*
X26722857Y54982800D02*
X26580000Y54935181D01*
X26580000Y54935181D02*
X26341905Y54935181D01*
X27484762Y55506610D02*
X27389524Y55554229D01*
X27389524Y55554229D02*
X27341905Y55601848D01*
X27341905Y55601848D02*
X27294286Y55697086D01*
X27294286Y55697086D02*
X27294286Y55744705D01*
X27294286Y55744705D02*
X27341905Y55839943D01*
X27341905Y55839943D02*
X27389524Y55887562D01*
X27389524Y55887562D02*
X27484762Y55935181D01*
X27484762Y55935181D02*
X27675238Y55935181D01*
X27675238Y55935181D02*
X27770476Y55887562D01*
X27770476Y55887562D02*
X27818095Y55839943D01*
X27818095Y55839943D02*
X27865714Y55744705D01*
X27865714Y55744705D02*
X27865714Y55697086D01*
X27865714Y55697086D02*
X27818095Y55601848D01*
X27818095Y55601848D02*
X27770476Y55554229D01*
X27770476Y55554229D02*
X27675238Y55506610D01*
X27675238Y55506610D02*
X27484762Y55506610D01*
X27484762Y55506610D02*
X27389524Y55458991D01*
X27389524Y55458991D02*
X27341905Y55411372D01*
X27341905Y55411372D02*
X27294286Y55316134D01*
X27294286Y55316134D02*
X27294286Y55125658D01*
X27294286Y55125658D02*
X27341905Y55030420D01*
X27341905Y55030420D02*
X27389524Y54982800D01*
X27389524Y54982800D02*
X27484762Y54935181D01*
X27484762Y54935181D02*
X27675238Y54935181D01*
X27675238Y54935181D02*
X27770476Y54982800D01*
X27770476Y54982800D02*
X27818095Y55030420D01*
X27818095Y55030420D02*
X27865714Y55125658D01*
X27865714Y55125658D02*
X27865714Y55316134D01*
X27865714Y55316134D02*
X27818095Y55411372D01*
X27818095Y55411372D02*
X27770476Y55458991D01*
X27770476Y55458991D02*
X27675238Y55506610D01*
X61909761Y46584943D02*
X61814523Y46632562D01*
X61814523Y46632562D02*
X61719285Y46727800D01*
X61719285Y46727800D02*
X61576428Y46870658D01*
X61576428Y46870658D02*
X61481190Y46918277D01*
X61481190Y46918277D02*
X61385952Y46918277D01*
X61433571Y46680181D02*
X61338333Y46727800D01*
X61338333Y46727800D02*
X61243095Y46823039D01*
X61243095Y46823039D02*
X61195476Y47013515D01*
X61195476Y47013515D02*
X61195476Y47346848D01*
X61195476Y47346848D02*
X61243095Y47537324D01*
X61243095Y47537324D02*
X61338333Y47632562D01*
X61338333Y47632562D02*
X61433571Y47680181D01*
X61433571Y47680181D02*
X61624047Y47680181D01*
X61624047Y47680181D02*
X61719285Y47632562D01*
X61719285Y47632562D02*
X61814523Y47537324D01*
X61814523Y47537324D02*
X61862142Y47346848D01*
X61862142Y47346848D02*
X61862142Y47013515D01*
X61862142Y47013515D02*
X61814523Y46823039D01*
X61814523Y46823039D02*
X61719285Y46727800D01*
X61719285Y46727800D02*
X61624047Y46680181D01*
X61624047Y46680181D02*
X61433571Y46680181D01*
X62814523Y46680181D02*
X62243095Y46680181D01*
X62528809Y46680181D02*
X62528809Y47680181D01*
X62528809Y47680181D02*
X62433571Y47537324D01*
X62433571Y47537324D02*
X62338333Y47442086D01*
X62338333Y47442086D02*
X62243095Y47394467D01*
X27548333Y57570420D02*
X27500714Y57522800D01*
X27500714Y57522800D02*
X27357857Y57475181D01*
X27357857Y57475181D02*
X27262619Y57475181D01*
X27262619Y57475181D02*
X27119762Y57522800D01*
X27119762Y57522800D02*
X27024524Y57618039D01*
X27024524Y57618039D02*
X26976905Y57713277D01*
X26976905Y57713277D02*
X26929286Y57903753D01*
X26929286Y57903753D02*
X26929286Y58046610D01*
X26929286Y58046610D02*
X26976905Y58237086D01*
X26976905Y58237086D02*
X27024524Y58332324D01*
X27024524Y58332324D02*
X27119762Y58427562D01*
X27119762Y58427562D02*
X27262619Y58475181D01*
X27262619Y58475181D02*
X27357857Y58475181D01*
X27357857Y58475181D02*
X27500714Y58427562D01*
X27500714Y58427562D02*
X27548333Y58379943D01*
X28500714Y57475181D02*
X27929286Y57475181D01*
X28215000Y57475181D02*
X28215000Y58475181D01*
X28215000Y58475181D02*
X28119762Y58332324D01*
X28119762Y58332324D02*
X28024524Y58237086D01*
X28024524Y58237086D02*
X27929286Y58189467D01*
X40234819Y65177143D02*
X39758628Y64843810D01*
X40234819Y64605715D02*
X39234819Y64605715D01*
X39234819Y64605715D02*
X39234819Y64986667D01*
X39234819Y64986667D02*
X39282438Y65081905D01*
X39282438Y65081905D02*
X39330057Y65129524D01*
X39330057Y65129524D02*
X39425295Y65177143D01*
X39425295Y65177143D02*
X39568152Y65177143D01*
X39568152Y65177143D02*
X39663390Y65129524D01*
X39663390Y65129524D02*
X39711009Y65081905D01*
X39711009Y65081905D02*
X39758628Y64986667D01*
X39758628Y64986667D02*
X39758628Y64605715D01*
X40234819Y66129524D02*
X40234819Y65558096D01*
X40234819Y65843810D02*
X39234819Y65843810D01*
X39234819Y65843810D02*
X39377676Y65748572D01*
X39377676Y65748572D02*
X39472914Y65653334D01*
X39472914Y65653334D02*
X39520533Y65558096D01*
X39234819Y66462858D02*
X39234819Y67129524D01*
X39234819Y67129524D02*
X40234819Y66700953D01*
X1602666Y50378991D02*
X1269333Y50378991D01*
X1269333Y49855181D02*
X1269333Y50855181D01*
X1269333Y50855181D02*
X1745523Y50855181D01*
X2650285Y49855181D02*
X2078857Y49855181D01*
X2364571Y49855181D02*
X2364571Y50855181D01*
X2364571Y50855181D02*
X2269333Y50712324D01*
X2269333Y50712324D02*
X2174095Y50617086D01*
X2174095Y50617086D02*
X2078857Y50569467D01*
X35424819Y20973096D02*
X36234342Y20973096D01*
X36234342Y20973096D02*
X36329580Y21020715D01*
X36329580Y21020715D02*
X36377200Y21068334D01*
X36377200Y21068334D02*
X36424819Y21163572D01*
X36424819Y21163572D02*
X36424819Y21354048D01*
X36424819Y21354048D02*
X36377200Y21449286D01*
X36377200Y21449286D02*
X36329580Y21496905D01*
X36329580Y21496905D02*
X36234342Y21544524D01*
X36234342Y21544524D02*
X35424819Y21544524D01*
X35424819Y22496905D02*
X35424819Y22020715D01*
X35424819Y22020715D02*
X35901009Y21973096D01*
X35901009Y21973096D02*
X35853390Y22020715D01*
X35853390Y22020715D02*
X35805771Y22115953D01*
X35805771Y22115953D02*
X35805771Y22354048D01*
X35805771Y22354048D02*
X35853390Y22449286D01*
X35853390Y22449286D02*
X35901009Y22496905D01*
X35901009Y22496905D02*
X35996247Y22544524D01*
X35996247Y22544524D02*
X36234342Y22544524D01*
X36234342Y22544524D02*
X36329580Y22496905D01*
X36329580Y22496905D02*
X36377200Y22449286D01*
X36377200Y22449286D02*
X36424819Y22354048D01*
X36424819Y22354048D02*
X36424819Y22115953D01*
X36424819Y22115953D02*
X36377200Y22020715D01*
X36377200Y22020715D02*
X36329580Y21973096D01*
X20549819Y8691906D02*
X19549819Y8691906D01*
X19549819Y8691906D02*
X19549819Y8930001D01*
X19549819Y8930001D02*
X19597438Y9072858D01*
X19597438Y9072858D02*
X19692676Y9168096D01*
X19692676Y9168096D02*
X19787914Y9215715D01*
X19787914Y9215715D02*
X19978390Y9263334D01*
X19978390Y9263334D02*
X20121247Y9263334D01*
X20121247Y9263334D02*
X20311723Y9215715D01*
X20311723Y9215715D02*
X20406961Y9168096D01*
X20406961Y9168096D02*
X20502200Y9072858D01*
X20502200Y9072858D02*
X20549819Y8930001D01*
X20549819Y8930001D02*
X20549819Y8691906D01*
X19549819Y10120477D02*
X19549819Y9930001D01*
X19549819Y9930001D02*
X19597438Y9834763D01*
X19597438Y9834763D02*
X19645057Y9787144D01*
X19645057Y9787144D02*
X19787914Y9691906D01*
X19787914Y9691906D02*
X19978390Y9644287D01*
X19978390Y9644287D02*
X20359342Y9644287D01*
X20359342Y9644287D02*
X20454580Y9691906D01*
X20454580Y9691906D02*
X20502200Y9739525D01*
X20502200Y9739525D02*
X20549819Y9834763D01*
X20549819Y9834763D02*
X20549819Y10025239D01*
X20549819Y10025239D02*
X20502200Y10120477D01*
X20502200Y10120477D02*
X20454580Y10168096D01*
X20454580Y10168096D02*
X20359342Y10215715D01*
X20359342Y10215715D02*
X20121247Y10215715D01*
X20121247Y10215715D02*
X20026009Y10168096D01*
X20026009Y10168096D02*
X19978390Y10120477D01*
X19978390Y10120477D02*
X19930771Y10025239D01*
X19930771Y10025239D02*
X19930771Y9834763D01*
X19930771Y9834763D02*
X19978390Y9739525D01*
X19978390Y9739525D02*
X20026009Y9691906D01*
X20026009Y9691906D02*
X20121247Y9644287D01*
X69604819Y49785834D02*
X69128628Y49452501D01*
X69604819Y49214406D02*
X68604819Y49214406D01*
X68604819Y49214406D02*
X68604819Y49595358D01*
X68604819Y49595358D02*
X68652438Y49690596D01*
X68652438Y49690596D02*
X68700057Y49738215D01*
X68700057Y49738215D02*
X68795295Y49785834D01*
X68795295Y49785834D02*
X68938152Y49785834D01*
X68938152Y49785834D02*
X69033390Y49738215D01*
X69033390Y49738215D02*
X69081009Y49690596D01*
X69081009Y49690596D02*
X69128628Y49595358D01*
X69128628Y49595358D02*
X69128628Y49214406D01*
X68938152Y50642977D02*
X69604819Y50642977D01*
X68557200Y50404882D02*
X69271485Y50166787D01*
X69271485Y50166787D02*
X69271485Y50785834D01*
X57539819Y63146906D02*
X56539819Y63146906D01*
X56539819Y63146906D02*
X56539819Y63385001D01*
X56539819Y63385001D02*
X56587438Y63527858D01*
X56587438Y63527858D02*
X56682676Y63623096D01*
X56682676Y63623096D02*
X56777914Y63670715D01*
X56777914Y63670715D02*
X56968390Y63718334D01*
X56968390Y63718334D02*
X57111247Y63718334D01*
X57111247Y63718334D02*
X57301723Y63670715D01*
X57301723Y63670715D02*
X57396961Y63623096D01*
X57396961Y63623096D02*
X57492200Y63527858D01*
X57492200Y63527858D02*
X57539819Y63385001D01*
X57539819Y63385001D02*
X57539819Y63146906D01*
X56539819Y64623096D02*
X56539819Y64146906D01*
X56539819Y64146906D02*
X57016009Y64099287D01*
X57016009Y64099287D02*
X56968390Y64146906D01*
X56968390Y64146906D02*
X56920771Y64242144D01*
X56920771Y64242144D02*
X56920771Y64480239D01*
X56920771Y64480239D02*
X56968390Y64575477D01*
X56968390Y64575477D02*
X57016009Y64623096D01*
X57016009Y64623096D02*
X57111247Y64670715D01*
X57111247Y64670715D02*
X57349342Y64670715D01*
X57349342Y64670715D02*
X57444580Y64623096D01*
X57444580Y64623096D02*
X57492200Y64575477D01*
X57492200Y64575477D02*
X57539819Y64480239D01*
X57539819Y64480239D02*
X57539819Y64242144D01*
X57539819Y64242144D02*
X57492200Y64146906D01*
X57492200Y64146906D02*
X57444580Y64099287D01*
X63729819Y10495834D02*
X63253628Y10162501D01*
X63729819Y9924406D02*
X62729819Y9924406D01*
X62729819Y9924406D02*
X62729819Y10305358D01*
X62729819Y10305358D02*
X62777438Y10400596D01*
X62777438Y10400596D02*
X62825057Y10448215D01*
X62825057Y10448215D02*
X62920295Y10495834D01*
X62920295Y10495834D02*
X63063152Y10495834D01*
X63063152Y10495834D02*
X63158390Y10448215D01*
X63158390Y10448215D02*
X63206009Y10400596D01*
X63206009Y10400596D02*
X63253628Y10305358D01*
X63253628Y10305358D02*
X63253628Y9924406D01*
X62729819Y10829168D02*
X62729819Y11495834D01*
X62729819Y11495834D02*
X63729819Y11067263D01*
X53204819Y34238096D02*
X54014342Y34238096D01*
X54014342Y34238096D02*
X54109580Y34285715D01*
X54109580Y34285715D02*
X54157200Y34333334D01*
X54157200Y34333334D02*
X54204819Y34428572D01*
X54204819Y34428572D02*
X54204819Y34619048D01*
X54204819Y34619048D02*
X54157200Y34714286D01*
X54157200Y34714286D02*
X54109580Y34761905D01*
X54109580Y34761905D02*
X54014342Y34809524D01*
X54014342Y34809524D02*
X53204819Y34809524D01*
X53300057Y35238096D02*
X53252438Y35285715D01*
X53252438Y35285715D02*
X53204819Y35380953D01*
X53204819Y35380953D02*
X53204819Y35619048D01*
X53204819Y35619048D02*
X53252438Y35714286D01*
X53252438Y35714286D02*
X53300057Y35761905D01*
X53300057Y35761905D02*
X53395295Y35809524D01*
X53395295Y35809524D02*
X53490533Y35809524D01*
X53490533Y35809524D02*
X53633390Y35761905D01*
X53633390Y35761905D02*
X54204819Y35190477D01*
X54204819Y35190477D02*
X54204819Y35809524D01*
X69529580Y39044524D02*
X69577200Y38996905D01*
X69577200Y38996905D02*
X69624819Y38854048D01*
X69624819Y38854048D02*
X69624819Y38758810D01*
X69624819Y38758810D02*
X69577200Y38615953D01*
X69577200Y38615953D02*
X69481961Y38520715D01*
X69481961Y38520715D02*
X69386723Y38473096D01*
X69386723Y38473096D02*
X69196247Y38425477D01*
X69196247Y38425477D02*
X69053390Y38425477D01*
X69053390Y38425477D02*
X68862914Y38473096D01*
X68862914Y38473096D02*
X68767676Y38520715D01*
X68767676Y38520715D02*
X68672438Y38615953D01*
X68672438Y38615953D02*
X68624819Y38758810D01*
X68624819Y38758810D02*
X68624819Y38854048D01*
X68624819Y38854048D02*
X68672438Y38996905D01*
X68672438Y38996905D02*
X68720057Y39044524D01*
X69624819Y39473096D02*
X68624819Y39473096D01*
X68624819Y39473096D02*
X69624819Y40044524D01*
X69624819Y40044524D02*
X68624819Y40044524D01*
X68720057Y40473096D02*
X68672438Y40520715D01*
X68672438Y40520715D02*
X68624819Y40615953D01*
X68624819Y40615953D02*
X68624819Y40854048D01*
X68624819Y40854048D02*
X68672438Y40949286D01*
X68672438Y40949286D02*
X68720057Y40996905D01*
X68720057Y40996905D02*
X68815295Y41044524D01*
X68815295Y41044524D02*
X68910533Y41044524D01*
X68910533Y41044524D02*
X69053390Y40996905D01*
X69053390Y40996905D02*
X69624819Y40425477D01*
X69624819Y40425477D02*
X69624819Y41044524D01*
X41986666Y69270181D02*
X41986666Y68555896D01*
X41986666Y68555896D02*
X41939047Y68413039D01*
X41939047Y68413039D02*
X41843809Y68317800D01*
X41843809Y68317800D02*
X41700952Y68270181D01*
X41700952Y68270181D02*
X41605714Y68270181D01*
X42605714Y68841610D02*
X42510476Y68889229D01*
X42510476Y68889229D02*
X42462857Y68936848D01*
X42462857Y68936848D02*
X42415238Y69032086D01*
X42415238Y69032086D02*
X42415238Y69079705D01*
X42415238Y69079705D02*
X42462857Y69174943D01*
X42462857Y69174943D02*
X42510476Y69222562D01*
X42510476Y69222562D02*
X42605714Y69270181D01*
X42605714Y69270181D02*
X42796190Y69270181D01*
X42796190Y69270181D02*
X42891428Y69222562D01*
X42891428Y69222562D02*
X42939047Y69174943D01*
X42939047Y69174943D02*
X42986666Y69079705D01*
X42986666Y69079705D02*
X42986666Y69032086D01*
X42986666Y69032086D02*
X42939047Y68936848D01*
X42939047Y68936848D02*
X42891428Y68889229D01*
X42891428Y68889229D02*
X42796190Y68841610D01*
X42796190Y68841610D02*
X42605714Y68841610D01*
X42605714Y68841610D02*
X42510476Y68793991D01*
X42510476Y68793991D02*
X42462857Y68746372D01*
X42462857Y68746372D02*
X42415238Y68651134D01*
X42415238Y68651134D02*
X42415238Y68460658D01*
X42415238Y68460658D02*
X42462857Y68365420D01*
X42462857Y68365420D02*
X42510476Y68317800D01*
X42510476Y68317800D02*
X42605714Y68270181D01*
X42605714Y68270181D02*
X42796190Y68270181D01*
X42796190Y68270181D02*
X42891428Y68317800D01*
X42891428Y68317800D02*
X42939047Y68365420D01*
X42939047Y68365420D02*
X42986666Y68460658D01*
X42986666Y68460658D02*
X42986666Y68651134D01*
X42986666Y68651134D02*
X42939047Y68746372D01*
X42939047Y68746372D02*
X42891428Y68793991D01*
X42891428Y68793991D02*
X42796190Y68841610D01*
X34406666Y1960181D02*
X34406666Y1245896D01*
X34406666Y1245896D02*
X34359047Y1103039D01*
X34359047Y1103039D02*
X34263809Y1007800D01*
X34263809Y1007800D02*
X34120952Y960181D01*
X34120952Y960181D02*
X34025714Y960181D01*
X35311428Y1960181D02*
X35120952Y1960181D01*
X35120952Y1960181D02*
X35025714Y1912562D01*
X35025714Y1912562D02*
X34978095Y1864943D01*
X34978095Y1864943D02*
X34882857Y1722086D01*
X34882857Y1722086D02*
X34835238Y1531610D01*
X34835238Y1531610D02*
X34835238Y1150658D01*
X34835238Y1150658D02*
X34882857Y1055420D01*
X34882857Y1055420D02*
X34930476Y1007800D01*
X34930476Y1007800D02*
X35025714Y960181D01*
X35025714Y960181D02*
X35216190Y960181D01*
X35216190Y960181D02*
X35311428Y1007800D01*
X35311428Y1007800D02*
X35359047Y1055420D01*
X35359047Y1055420D02*
X35406666Y1150658D01*
X35406666Y1150658D02*
X35406666Y1388753D01*
X35406666Y1388753D02*
X35359047Y1483991D01*
X35359047Y1483991D02*
X35311428Y1531610D01*
X35311428Y1531610D02*
X35216190Y1579229D01*
X35216190Y1579229D02*
X35025714Y1579229D01*
X35025714Y1579229D02*
X34930476Y1531610D01*
X34930476Y1531610D02*
X34882857Y1483991D01*
X34882857Y1483991D02*
X34835238Y1388753D01*
X26264819Y2042143D02*
X25788628Y1708810D01*
X26264819Y1470715D02*
X25264819Y1470715D01*
X25264819Y1470715D02*
X25264819Y1851667D01*
X25264819Y1851667D02*
X25312438Y1946905D01*
X25312438Y1946905D02*
X25360057Y1994524D01*
X25360057Y1994524D02*
X25455295Y2042143D01*
X25455295Y2042143D02*
X25598152Y2042143D01*
X25598152Y2042143D02*
X25693390Y1994524D01*
X25693390Y1994524D02*
X25741009Y1946905D01*
X25741009Y1946905D02*
X25788628Y1851667D01*
X25788628Y1851667D02*
X25788628Y1470715D01*
X26264819Y2994524D02*
X26264819Y2423096D01*
X26264819Y2708810D02*
X25264819Y2708810D01*
X25264819Y2708810D02*
X25407676Y2613572D01*
X25407676Y2613572D02*
X25502914Y2518334D01*
X25502914Y2518334D02*
X25550533Y2423096D01*
X25264819Y3851667D02*
X25264819Y3661191D01*
X25264819Y3661191D02*
X25312438Y3565953D01*
X25312438Y3565953D02*
X25360057Y3518334D01*
X25360057Y3518334D02*
X25502914Y3423096D01*
X25502914Y3423096D02*
X25693390Y3375477D01*
X25693390Y3375477D02*
X26074342Y3375477D01*
X26074342Y3375477D02*
X26169580Y3423096D01*
X26169580Y3423096D02*
X26217200Y3470715D01*
X26217200Y3470715D02*
X26264819Y3565953D01*
X26264819Y3565953D02*
X26264819Y3756429D01*
X26264819Y3756429D02*
X26217200Y3851667D01*
X26217200Y3851667D02*
X26169580Y3899286D01*
X26169580Y3899286D02*
X26074342Y3946905D01*
X26074342Y3946905D02*
X25836247Y3946905D01*
X25836247Y3946905D02*
X25741009Y3899286D01*
X25741009Y3899286D02*
X25693390Y3851667D01*
X25693390Y3851667D02*
X25645771Y3756429D01*
X25645771Y3756429D02*
X25645771Y3565953D01*
X25645771Y3565953D02*
X25693390Y3470715D01*
X25693390Y3470715D02*
X25741009Y3423096D01*
X25741009Y3423096D02*
X25836247Y3375477D01*
X28804819Y2042143D02*
X28328628Y1708810D01*
X28804819Y1470715D02*
X27804819Y1470715D01*
X27804819Y1470715D02*
X27804819Y1851667D01*
X27804819Y1851667D02*
X27852438Y1946905D01*
X27852438Y1946905D02*
X27900057Y1994524D01*
X27900057Y1994524D02*
X27995295Y2042143D01*
X27995295Y2042143D02*
X28138152Y2042143D01*
X28138152Y2042143D02*
X28233390Y1994524D01*
X28233390Y1994524D02*
X28281009Y1946905D01*
X28281009Y1946905D02*
X28328628Y1851667D01*
X28328628Y1851667D02*
X28328628Y1470715D01*
X28804819Y2994524D02*
X28804819Y2423096D01*
X28804819Y2708810D02*
X27804819Y2708810D01*
X27804819Y2708810D02*
X27947676Y2613572D01*
X27947676Y2613572D02*
X28042914Y2518334D01*
X28042914Y2518334D02*
X28090533Y2423096D01*
X28138152Y3851667D02*
X28804819Y3851667D01*
X27757200Y3613572D02*
X28471485Y3375477D01*
X28471485Y3375477D02*
X28471485Y3994524D01*
X68571819Y55263096D02*
X69381342Y55263096D01*
X69381342Y55263096D02*
X69476580Y55310715D01*
X69476580Y55310715D02*
X69524200Y55358334D01*
X69524200Y55358334D02*
X69571819Y55453572D01*
X69571819Y55453572D02*
X69571819Y55644048D01*
X69571819Y55644048D02*
X69524200Y55739286D01*
X69524200Y55739286D02*
X69476580Y55786905D01*
X69476580Y55786905D02*
X69381342Y55834524D01*
X69381342Y55834524D02*
X68571819Y55834524D01*
X68905152Y56739286D02*
X69571819Y56739286D01*
X68524200Y56501191D02*
X69238485Y56263096D01*
X69238485Y56263096D02*
X69238485Y56882143D01*
X21819819Y8691906D02*
X20819819Y8691906D01*
X20819819Y8691906D02*
X20819819Y8930001D01*
X20819819Y8930001D02*
X20867438Y9072858D01*
X20867438Y9072858D02*
X20962676Y9168096D01*
X20962676Y9168096D02*
X21057914Y9215715D01*
X21057914Y9215715D02*
X21248390Y9263334D01*
X21248390Y9263334D02*
X21391247Y9263334D01*
X21391247Y9263334D02*
X21581723Y9215715D01*
X21581723Y9215715D02*
X21676961Y9168096D01*
X21676961Y9168096D02*
X21772200Y9072858D01*
X21772200Y9072858D02*
X21819819Y8930001D01*
X21819819Y8930001D02*
X21819819Y8691906D01*
X21153152Y10120477D02*
X21819819Y10120477D01*
X20772200Y9882382D02*
X21486485Y9644287D01*
X21486485Y9644287D02*
X21486485Y10263334D01*
D11*
%TO.C,J1*%
X8765000Y69540000D02*
X17965000Y69540000D01*
X8765000Y60740000D02*
X8765000Y69540000D01*
X8765000Y54840000D02*
X8765000Y56740000D01*
X11465000Y54840000D02*
X8765000Y54840000D01*
X17115000Y54640000D02*
X18165000Y54640000D01*
X17965000Y69540000D02*
X17965000Y54840000D01*
X17965000Y54840000D02*
X15365000Y54840000D01*
X18165000Y55690000D02*
X18165000Y54640000D01*
%TO.C,Q2*%
X65435000Y15980000D02*
X65435000Y14180000D01*
X65435000Y14180000D02*
X66485000Y14180000D01*
X68735000Y16040000D02*
X68735000Y14180000D01*
X68735000Y14180000D02*
X67685000Y14180000D01*
X69026676Y16250000D02*
X68696676Y16490000D01*
X69026676Y16730000D01*
X69026676Y16250000D01*
G36*
X69026676Y16250000D02*
G01*
X68696676Y16490000D01*
X69026676Y16730000D01*
X69026676Y16250000D01*
G37*
%TO.C,R8*%
X63172224Y60992500D02*
X62662776Y60992500D01*
X63172224Y59947500D02*
X62662776Y59947500D01*
%TO.C,C6*%
X59590000Y61251267D02*
X59590000Y60958733D01*
X60610000Y61251267D02*
X60610000Y60958733D01*
%TO.C,J2*%
X18551000Y68510000D02*
X18551000Y56790000D01*
X18551000Y56790000D02*
X19971000Y56790000D01*
X19971000Y61290000D02*
X22361000Y61290000D01*
X19971000Y56790000D02*
X19971000Y61290000D01*
X20861000Y67900000D02*
X20861000Y62400000D01*
X20861000Y62400000D02*
X21361000Y62400000D01*
X21361000Y67900000D02*
X20861000Y67900000D01*
X21361000Y62400000D02*
X21361000Y67900000D01*
X22361000Y68510000D02*
X18551000Y68510000D01*
X22361000Y68510000D02*
X26171000Y68510000D01*
X23311000Y57100000D02*
X23611000Y57700000D01*
X23361000Y67900000D02*
X23361000Y62400000D01*
X23361000Y62400000D02*
X23861000Y62400000D01*
X23611000Y57700000D02*
X23911000Y57100000D01*
X23861000Y67900000D02*
X23361000Y67900000D01*
X23861000Y62400000D02*
X23861000Y67900000D01*
X23911000Y57100000D02*
X23311000Y57100000D01*
X24751000Y61290000D02*
X22361000Y61290000D01*
X24751000Y56790000D02*
X24751000Y61290000D01*
X26171000Y68510000D02*
X26171000Y56790000D01*
X26171000Y56790000D02*
X24751000Y56790000D01*
%TO.C,R10*%
X59577500Y57992224D02*
X59577500Y57482776D01*
X60622500Y57992224D02*
X60622500Y57482776D01*
%TO.C,R12*%
X30367500Y5327776D02*
X30367500Y5837224D01*
X31412500Y5327776D02*
X31412500Y5837224D01*
%TO.C,R15*%
X55132500Y59857776D02*
X55132500Y60367224D01*
X56177500Y59857776D02*
X56177500Y60367224D01*
%TO.C,R6*%
X61472776Y51467500D02*
X61982224Y51467500D01*
X61472776Y50422500D02*
X61982224Y50422500D01*
%TO.C,D3*%
X30155000Y11090000D02*
X30155000Y8630000D01*
X31625000Y11090000D02*
X30155000Y11090000D01*
X31625000Y8630000D02*
X31625000Y11090000D01*
%TO.C,R2*%
X64022500Y18940276D02*
X64022500Y19449724D01*
X65067500Y18940276D02*
X65067500Y19449724D01*
%TO.C,R5*%
X26467776Y40672500D02*
X26977224Y40672500D01*
X26467776Y39627500D02*
X26977224Y39627500D01*
D12*
%TO.C,CN1*%
X59326500Y21895000D02*
X60845000Y21895000D01*
X59326500Y20925000D02*
X59326500Y21895000D01*
X59445000Y33065000D02*
X65205000Y33065000D01*
X59445000Y32185000D02*
X59445000Y33065000D01*
X60845000Y32185000D02*
X59445000Y32185000D01*
X60845000Y30766000D02*
X60845000Y32185000D01*
X60845000Y28766000D02*
X60845000Y29304000D01*
X60845000Y26766000D02*
X60845000Y27304000D01*
X60845000Y24766000D02*
X60845000Y25304000D01*
X60845000Y21895000D02*
X60845000Y23304000D01*
X65225000Y20925000D02*
X59325000Y20925000D01*
X67685000Y29525000D02*
X68705000Y29525000D01*
X67685000Y24535000D02*
X67685000Y29525000D01*
X68705000Y29525000D02*
X68705000Y31354000D01*
X68725000Y24535000D02*
X67685000Y24535000D01*
X68725000Y22625000D02*
X68725000Y24535000D01*
X59622000Y22925000D02*
G75*
G02*
X59368000Y22925000I-127000J0D01*
G01*
X59368000Y22925000D02*
G75*
G02*
X59622000Y22925000I127000J0D01*
G01*
D11*
%TO.C,J9*%
X9440000Y8100000D02*
X9440000Y2130000D01*
X9440000Y2130000D02*
X24560000Y2130000D01*
X9450000Y4390000D02*
X10200000Y4390000D01*
X9450000Y2890000D02*
X9450000Y2140000D01*
X9450000Y2140000D02*
X11250000Y2140000D01*
X10200000Y7340000D02*
X17000000Y7340000D01*
X10200000Y4390000D02*
X10200000Y7340000D01*
X11250000Y2890000D02*
X9450000Y2890000D01*
X11250000Y2140000D02*
X11250000Y2890000D01*
X12750000Y2890000D02*
X12750000Y2140000D01*
X12750000Y2140000D02*
X21250000Y2140000D01*
X21250000Y2890000D02*
X12750000Y2890000D01*
X21250000Y2140000D02*
X21250000Y2890000D01*
X22750000Y2890000D02*
X22750000Y2140000D01*
X22750000Y2140000D02*
X24550000Y2140000D01*
X23600000Y1840000D02*
X24850000Y1840000D01*
X23800000Y7340000D02*
X17000000Y7340000D01*
X23800000Y4390000D02*
X23800000Y7340000D01*
X24550000Y4390000D02*
X23800000Y4390000D01*
X24550000Y2890000D02*
X22750000Y2890000D01*
X24550000Y2140000D02*
X24550000Y2890000D01*
X24560000Y8100000D02*
X9440000Y8100000D01*
X24560000Y2130000D02*
X24560000Y8100000D01*
X24850000Y1840000D02*
X24850000Y3090000D01*
%TO.C,D1*%
X61600000Y12745000D02*
X64060000Y12745000D01*
X64060000Y14215000D02*
X61600000Y14215000D01*
X64060000Y12745000D02*
X64060000Y14215000D01*
%TO.C,J5*%
X1470000Y13785000D02*
X1470000Y12535000D01*
X1470000Y12535000D02*
X2720000Y12535000D01*
X1760000Y22945000D02*
X1760000Y12825000D01*
X1760000Y12825000D02*
X7730000Y12825000D01*
X1770000Y22935000D02*
X1770000Y21135000D01*
X1770000Y21135000D02*
X2520000Y21135000D01*
X1770000Y19635000D02*
X1770000Y16135000D01*
X1770000Y16135000D02*
X2520000Y16135000D01*
X1770000Y14635000D02*
X1770000Y12835000D01*
X1770000Y12835000D02*
X2520000Y12835000D01*
X2520000Y22935000D02*
X1770000Y22935000D01*
X2520000Y21135000D02*
X2520000Y22935000D01*
X2520000Y19635000D02*
X1770000Y19635000D01*
X2520000Y16135000D02*
X2520000Y19635000D01*
X2520000Y14635000D02*
X1770000Y14635000D01*
X2520000Y12835000D02*
X2520000Y14635000D01*
X4020000Y22935000D02*
X4020000Y22185000D01*
X4020000Y22185000D02*
X6970000Y22185000D01*
X4020000Y13585000D02*
X6970000Y13585000D01*
X4020000Y12835000D02*
X4020000Y13585000D01*
X6970000Y22185000D02*
X6970000Y17885000D01*
X6970000Y13585000D02*
X6970000Y17885000D01*
X7730000Y22945000D02*
X1760000Y22945000D01*
X7730000Y12825000D02*
X7730000Y22945000D01*
%TO.C,C2*%
X40968767Y59710000D02*
X40676233Y59710000D01*
X40968767Y58690000D02*
X40676233Y58690000D01*
%TO.C,R1*%
X62117500Y18940276D02*
X62117500Y19449724D01*
X63162500Y18940276D02*
X63162500Y19449724D01*
%TO.C,C4*%
X31396000Y52296233D02*
X31396000Y52588767D01*
X32416000Y52296233D02*
X32416000Y52588767D01*
%TO.C,R11*%
X32907500Y5327776D02*
X32907500Y5837224D01*
X33952500Y5327776D02*
X33952500Y5837224D01*
%TO.C,C7*%
X16658767Y11450000D02*
X16366233Y11450000D01*
X16658767Y10430000D02*
X16366233Y10430000D01*
%TO.C,D2*%
X32695000Y11090000D02*
X32695000Y8630000D01*
X34165000Y11090000D02*
X32695000Y11090000D01*
X34165000Y8630000D02*
X34165000Y11090000D01*
%TO.C,R9*%
X61482500Y57482776D02*
X61482500Y57992224D01*
X62527500Y57482776D02*
X62527500Y57992224D01*
%TO.C,C5*%
X4980000Y40411233D02*
X4980000Y40703767D01*
X6000000Y40411233D02*
X6000000Y40703767D01*
%TO.C,U1*%
X33335000Y48830000D02*
X33335000Y57450000D01*
X45056000Y57450000D02*
X33335000Y57450000D01*
X45056000Y48830000D02*
X33335000Y48830000D01*
X45056000Y48830000D02*
X45056000Y57450000D01*
X45296000Y57690000D02*
X44056000Y57690000D01*
X45296000Y56450000D02*
X45296000Y57690000D01*
%TO.C,U3*%
X29647000Y50300000D02*
X29647000Y49370000D01*
X29647000Y50300000D02*
X31107000Y50300000D01*
X29647000Y47140000D02*
X29647000Y48070000D01*
X30447000Y47140000D02*
X29647000Y47140000D01*
X30447000Y47140000D02*
X31247000Y47140000D01*
X31987000Y46780000D02*
X31507000Y46780000D01*
X31747000Y47110000D01*
X31987000Y46780000D01*
G36*
X31987000Y46780000D02*
G01*
X31507000Y46780000D01*
X31747000Y47110000D01*
X31987000Y46780000D01*
G37*
%TO.C,D7*%
X38310000Y67820000D02*
X34450000Y67820000D01*
X38310000Y65820000D02*
X34450000Y65820000D01*
X38310000Y65820000D02*
X38310000Y67820000D01*
%TO.C,R3*%
X40517776Y62262500D02*
X41027224Y62262500D01*
X40517776Y61217500D02*
X41027224Y61217500D01*
%TO.C,J4*%
X35700000Y20675000D02*
X35700000Y19425000D01*
X35990000Y20385000D02*
X35990000Y14415000D01*
X35990000Y14415000D02*
X58610000Y14415000D01*
X36000000Y20375000D02*
X36000000Y19625000D01*
X36000000Y19625000D02*
X37800000Y19625000D01*
X36000000Y18125000D02*
X36750000Y18125000D01*
X36750000Y18125000D02*
X36750000Y15175000D01*
X36750000Y15175000D02*
X47300000Y15175000D01*
X36950000Y20675000D02*
X35700000Y20675000D01*
X37800000Y20375000D02*
X36000000Y20375000D01*
X37800000Y19625000D02*
X37800000Y20375000D01*
X39300000Y20375000D02*
X39300000Y19625000D01*
X39300000Y19625000D02*
X55300000Y19625000D01*
X55300000Y20375000D02*
X39300000Y20375000D01*
X55300000Y19625000D02*
X55300000Y20375000D01*
X56800000Y20375000D02*
X56800000Y19625000D01*
X56800000Y19625000D02*
X58600000Y19625000D01*
X57850000Y18125000D02*
X57850000Y15175000D01*
X57850000Y15175000D02*
X47300000Y15175000D01*
X58600000Y20375000D02*
X56800000Y20375000D01*
X58600000Y19625000D02*
X58600000Y20375000D01*
X58600000Y18125000D02*
X57850000Y18125000D01*
X58610000Y20385000D02*
X35990000Y20385000D01*
X58610000Y14415000D02*
X58610000Y20385000D01*
%TO.C,C3*%
X37321233Y48280000D02*
X37613767Y48280000D01*
X37321233Y47260000D02*
X37613767Y47260000D01*
%TO.C,J3*%
X35700000Y13580000D02*
X35700000Y12330000D01*
X35990000Y13290000D02*
X35990000Y7320000D01*
X35990000Y7320000D02*
X58610000Y7320000D01*
X36000000Y13280000D02*
X36000000Y12530000D01*
X36000000Y12530000D02*
X37800000Y12530000D01*
X36000000Y11030000D02*
X36750000Y11030000D01*
X36750000Y11030000D02*
X36750000Y8080000D01*
X36750000Y8080000D02*
X47300000Y8080000D01*
X36950000Y13580000D02*
X35700000Y13580000D01*
X37800000Y13280000D02*
X36000000Y13280000D01*
X37800000Y12530000D02*
X37800000Y13280000D01*
X39300000Y13280000D02*
X39300000Y12530000D01*
X39300000Y12530000D02*
X55300000Y12530000D01*
X55300000Y13280000D02*
X39300000Y13280000D01*
X55300000Y12530000D02*
X55300000Y13280000D01*
X56800000Y13280000D02*
X56800000Y12530000D01*
X56800000Y12530000D02*
X58600000Y12530000D01*
X57850000Y11030000D02*
X57850000Y8080000D01*
X57850000Y8080000D02*
X47300000Y8080000D01*
X58600000Y13280000D02*
X56800000Y13280000D01*
X58600000Y12530000D02*
X58600000Y13280000D01*
X58600000Y11030000D02*
X57850000Y11030000D01*
X58610000Y13290000D02*
X35990000Y13290000D01*
X58610000Y7320000D02*
X58610000Y13290000D01*
%TO.C,D8*%
X32916000Y56390000D02*
X28906000Y56390000D01*
X32916000Y54390000D02*
X28906000Y54390000D01*
X32916000Y54390000D02*
X32916000Y56390000D01*
%TO.C,Q1*%
X63530000Y50245000D02*
X64580000Y50245000D01*
X63530000Y48385000D02*
X63530000Y50245000D01*
X66830000Y50245000D02*
X65780000Y50245000D01*
X66830000Y48445000D02*
X66830000Y50245000D01*
X63568324Y47935000D02*
X63238324Y47695000D01*
X63238324Y48175000D01*
X63568324Y47935000D01*
G36*
X63568324Y47935000D02*
G01*
X63238324Y47695000D01*
X63238324Y48175000D01*
X63568324Y47935000D01*
G37*
%TO.C,C1*%
X26960302Y64055000D02*
X27760302Y64055000D01*
X27360302Y64455000D02*
X27360302Y63655000D01*
X31370000Y65820000D02*
X31370000Y57660000D01*
X31410000Y65820000D02*
X31410000Y57660000D01*
X31450000Y65820000D02*
X31450000Y57660000D01*
X31490000Y65819000D02*
X31490000Y57661000D01*
X31530000Y65817000D02*
X31530000Y57663000D01*
X31570000Y65816000D02*
X31570000Y57664000D01*
X31610000Y65814000D02*
X31610000Y57666000D01*
X31650000Y65811000D02*
X31650000Y57669000D01*
X31690000Y65808000D02*
X31690000Y57672000D01*
X31730000Y65805000D02*
X31730000Y57675000D01*
X31770000Y65801000D02*
X31770000Y57679000D01*
X31810000Y65797000D02*
X31810000Y57683000D01*
X31850000Y65792000D02*
X31850000Y57688000D01*
X31890000Y65788000D02*
X31890000Y57692000D01*
X31930000Y65782000D02*
X31930000Y57698000D01*
X31970000Y65777000D02*
X31970000Y57703000D01*
X32010000Y65770000D02*
X32010000Y57710000D01*
X32050000Y65764000D02*
X32050000Y57716000D01*
X32091000Y65757000D02*
X32091000Y62780000D01*
X32091000Y60700000D02*
X32091000Y57723000D01*
X32131000Y65750000D02*
X32131000Y62780000D01*
X32131000Y60700000D02*
X32131000Y57730000D01*
X32171000Y65742000D02*
X32171000Y62780000D01*
X32171000Y60700000D02*
X32171000Y57738000D01*
X32211000Y65734000D02*
X32211000Y62780000D01*
X32211000Y60700000D02*
X32211000Y57746000D01*
X32251000Y65725000D02*
X32251000Y62780000D01*
X32251000Y60700000D02*
X32251000Y57755000D01*
X32291000Y65716000D02*
X32291000Y62780000D01*
X32291000Y60700000D02*
X32291000Y57764000D01*
X32331000Y65707000D02*
X32331000Y62780000D01*
X32331000Y60700000D02*
X32331000Y57773000D01*
X32371000Y65697000D02*
X32371000Y62780000D01*
X32371000Y60700000D02*
X32371000Y57783000D01*
X32411000Y65687000D02*
X32411000Y62780000D01*
X32411000Y60700000D02*
X32411000Y57793000D01*
X32451000Y65676000D02*
X32451000Y62780000D01*
X32451000Y60700000D02*
X32451000Y57804000D01*
X32491000Y65665000D02*
X32491000Y62780000D01*
X32491000Y60700000D02*
X32491000Y57815000D01*
X32531000Y65654000D02*
X32531000Y62780000D01*
X32531000Y60700000D02*
X32531000Y57826000D01*
X32571000Y65642000D02*
X32571000Y62780000D01*
X32571000Y60700000D02*
X32571000Y57838000D01*
X32611000Y65629000D02*
X32611000Y62780000D01*
X32611000Y60700000D02*
X32611000Y57851000D01*
X32651000Y65617000D02*
X32651000Y62780000D01*
X32651000Y60700000D02*
X32651000Y57863000D01*
X32691000Y65603000D02*
X32691000Y62780000D01*
X32691000Y60700000D02*
X32691000Y57877000D01*
X32731000Y65590000D02*
X32731000Y62780000D01*
X32731000Y60700000D02*
X32731000Y57890000D01*
X32771000Y65575000D02*
X32771000Y62780000D01*
X32771000Y60700000D02*
X32771000Y57905000D01*
X32811000Y65561000D02*
X32811000Y62780000D01*
X32811000Y60700000D02*
X32811000Y57919000D01*
X32851000Y65545000D02*
X32851000Y62780000D01*
X32851000Y60700000D02*
X32851000Y57935000D01*
X32891000Y65530000D02*
X32891000Y62780000D01*
X32891000Y60700000D02*
X32891000Y57950000D01*
X32931000Y65514000D02*
X32931000Y62780000D01*
X32931000Y60700000D02*
X32931000Y57966000D01*
X32971000Y65497000D02*
X32971000Y62780000D01*
X32971000Y60700000D02*
X32971000Y57983000D01*
X33011000Y65480000D02*
X33011000Y62780000D01*
X33011000Y60700000D02*
X33011000Y58000000D01*
X33051000Y65462000D02*
X33051000Y62780000D01*
X33051000Y60700000D02*
X33051000Y58018000D01*
X33091000Y65444000D02*
X33091000Y62780000D01*
X33091000Y60700000D02*
X33091000Y58036000D01*
X33131000Y65426000D02*
X33131000Y62780000D01*
X33131000Y60700000D02*
X33131000Y58054000D01*
X33171000Y65406000D02*
X33171000Y62780000D01*
X33171000Y60700000D02*
X33171000Y58074000D01*
X33211000Y65387000D02*
X33211000Y62780000D01*
X33211000Y60700000D02*
X33211000Y58093000D01*
X33251000Y65367000D02*
X33251000Y62780000D01*
X33251000Y60700000D02*
X33251000Y58113000D01*
X33291000Y65346000D02*
X33291000Y62780000D01*
X33291000Y60700000D02*
X33291000Y58134000D01*
X33331000Y65324000D02*
X33331000Y62780000D01*
X33331000Y60700000D02*
X33331000Y58156000D01*
X33371000Y65302000D02*
X33371000Y62780000D01*
X33371000Y60700000D02*
X33371000Y58178000D01*
X33411000Y65280000D02*
X33411000Y62780000D01*
X33411000Y60700000D02*
X33411000Y58200000D01*
X33451000Y65257000D02*
X33451000Y62780000D01*
X33451000Y60700000D02*
X33451000Y58223000D01*
X33491000Y65233000D02*
X33491000Y62780000D01*
X33491000Y60700000D02*
X33491000Y58247000D01*
X33531000Y65209000D02*
X33531000Y62780000D01*
X33531000Y60700000D02*
X33531000Y58271000D01*
X33571000Y65184000D02*
X33571000Y62780000D01*
X33571000Y60700000D02*
X33571000Y58296000D01*
X33611000Y65158000D02*
X33611000Y62780000D01*
X33611000Y60700000D02*
X33611000Y58322000D01*
X33651000Y65132000D02*
X33651000Y62780000D01*
X33651000Y60700000D02*
X33651000Y58348000D01*
X33691000Y65105000D02*
X33691000Y62780000D01*
X33691000Y60700000D02*
X33691000Y58375000D01*
X33731000Y65078000D02*
X33731000Y62780000D01*
X33731000Y60700000D02*
X33731000Y58402000D01*
X33771000Y65049000D02*
X33771000Y62780000D01*
X33771000Y60700000D02*
X33771000Y58431000D01*
X33811000Y65020000D02*
X33811000Y62780000D01*
X33811000Y60700000D02*
X33811000Y58460000D01*
X33851000Y64990000D02*
X33851000Y62780000D01*
X33851000Y60700000D02*
X33851000Y58490000D01*
X33891000Y64960000D02*
X33891000Y62780000D01*
X33891000Y60700000D02*
X33891000Y58520000D01*
X33931000Y64929000D02*
X33931000Y62780000D01*
X33931000Y60700000D02*
X33931000Y58551000D01*
X33971000Y64896000D02*
X33971000Y62780000D01*
X33971000Y60700000D02*
X33971000Y58584000D01*
X34011000Y64864000D02*
X34011000Y62780000D01*
X34011000Y60700000D02*
X34011000Y58616000D01*
X34051000Y64830000D02*
X34051000Y62780000D01*
X34051000Y60700000D02*
X34051000Y58650000D01*
X34091000Y64795000D02*
X34091000Y62780000D01*
X34091000Y60700000D02*
X34091000Y58685000D01*
X34131000Y64759000D02*
X34131000Y62780000D01*
X34131000Y60700000D02*
X34131000Y58721000D01*
X34171000Y64723000D02*
X34171000Y58757000D01*
X34211000Y64685000D02*
X34211000Y58795000D01*
X34251000Y64647000D02*
X34251000Y58833000D01*
X34291000Y64607000D02*
X34291000Y58873000D01*
X34331000Y64566000D02*
X34331000Y58914000D01*
X34371000Y64524000D02*
X34371000Y58956000D01*
X34411000Y64481000D02*
X34411000Y58999000D01*
X34451000Y64437000D02*
X34451000Y59043000D01*
X34491000Y64391000D02*
X34491000Y59089000D01*
X34531000Y64344000D02*
X34531000Y59136000D01*
X34571000Y64296000D02*
X34571000Y59184000D01*
X34611000Y64245000D02*
X34611000Y59235000D01*
X34651000Y64194000D02*
X34651000Y59286000D01*
X34691000Y64140000D02*
X34691000Y59340000D01*
X34731000Y64085000D02*
X34731000Y59395000D01*
X34771000Y64027000D02*
X34771000Y59453000D01*
X34811000Y63968000D02*
X34811000Y59512000D01*
X34851000Y63906000D02*
X34851000Y59574000D01*
X34891000Y63842000D02*
X34891000Y59638000D01*
X34931000Y63774000D02*
X34931000Y59706000D01*
X34971000Y63704000D02*
X34971000Y59776000D01*
X35011000Y63630000D02*
X35011000Y59850000D01*
X35051000Y63553000D02*
X35051000Y59927000D01*
X35091000Y63471000D02*
X35091000Y60009000D01*
X35131000Y63385000D02*
X35131000Y60095000D01*
X35171000Y63292000D02*
X35171000Y60188000D01*
X35211000Y63193000D02*
X35211000Y60287000D01*
X35251000Y63086000D02*
X35251000Y60394000D01*
X35291000Y62969000D02*
X35291000Y60511000D01*
X35331000Y62838000D02*
X35331000Y60642000D01*
X35371000Y62688000D02*
X35371000Y60792000D01*
X35411000Y62508000D02*
X35411000Y60972000D01*
X35451000Y62273000D02*
X35451000Y61207000D01*
X35490000Y61740000D02*
G75*
G02*
X27250000Y61740000I-4120000J0D01*
G01*
X27250000Y61740000D02*
G75*
G02*
X35490000Y61740000I4120000J0D01*
G01*
%TO.C,R17*%
X40950000Y66047064D02*
X40950000Y65592936D01*
X42420000Y66047064D02*
X42420000Y65592936D01*
%TO.C,F1*%
X3461000Y53360000D02*
X27461000Y53360000D01*
X3461000Y47260000D02*
X3461000Y53360000D01*
X27461000Y53360000D02*
X27461000Y47260000D01*
X27461000Y47260000D02*
X3461000Y47260000D01*
%TO.C,U5*%
X14260000Y22540000D02*
X14260000Y12040000D01*
X14260000Y12040000D02*
X34820000Y12040000D01*
X14320000Y19540000D02*
X14320000Y15040000D01*
X14320000Y15040000D02*
X34760000Y15040000D01*
X34760000Y19540000D02*
X14320000Y19540000D01*
X34760000Y18290000D02*
X34760000Y19540000D01*
X34760000Y15040000D02*
X34760000Y16290000D01*
X34820000Y22540000D02*
X14260000Y22540000D01*
X34820000Y12040000D02*
X34820000Y22540000D01*
X34760000Y16290000D02*
G75*
G02*
X34760000Y18290000I0J1000000D01*
G01*
%TO.C,D6*%
X25075000Y11090000D02*
X25075000Y8630000D01*
X26545000Y11090000D02*
X25075000Y11090000D01*
X26545000Y8630000D02*
X26545000Y11090000D01*
%TO.C,R4*%
X67197500Y50207224D02*
X67197500Y49697776D01*
X68242500Y50207224D02*
X68242500Y49697776D01*
%TO.C,D5*%
X54920000Y65545000D02*
X54920000Y63085000D01*
X56390000Y65545000D02*
X54920000Y65545000D01*
X56390000Y63085000D02*
X56390000Y65545000D01*
%TO.C,R7*%
X61002500Y10407776D02*
X61002500Y10917224D01*
X62047500Y10407776D02*
X62047500Y10917224D01*
%TO.C,U2*%
X1580000Y24500000D02*
X1580000Y45500000D01*
X4247000Y27507000D02*
X1580000Y27507000D01*
X4247000Y24500000D02*
X4247000Y27507000D01*
X52580000Y45500000D02*
X52580000Y38700000D01*
X52580000Y36100000D02*
X52580000Y36500000D01*
X52580000Y33500000D02*
X52580000Y33900000D01*
X52580000Y31300000D02*
X52580000Y24500000D01*
D12*
%TO.C,CN2*%
X59416500Y34595000D02*
X60935000Y34595000D01*
X59416500Y33625000D02*
X59416500Y34595000D01*
X59535000Y45765000D02*
X65295000Y45765000D01*
X59535000Y44885000D02*
X59535000Y45765000D01*
X60935000Y44885000D02*
X59535000Y44885000D01*
X60935000Y43466000D02*
X60935000Y44885000D01*
X60935000Y41466000D02*
X60935000Y42004000D01*
X60935000Y39466000D02*
X60935000Y40004000D01*
X60935000Y37466000D02*
X60935000Y38004000D01*
X60935000Y34595000D02*
X60935000Y36004000D01*
X65315000Y33625000D02*
X59415000Y33625000D01*
X67775000Y42225000D02*
X68795000Y42225000D01*
X67775000Y37235000D02*
X67775000Y42225000D01*
X68795000Y42225000D02*
X68795000Y44054000D01*
X68815000Y37235000D02*
X67775000Y37235000D01*
X68815000Y35325000D02*
X68815000Y37235000D01*
X59712000Y35625000D02*
G75*
G02*
X59458000Y35625000I-127000J0D01*
G01*
X59458000Y35625000D02*
G75*
G02*
X59712000Y35625000I127000J0D01*
G01*
D11*
%TO.C,J8*%
X43600000Y68550000D02*
X53820000Y68550000D01*
X43600000Y67330000D02*
X44820000Y67330000D01*
X43600000Y60130000D02*
X43600000Y68550000D01*
X44820000Y67330000D02*
X44820000Y62330000D01*
X44820000Y63330000D02*
X52600000Y63330000D01*
X44820000Y62330000D02*
X43600000Y62330000D01*
X44820000Y62330000D02*
X44820000Y60130000D01*
X44820000Y60130000D02*
X43600000Y60130000D01*
X45890000Y66750000D02*
X46210000Y66830000D01*
X45890000Y63330000D02*
X45890000Y66750000D01*
X45910000Y59640000D02*
X46510000Y59640000D01*
X46210000Y66830000D02*
X46530000Y66750000D01*
X46210000Y63330000D02*
X45890000Y63330000D01*
X46210000Y60240000D02*
X45910000Y59640000D01*
X46510000Y59640000D02*
X46210000Y60240000D01*
X46530000Y66750000D02*
X46530000Y63330000D01*
X46530000Y63330000D02*
X46210000Y63330000D01*
X47380000Y62330000D02*
X47540000Y62330000D01*
X48390000Y66750000D02*
X48710000Y66830000D01*
X48390000Y63330000D02*
X48390000Y66750000D01*
X48710000Y66830000D02*
X49030000Y66750000D01*
X48710000Y63330000D02*
X48390000Y63330000D01*
X49030000Y66750000D02*
X49030000Y63330000D01*
X49030000Y63330000D02*
X48710000Y63330000D01*
X49880000Y62330000D02*
X50040000Y62330000D01*
X50890000Y66750000D02*
X51210000Y66830000D01*
X50890000Y63330000D02*
X50890000Y66750000D01*
X51210000Y66830000D02*
X51530000Y66750000D01*
X51210000Y63330000D02*
X50890000Y63330000D01*
X51530000Y66750000D02*
X51530000Y63330000D01*
X51530000Y63330000D02*
X51210000Y63330000D01*
X52600000Y67330000D02*
X52600000Y62330000D01*
X52600000Y62330000D02*
X53820000Y62330000D01*
X52600000Y60130000D02*
X52600000Y62330000D01*
X53820000Y68550000D02*
X53820000Y60130000D01*
X53820000Y67330000D02*
X52600000Y67330000D01*
X53820000Y60130000D02*
X52600000Y60130000D01*
%TO.C,J6*%
X35700000Y6705000D02*
X35700000Y5455000D01*
X35990000Y6415000D02*
X35990000Y445000D01*
X35990000Y445000D02*
X43610000Y445000D01*
X36000000Y6405000D02*
X36000000Y5655000D01*
X36000000Y5655000D02*
X37800000Y5655000D01*
X36000000Y4155000D02*
X36750000Y4155000D01*
X36750000Y4155000D02*
X36750000Y1205000D01*
X36750000Y1205000D02*
X39800000Y1205000D01*
X36950000Y6705000D02*
X35700000Y6705000D01*
X37800000Y6405000D02*
X36000000Y6405000D01*
X37800000Y5655000D02*
X37800000Y6405000D01*
X39300000Y6405000D02*
X39300000Y5655000D01*
X39300000Y5655000D02*
X40300000Y5655000D01*
X40300000Y6405000D02*
X39300000Y6405000D01*
X40300000Y5655000D02*
X40300000Y6405000D01*
X41800000Y6405000D02*
X41800000Y5655000D01*
X41800000Y5655000D02*
X43600000Y5655000D01*
X42850000Y4155000D02*
X42850000Y1205000D01*
X42850000Y1205000D02*
X39800000Y1205000D01*
X43600000Y6405000D02*
X41800000Y6405000D01*
X43600000Y5655000D02*
X43600000Y6405000D01*
X43600000Y4155000D02*
X42850000Y4155000D01*
X43610000Y6415000D02*
X35990000Y6415000D01*
X43610000Y445000D02*
X43610000Y6415000D01*
%TO.C,R16*%
X25287500Y5327776D02*
X25287500Y5837224D01*
X26332500Y5327776D02*
X26332500Y5837224D01*
%TO.C,R14*%
X27827500Y5327776D02*
X27827500Y5837224D01*
X28872500Y5327776D02*
X28872500Y5837224D01*
%TO.C,U4*%
X63255000Y56025000D02*
X63255000Y57975000D01*
X63255000Y56025000D02*
X63255000Y54075000D01*
X68375000Y56025000D02*
X68375000Y57975000D01*
X68375000Y56025000D02*
X68375000Y54075000D01*
X63350000Y53325000D02*
X63020000Y53085000D01*
X63020000Y53565000D01*
X63350000Y53325000D01*
G36*
X63350000Y53325000D02*
G01*
X63020000Y53085000D01*
X63020000Y53565000D01*
X63350000Y53325000D01*
G37*
%TO.C,D4*%
X27615000Y11090000D02*
X27615000Y8630000D01*
X29085000Y11090000D02*
X27615000Y11090000D01*
X29085000Y8630000D02*
X29085000Y11090000D01*
%TD*%
%LPC*%
D13*
%TO.C,J1*%
X13365000Y55740000D03*
D14*
X13365000Y61740000D03*
D15*
X8665000Y58740000D03*
%TD*%
D16*
%TO.C,Q2*%
X68035000Y16780000D03*
X66135000Y16780000D03*
X67085000Y13480000D03*
%TD*%
D17*
%TO.C,R8*%
X63830000Y60470000D03*
X62005000Y60470000D03*
%TD*%
D18*
%TO.C,C6*%
X60100000Y61967500D03*
X60100000Y60242500D03*
%TD*%
D19*
%TO.C,J2*%
X23611000Y59200000D03*
D20*
X21111000Y59200000D03*
%TD*%
D21*
%TO.C,R10*%
X60100000Y58650000D03*
X60100000Y56825000D03*
%TD*%
D22*
%TO.C,R12*%
X30890000Y4670000D03*
X30890000Y6495000D03*
%TD*%
%TO.C,R15*%
X55655000Y59200000D03*
X55655000Y61025000D03*
%TD*%
D23*
%TO.C,R6*%
X60815000Y50945000D03*
X62640000Y50945000D03*
%TD*%
D24*
%TO.C,D3*%
X30890000Y10305000D03*
X30890000Y8555000D03*
%TD*%
D22*
%TO.C,R2*%
X64545000Y18282500D03*
X64545000Y20107500D03*
%TD*%
D23*
%TO.C,R5*%
X25810000Y40150000D03*
X27635000Y40150000D03*
%TD*%
D25*
%TO.C,CN1*%
X59375000Y24035000D03*
X59375000Y26035000D03*
X59375000Y28035000D03*
X59375000Y30035000D03*
D26*
X67175000Y32335000D03*
X67175000Y21735000D03*
%TD*%
D27*
%TO.C,J9*%
X22000000Y4590000D03*
D28*
X19500000Y4590000D03*
X17000000Y4590000D03*
X14500000Y4590000D03*
X12000000Y4590000D03*
%TD*%
D29*
%TO.C,D1*%
X63275000Y13480000D03*
X61525000Y13480000D03*
%TD*%
D30*
%TO.C,J5*%
X4220000Y15385000D03*
D31*
X4220000Y17885000D03*
X4220000Y20385000D03*
%TD*%
D32*
%TO.C,C2*%
X41685000Y59200000D03*
X39960000Y59200000D03*
%TD*%
D22*
%TO.C,R1*%
X62640000Y18282500D03*
X62640000Y20107500D03*
%TD*%
D33*
%TO.C,C4*%
X31906000Y51580000D03*
X31906000Y53305000D03*
%TD*%
D22*
%TO.C,R11*%
X33430000Y4670000D03*
X33430000Y6495000D03*
%TD*%
D32*
%TO.C,C7*%
X17375000Y10940000D03*
X15650000Y10940000D03*
%TD*%
D24*
%TO.C,D2*%
X33430000Y10305000D03*
X33430000Y8555000D03*
%TD*%
D22*
%TO.C,R9*%
X62005000Y56825000D03*
X62005000Y58650000D03*
%TD*%
D33*
%TO.C,C5*%
X5490000Y39695000D03*
X5490000Y41420000D03*
%TD*%
D34*
%TO.C,U1*%
X41685000Y55390000D03*
D35*
X39145000Y55390000D03*
X36605000Y55390000D03*
%TD*%
D36*
%TO.C,U3*%
X31907000Y47770000D03*
X31907000Y49670000D03*
X28907000Y48720000D03*
%TD*%
D37*
%TO.C,H3*%
X65000000Y5000000D03*
%TD*%
D38*
%TO.C,D7*%
X37500000Y66820000D03*
X34700000Y66820000D03*
%TD*%
D23*
%TO.C,R3*%
X39860000Y61740000D03*
X41685000Y61740000D03*
%TD*%
D37*
%TO.C,H4*%
X65000000Y65000000D03*
%TD*%
%TO.C,H1*%
X5000000Y5000000D03*
%TD*%
%TO.C,H2*%
X5000000Y65000000D03*
%TD*%
D39*
%TO.C,J4*%
X38550000Y17925000D03*
D28*
X41050000Y17925000D03*
X43550000Y17925000D03*
X46050000Y17925000D03*
X48550000Y17925000D03*
X51050000Y17925000D03*
X53550000Y17925000D03*
X56050000Y17925000D03*
%TD*%
D40*
%TO.C,C3*%
X36605000Y47770000D03*
X38330000Y47770000D03*
%TD*%
D39*
%TO.C,J3*%
X38550000Y10830000D03*
D28*
X41050000Y10830000D03*
X43550000Y10830000D03*
X46050000Y10830000D03*
X48550000Y10830000D03*
X51050000Y10830000D03*
X53550000Y10830000D03*
X56050000Y10830000D03*
%TD*%
D41*
%TO.C,D8*%
X32206000Y55390000D03*
X28906000Y55390000D03*
%TD*%
D42*
%TO.C,Q1*%
X64230000Y47645000D03*
X66130000Y47645000D03*
X65180000Y50945000D03*
%TD*%
D43*
%TO.C,C1*%
X29620000Y61740000D03*
D44*
X33120000Y61740000D03*
%TD*%
D45*
%TO.C,R17*%
X41685000Y66820000D03*
X41685000Y64820000D03*
%TD*%
D46*
%TO.C,F1*%
X5211000Y50310000D03*
X9811000Y50310000D03*
X21111000Y50310000D03*
X25711000Y50310000D03*
%TD*%
D47*
%TO.C,U5*%
X33430000Y21100000D03*
D48*
X30890000Y21100000D03*
X28350000Y21100000D03*
X25810000Y21100000D03*
X23270000Y21100000D03*
X20730000Y21100000D03*
X18190000Y21100000D03*
X15650000Y21100000D03*
X15650000Y13480000D03*
X18190000Y13480000D03*
X20730000Y13480000D03*
X23270000Y13480000D03*
X25810000Y13480000D03*
X28350000Y13480000D03*
X30890000Y13480000D03*
X33430000Y13480000D03*
%TD*%
D24*
%TO.C,D6*%
X25810000Y10305000D03*
X25810000Y8555000D03*
%TD*%
D21*
%TO.C,R4*%
X67720000Y50865000D03*
X67720000Y49040000D03*
%TD*%
D24*
%TO.C,D5*%
X55655000Y64760000D03*
X55655000Y63010000D03*
%TD*%
D22*
%TO.C,R7*%
X61525000Y9750000D03*
X61525000Y11575000D03*
%TD*%
D49*
%TO.C,U2*%
X2950000Y26110000D03*
D50*
X2950000Y25210000D03*
D49*
X5490000Y26110000D03*
D50*
X5490000Y25210000D03*
D51*
X8030000Y26110000D03*
D50*
X8030000Y25210000D03*
D49*
X10570000Y26110000D03*
D50*
X10570000Y25210000D03*
D49*
X13110000Y26110000D03*
D50*
X13110000Y25210000D03*
D49*
X15650000Y26110000D03*
D50*
X15650000Y25210000D03*
D49*
X18190000Y26110000D03*
D50*
X18190000Y25210000D03*
D51*
X20730000Y26110000D03*
D50*
X20730000Y25210000D03*
D49*
X23270000Y26110000D03*
D50*
X23270000Y25210000D03*
D49*
X25810000Y26110000D03*
D50*
X25810000Y25210000D03*
D49*
X28350000Y26110000D03*
D50*
X28350000Y25210000D03*
D49*
X30890000Y26110000D03*
D50*
X30890000Y25210000D03*
D51*
X33430000Y26110000D03*
D50*
X33430000Y25210000D03*
D49*
X35970000Y26110000D03*
D50*
X35970000Y25210000D03*
D49*
X38510000Y26110000D03*
D50*
X38510000Y25210000D03*
D49*
X41050000Y26110000D03*
D50*
X41050000Y25210000D03*
D49*
X43590000Y26110000D03*
D50*
X43590000Y25210000D03*
D51*
X46130000Y26110000D03*
D50*
X46130000Y25210000D03*
D49*
X48670000Y26110000D03*
D50*
X48670000Y25210000D03*
D49*
X51210000Y26110000D03*
D50*
X51210000Y25210000D03*
D49*
X51210000Y43890000D03*
D50*
X51210000Y44790000D03*
D49*
X48670000Y43890000D03*
D50*
X48670000Y44790000D03*
D51*
X46130000Y43890000D03*
D50*
X46130000Y44790000D03*
D49*
X43590000Y43890000D03*
D50*
X43590000Y44790000D03*
D49*
X41050000Y43890000D03*
D50*
X41050000Y44790000D03*
D49*
X38510000Y43890000D03*
D50*
X38510000Y44790000D03*
D49*
X35970000Y43890000D03*
D50*
X35970000Y44790000D03*
D51*
X33430000Y43890000D03*
D50*
X33430000Y44790000D03*
D49*
X30890000Y43890000D03*
D50*
X30890000Y44790000D03*
D49*
X28350000Y43890000D03*
D50*
X28350000Y44790000D03*
D49*
X25810000Y43890000D03*
D50*
X25810000Y44790000D03*
D49*
X23270000Y43890000D03*
D50*
X23270000Y44790000D03*
D51*
X20730000Y43890000D03*
D50*
X20730000Y44790000D03*
D49*
X18190000Y43890000D03*
D50*
X18190000Y44790000D03*
D49*
X15650000Y43890000D03*
D50*
X15650000Y44790000D03*
D49*
X13110000Y43890000D03*
D50*
X13110000Y44790000D03*
D49*
X10570000Y43890000D03*
D50*
X10570000Y44790000D03*
D51*
X8030000Y43890000D03*
D50*
X8030000Y44790000D03*
D49*
X5490000Y43890000D03*
D50*
X5490000Y44790000D03*
D49*
X2950000Y43890000D03*
D50*
X2950000Y44790000D03*
%TD*%
D25*
%TO.C,CN2*%
X59465000Y36735000D03*
X59465000Y38735000D03*
X59465000Y40735000D03*
X59465000Y42735000D03*
D26*
X67265000Y45035000D03*
X67265000Y34435000D03*
%TD*%
D39*
%TO.C,J8*%
X46210000Y61740000D03*
D28*
X48710000Y61740000D03*
X51210000Y61740000D03*
%TD*%
D52*
%TO.C,J6*%
X38550000Y3955000D03*
D20*
X41050000Y3955000D03*
%TD*%
D22*
%TO.C,R16*%
X25810000Y4670000D03*
X25810000Y6495000D03*
%TD*%
%TO.C,R14*%
X28350000Y4670000D03*
X28350000Y6495000D03*
%TD*%
D53*
%TO.C,U4*%
X63910000Y53400000D03*
X65180000Y53400000D03*
X66450000Y53400000D03*
X67720000Y53400000D03*
X67720000Y58650000D03*
X66450000Y58650000D03*
X65180000Y58650000D03*
X63910000Y58650000D03*
%TD*%
D24*
%TO.C,D4*%
X28350000Y10305000D03*
X28350000Y8555000D03*
%TD*%
%LPD*%
M02*
