%TF.GenerationSoftware,KiCad,Pcbnew,8.0.1*%
%TF.CreationDate,2024-08-29T15:45:34+09:00*%
%TF.ProjectId,raspcat,72617370-6361-4742-9e6b-696361645f70,rev?*%
%TF.SameCoordinates,Original*%
%TF.FileFunction,Legend,Bot*%
%TF.FilePolarity,Positive*%
%FSLAX46Y46*%
G04 Gerber Fmt 4.6, Leading zero omitted, Abs format (unit mm)*
G04 Created by KiCad (PCBNEW 8.0.1) date 2024-08-29 15:45:34*
%MOMM*%
%LPD*%
G01*
G04 APERTURE LIST*
G04 Aperture macros list*
%AMRoundRect*
0 Rectangle with rounded corners*
0 $1 Rounding radius*
0 $2 $3 $4 $5 $6 $7 $8 $9 X,Y pos of 4 corners*
0 Add a 4 corners polygon primitive as box body*
4,1,4,$2,$3,$4,$5,$6,$7,$8,$9,$2,$3,0*
0 Add four circle primitives for the rounded corners*
1,1,$1+$1,$2,$3*
1,1,$1+$1,$4,$5*
1,1,$1+$1,$6,$7*
1,1,$1+$1,$8,$9*
0 Add four rect primitives between the rounded corners*
20,1,$1+$1,$2,$3,$4,$5,0*
20,1,$1+$1,$4,$5,$6,$7,0*
20,1,$1+$1,$6,$7,$8,$9,0*
20,1,$1+$1,$8,$9,$2,$3,0*%
G04 Aperture macros list end*
%ADD10C,0.150000*%
%ADD11C,0.120000*%
%ADD12R,3.500000X3.500000*%
%ADD13RoundRect,0.750000X-1.000000X0.750000X-1.000000X-0.750000X1.000000X-0.750000X1.000000X0.750000X0*%
%ADD14RoundRect,0.875000X-0.875000X0.875000X-0.875000X-0.875000X0.875000X-0.875000X0.875000X0.875000X0*%
%ADD15RoundRect,0.250000X0.600000X0.750000X-0.600000X0.750000X-0.600000X-0.750000X0.600000X-0.750000X0*%
%ADD16O,1.700000X2.000000*%
%ADD17RoundRect,0.250000X0.600000X0.725000X-0.600000X0.725000X-0.600000X-0.725000X0.600000X-0.725000X0*%
%ADD18O,1.700000X1.950000*%
%ADD19RoundRect,0.250000X0.725000X-0.600000X0.725000X0.600000X-0.725000X0.600000X-0.725000X-0.600000X0*%
%ADD20O,1.950000X1.700000*%
%ADD21RoundRect,0.250000X-0.600000X-0.750000X0.600000X-0.750000X0.600000X0.750000X-0.600000X0.750000X0*%
%ADD22R,1.500000X2.300000*%
%ADD23O,1.500000X2.300000*%
%ADD24C,3.200000*%
%ADD25RoundRect,0.250000X-0.600000X-0.725000X0.600000X-0.725000X0.600000X0.725000X-0.600000X0.725000X0*%
%ADD26R,1.600000X1.600000*%
%ADD27C,1.600000*%
%ADD28C,2.300000*%
%ADD29R,1.600000X2.400000*%
%ADD30O,1.600000X2.400000*%
%ADD31O,1.700000X1.700000*%
%ADD32R,1.700000X1.700000*%
%ADD33C,1.000000*%
%ADD34R,1.500000X1.000000*%
G04 APERTURE END LIST*
D10*
X44314819Y54111905D02*
X44314819Y53540477D01*
X45314819Y53826191D02*
X44314819Y53826191D01*
X45314819Y53207143D02*
X44314819Y53207143D01*
X44314819Y53207143D02*
X44314819Y52826191D01*
X44314819Y52826191D02*
X44362438Y52730953D01*
X44362438Y52730953D02*
X44410057Y52683334D01*
X44410057Y52683334D02*
X44505295Y52635715D01*
X44505295Y52635715D02*
X44648152Y52635715D01*
X44648152Y52635715D02*
X44743390Y52683334D01*
X44743390Y52683334D02*
X44791009Y52730953D01*
X44791009Y52730953D02*
X44838628Y52826191D01*
X44838628Y52826191D02*
X44838628Y53207143D01*
X45314819Y51683334D02*
X45314819Y52254762D01*
X45314819Y51969048D02*
X44314819Y51969048D01*
X44314819Y51969048D02*
X44457676Y52064286D01*
X44457676Y52064286D02*
X44552914Y52159524D01*
X44552914Y52159524D02*
X44600533Y52254762D01*
X2404819Y30616905D02*
X2404819Y30045477D01*
X3404819Y30331191D02*
X2404819Y30331191D01*
X3404819Y29712143D02*
X2404819Y29712143D01*
X2404819Y29712143D02*
X2404819Y29331191D01*
X2404819Y29331191D02*
X2452438Y29235953D01*
X2452438Y29235953D02*
X2500057Y29188334D01*
X2500057Y29188334D02*
X2595295Y29140715D01*
X2595295Y29140715D02*
X2738152Y29140715D01*
X2738152Y29140715D02*
X2833390Y29188334D01*
X2833390Y29188334D02*
X2881009Y29235953D01*
X2881009Y29235953D02*
X2928628Y29331191D01*
X2928628Y29331191D02*
X2928628Y29712143D01*
X2833390Y28569286D02*
X2785771Y28664524D01*
X2785771Y28664524D02*
X2738152Y28712143D01*
X2738152Y28712143D02*
X2642914Y28759762D01*
X2642914Y28759762D02*
X2595295Y28759762D01*
X2595295Y28759762D02*
X2500057Y28712143D01*
X2500057Y28712143D02*
X2452438Y28664524D01*
X2452438Y28664524D02*
X2404819Y28569286D01*
X2404819Y28569286D02*
X2404819Y28378810D01*
X2404819Y28378810D02*
X2452438Y28283572D01*
X2452438Y28283572D02*
X2500057Y28235953D01*
X2500057Y28235953D02*
X2595295Y28188334D01*
X2595295Y28188334D02*
X2642914Y28188334D01*
X2642914Y28188334D02*
X2738152Y28235953D01*
X2738152Y28235953D02*
X2785771Y28283572D01*
X2785771Y28283572D02*
X2833390Y28378810D01*
X2833390Y28378810D02*
X2833390Y28569286D01*
X2833390Y28569286D02*
X2881009Y28664524D01*
X2881009Y28664524D02*
X2928628Y28712143D01*
X2928628Y28712143D02*
X3023866Y28759762D01*
X3023866Y28759762D02*
X3214342Y28759762D01*
X3214342Y28759762D02*
X3309580Y28712143D01*
X3309580Y28712143D02*
X3357200Y28664524D01*
X3357200Y28664524D02*
X3404819Y28569286D01*
X3404819Y28569286D02*
X3404819Y28378810D01*
X3404819Y28378810D02*
X3357200Y28283572D01*
X3357200Y28283572D02*
X3309580Y28235953D01*
X3309580Y28235953D02*
X3214342Y28188334D01*
X3214342Y28188334D02*
X3023866Y28188334D01*
X3023866Y28188334D02*
X2928628Y28235953D01*
X2928628Y28235953D02*
X2881009Y28283572D01*
X2881009Y28283572D02*
X2833390Y28378810D01*
X29611904Y54665181D02*
X29040476Y54665181D01*
X29326190Y53665181D02*
X29326190Y54665181D01*
X28707142Y53665181D02*
X28707142Y54665181D01*
X28707142Y54665181D02*
X28326190Y54665181D01*
X28326190Y54665181D02*
X28230952Y54617562D01*
X28230952Y54617562D02*
X28183333Y54569943D01*
X28183333Y54569943D02*
X28135714Y54474705D01*
X28135714Y54474705D02*
X28135714Y54331848D01*
X28135714Y54331848D02*
X28183333Y54236610D01*
X28183333Y54236610D02*
X28230952Y54188991D01*
X28230952Y54188991D02*
X28326190Y54141372D01*
X28326190Y54141372D02*
X28707142Y54141372D01*
X27802380Y54665181D02*
X27183333Y54665181D01*
X27183333Y54665181D02*
X27516666Y54284229D01*
X27516666Y54284229D02*
X27373809Y54284229D01*
X27373809Y54284229D02*
X27278571Y54236610D01*
X27278571Y54236610D02*
X27230952Y54188991D01*
X27230952Y54188991D02*
X27183333Y54093753D01*
X27183333Y54093753D02*
X27183333Y53855658D01*
X27183333Y53855658D02*
X27230952Y53760420D01*
X27230952Y53760420D02*
X27278571Y53712800D01*
X27278571Y53712800D02*
X27373809Y53665181D01*
X27373809Y53665181D02*
X27659523Y53665181D01*
X27659523Y53665181D02*
X27754761Y53712800D01*
X27754761Y53712800D02*
X27802380Y53760420D01*
X4944819Y30616905D02*
X4944819Y30045477D01*
X5944819Y30331191D02*
X4944819Y30331191D01*
X5944819Y29712143D02*
X4944819Y29712143D01*
X4944819Y29712143D02*
X4944819Y29331191D01*
X4944819Y29331191D02*
X4992438Y29235953D01*
X4992438Y29235953D02*
X5040057Y29188334D01*
X5040057Y29188334D02*
X5135295Y29140715D01*
X5135295Y29140715D02*
X5278152Y29140715D01*
X5278152Y29140715D02*
X5373390Y29188334D01*
X5373390Y29188334D02*
X5421009Y29235953D01*
X5421009Y29235953D02*
X5468628Y29331191D01*
X5468628Y29331191D02*
X5468628Y29712143D01*
X4944819Y28807381D02*
X4944819Y28140715D01*
X4944819Y28140715D02*
X5944819Y28569286D01*
X62631904Y61015181D02*
X62060476Y61015181D01*
X62346190Y60015181D02*
X62346190Y61015181D01*
X61727142Y60015181D02*
X61727142Y61015181D01*
X61727142Y61015181D02*
X61346190Y61015181D01*
X61346190Y61015181D02*
X61250952Y60967562D01*
X61250952Y60967562D02*
X61203333Y60919943D01*
X61203333Y60919943D02*
X61155714Y60824705D01*
X61155714Y60824705D02*
X61155714Y60681848D01*
X61155714Y60681848D02*
X61203333Y60586610D01*
X61203333Y60586610D02*
X61250952Y60538991D01*
X61250952Y60538991D02*
X61346190Y60491372D01*
X61346190Y60491372D02*
X61727142Y60491372D01*
X60298571Y61015181D02*
X60489047Y61015181D01*
X60489047Y61015181D02*
X60584285Y60967562D01*
X60584285Y60967562D02*
X60631904Y60919943D01*
X60631904Y60919943D02*
X60727142Y60777086D01*
X60727142Y60777086D02*
X60774761Y60586610D01*
X60774761Y60586610D02*
X60774761Y60205658D01*
X60774761Y60205658D02*
X60727142Y60110420D01*
X60727142Y60110420D02*
X60679523Y60062800D01*
X60679523Y60062800D02*
X60584285Y60015181D01*
X60584285Y60015181D02*
X60393809Y60015181D01*
X60393809Y60015181D02*
X60298571Y60062800D01*
X60298571Y60062800D02*
X60250952Y60110420D01*
X60250952Y60110420D02*
X60203333Y60205658D01*
X60203333Y60205658D02*
X60203333Y60443753D01*
X60203333Y60443753D02*
X60250952Y60538991D01*
X60250952Y60538991D02*
X60298571Y60586610D01*
X60298571Y60586610D02*
X60393809Y60634229D01*
X60393809Y60634229D02*
X60584285Y60634229D01*
X60584285Y60634229D02*
X60679523Y60586610D01*
X60679523Y60586610D02*
X60727142Y60538991D01*
X60727142Y60538991D02*
X60774761Y60443753D01*
X54376904Y35615181D02*
X53805476Y35615181D01*
X54091190Y34615181D02*
X54091190Y35615181D01*
X53472142Y34615181D02*
X53472142Y35615181D01*
X53472142Y35615181D02*
X53091190Y35615181D01*
X53091190Y35615181D02*
X52995952Y35567562D01*
X52995952Y35567562D02*
X52948333Y35519943D01*
X52948333Y35519943D02*
X52900714Y35424705D01*
X52900714Y35424705D02*
X52900714Y35281848D01*
X52900714Y35281848D02*
X52948333Y35186610D01*
X52948333Y35186610D02*
X52995952Y35138991D01*
X52995952Y35138991D02*
X53091190Y35091372D01*
X53091190Y35091372D02*
X53472142Y35091372D01*
X52043571Y35281848D02*
X52043571Y34615181D01*
X52281666Y35662800D02*
X52519761Y34948515D01*
X52519761Y34948515D02*
X51900714Y34948515D01*
X27584819Y58494334D02*
X28299104Y58494334D01*
X28299104Y58494334D02*
X28441961Y58541953D01*
X28441961Y58541953D02*
X28537200Y58637191D01*
X28537200Y58637191D02*
X28584819Y58780048D01*
X28584819Y58780048D02*
X28584819Y58875286D01*
X28584819Y58018143D02*
X27584819Y58018143D01*
X27584819Y58018143D02*
X27584819Y57637191D01*
X27584819Y57637191D02*
X27632438Y57541953D01*
X27632438Y57541953D02*
X27680057Y57494334D01*
X27680057Y57494334D02*
X27775295Y57446715D01*
X27775295Y57446715D02*
X27918152Y57446715D01*
X27918152Y57446715D02*
X28013390Y57494334D01*
X28013390Y57494334D02*
X28061009Y57541953D01*
X28061009Y57541953D02*
X28108628Y57637191D01*
X28108628Y57637191D02*
X28108628Y58018143D01*
X28584819Y56494334D02*
X28584819Y57065762D01*
X28584819Y56780048D02*
X27584819Y56780048D01*
X27584819Y56780048D02*
X27727676Y56875286D01*
X27727676Y56875286D02*
X27822914Y56970524D01*
X27822914Y56970524D02*
X27870533Y57065762D01*
X27706904Y35615181D02*
X27135476Y35615181D01*
X27421190Y34615181D02*
X27421190Y35615181D01*
X26802142Y34615181D02*
X26802142Y35615181D01*
X26802142Y35615181D02*
X26421190Y35615181D01*
X26421190Y35615181D02*
X26325952Y35567562D01*
X26325952Y35567562D02*
X26278333Y35519943D01*
X26278333Y35519943D02*
X26230714Y35424705D01*
X26230714Y35424705D02*
X26230714Y35281848D01*
X26230714Y35281848D02*
X26278333Y35186610D01*
X26278333Y35186610D02*
X26325952Y35138991D01*
X26325952Y35138991D02*
X26421190Y35091372D01*
X26421190Y35091372D02*
X26802142Y35091372D01*
X25754523Y34615181D02*
X25564047Y34615181D01*
X25564047Y34615181D02*
X25468809Y34662800D01*
X25468809Y34662800D02*
X25421190Y34710420D01*
X25421190Y34710420D02*
X25325952Y34853277D01*
X25325952Y34853277D02*
X25278333Y35043753D01*
X25278333Y35043753D02*
X25278333Y35424705D01*
X25278333Y35424705D02*
X25325952Y35519943D01*
X25325952Y35519943D02*
X25373571Y35567562D01*
X25373571Y35567562D02*
X25468809Y35615181D01*
X25468809Y35615181D02*
X25659285Y35615181D01*
X25659285Y35615181D02*
X25754523Y35567562D01*
X25754523Y35567562D02*
X25802142Y35519943D01*
X25802142Y35519943D02*
X25849761Y35424705D01*
X25849761Y35424705D02*
X25849761Y35186610D01*
X25849761Y35186610D02*
X25802142Y35091372D01*
X25802142Y35091372D02*
X25754523Y35043753D01*
X25754523Y35043753D02*
X25659285Y34996134D01*
X25659285Y34996134D02*
X25468809Y34996134D01*
X25468809Y34996134D02*
X25373571Y35043753D01*
X25373571Y35043753D02*
X25325952Y35091372D01*
X25325952Y35091372D02*
X25278333Y35186610D01*
X32884819Y54111905D02*
X32884819Y53540477D01*
X33884819Y53826191D02*
X32884819Y53826191D01*
X33884819Y53207143D02*
X32884819Y53207143D01*
X32884819Y53207143D02*
X32884819Y52826191D01*
X32884819Y52826191D02*
X32932438Y52730953D01*
X32932438Y52730953D02*
X32980057Y52683334D01*
X32980057Y52683334D02*
X33075295Y52635715D01*
X33075295Y52635715D02*
X33218152Y52635715D01*
X33218152Y52635715D02*
X33313390Y52683334D01*
X33313390Y52683334D02*
X33361009Y52730953D01*
X33361009Y52730953D02*
X33408628Y52826191D01*
X33408628Y52826191D02*
X33408628Y53207143D01*
X32980057Y52254762D02*
X32932438Y52207143D01*
X32932438Y52207143D02*
X32884819Y52111905D01*
X32884819Y52111905D02*
X32884819Y51873810D01*
X32884819Y51873810D02*
X32932438Y51778572D01*
X32932438Y51778572D02*
X32980057Y51730953D01*
X32980057Y51730953D02*
X33075295Y51683334D01*
X33075295Y51683334D02*
X33170533Y51683334D01*
X33170533Y51683334D02*
X33313390Y51730953D01*
X33313390Y51730953D02*
X33884819Y52302381D01*
X33884819Y52302381D02*
X33884819Y51683334D01*
D11*
%TO.C,TP1*%
X45560000Y55390000D02*
G75*
G02*
X44160000Y55390000I-700000J0D01*
G01*
X44160000Y55390000D02*
G75*
G02*
X45560000Y55390000I700000J0D01*
G01*
%TO.C,TP8*%
X3650000Y31895000D02*
G75*
G02*
X2250000Y31895000I-700000J0D01*
G01*
X2250000Y31895000D02*
G75*
G02*
X3650000Y31895000I700000J0D01*
G01*
%TO.C,TP3*%
X30955000Y54120000D02*
G75*
G02*
X29555000Y54120000I-700000J0D01*
G01*
X29555000Y54120000D02*
G75*
G02*
X30955000Y54120000I700000J0D01*
G01*
%TO.C,TP7*%
X6190000Y31895000D02*
G75*
G02*
X4790000Y31895000I-700000J0D01*
G01*
X4790000Y31895000D02*
G75*
G02*
X6190000Y31895000I700000J0D01*
G01*
%TO.C,TP6*%
X64529000Y60470000D02*
G75*
G02*
X63129000Y60470000I-700000J0D01*
G01*
X63129000Y60470000D02*
G75*
G02*
X64529000Y60470000I700000J0D01*
G01*
%TO.C,TP4*%
X56355000Y35070000D02*
G75*
G02*
X54955000Y35070000I-700000J0D01*
G01*
X54955000Y35070000D02*
G75*
G02*
X56355000Y35070000I700000J0D01*
G01*
%TO.C,JP1*%
X28930000Y59061000D02*
X30930000Y59061000D01*
X28930000Y56261000D02*
X28930000Y59061000D01*
X30930000Y59061000D02*
X30930000Y56261000D01*
X30930000Y56261000D02*
X28930000Y56261000D01*
%TO.C,TP9*%
X29685000Y35070000D02*
G75*
G02*
X28285000Y35070000I-700000J0D01*
G01*
X28285000Y35070000D02*
G75*
G02*
X29685000Y35070000I700000J0D01*
G01*
%TO.C,TP2*%
X34130000Y55390000D02*
G75*
G02*
X32730000Y55390000I-700000J0D01*
G01*
X32730000Y55390000D02*
G75*
G02*
X34130000Y55390000I700000J0D01*
G01*
%TD*%
%LPC*%
D12*
%TO.C,J1*%
X13365000Y55740000D03*
D13*
X13365000Y61740000D03*
D14*
X8665000Y58740000D03*
%TD*%
D15*
%TO.C,J2*%
X23611000Y59200000D03*
D16*
X21111000Y59200000D03*
%TD*%
D17*
%TO.C,J9*%
X22000000Y4590000D03*
D18*
X19500000Y4590000D03*
X17000000Y4590000D03*
X14500000Y4590000D03*
X12000000Y4590000D03*
%TD*%
D19*
%TO.C,J5*%
X4220000Y15385000D03*
D20*
X4220000Y17885000D03*
X4220000Y20385000D03*
%TD*%
D21*
%TO.C,J7*%
X48710000Y55390000D03*
D16*
X51210000Y55390000D03*
%TD*%
D22*
%TO.C,U1*%
X41685000Y55390000D03*
D23*
X39145000Y55390000D03*
X36605000Y55390000D03*
%TD*%
D24*
%TO.C,H3*%
X65000000Y5000000D03*
%TD*%
%TO.C,H4*%
X65000000Y65000000D03*
%TD*%
%TO.C,H1*%
X5000000Y5000000D03*
%TD*%
%TO.C,H2*%
X5000000Y65000000D03*
%TD*%
D25*
%TO.C,J4*%
X38550000Y17925000D03*
D18*
X41050000Y17925000D03*
X43550000Y17925000D03*
X46050000Y17925000D03*
X48550000Y17925000D03*
X51050000Y17925000D03*
X53550000Y17925000D03*
X56050000Y17925000D03*
%TD*%
D25*
%TO.C,J3*%
X38550000Y10830000D03*
D18*
X41050000Y10830000D03*
X43550000Y10830000D03*
X46050000Y10830000D03*
X48550000Y10830000D03*
X51050000Y10830000D03*
X53550000Y10830000D03*
X56050000Y10830000D03*
%TD*%
D26*
%TO.C,C1*%
X29620000Y61740000D03*
D27*
X33120000Y61740000D03*
%TD*%
D28*
%TO.C,F1*%
X5211000Y50310000D03*
X9811000Y50310000D03*
X21111000Y50310000D03*
X25711000Y50310000D03*
%TD*%
D29*
%TO.C,U5*%
X33430000Y21100000D03*
D30*
X30890000Y21100000D03*
X28350000Y21100000D03*
X25810000Y21100000D03*
X23270000Y21100000D03*
X20730000Y21100000D03*
X18190000Y21100000D03*
X15650000Y21100000D03*
X15650000Y13480000D03*
X18190000Y13480000D03*
X20730000Y13480000D03*
X23270000Y13480000D03*
X25810000Y13480000D03*
X28350000Y13480000D03*
X30890000Y13480000D03*
X33430000Y13480000D03*
%TD*%
D31*
%TO.C,U2*%
X2950000Y26110000D03*
X5490000Y26110000D03*
D32*
X8030000Y26110000D03*
D31*
X10570000Y26110000D03*
X13110000Y26110000D03*
X15650000Y26110000D03*
X18190000Y26110000D03*
D32*
X20730000Y26110000D03*
D31*
X23270000Y26110000D03*
X25810000Y26110000D03*
X28350000Y26110000D03*
X30890000Y26110000D03*
D32*
X33430000Y26110000D03*
D31*
X35970000Y26110000D03*
X38510000Y26110000D03*
X41050000Y26110000D03*
X43590000Y26110000D03*
D32*
X46130000Y26110000D03*
D31*
X48670000Y26110000D03*
X51210000Y26110000D03*
X51210000Y43890000D03*
X48670000Y43890000D03*
D32*
X46130000Y43890000D03*
D31*
X43590000Y43890000D03*
X41050000Y43890000D03*
X38510000Y43890000D03*
X35970000Y43890000D03*
D32*
X33430000Y43890000D03*
D31*
X30890000Y43890000D03*
X28350000Y43890000D03*
X25810000Y43890000D03*
X23270000Y43890000D03*
D32*
X20730000Y43890000D03*
D31*
X18190000Y43890000D03*
X15650000Y43890000D03*
X13110000Y43890000D03*
X10570000Y43890000D03*
D32*
X8030000Y43890000D03*
D31*
X5490000Y43890000D03*
X2950000Y43890000D03*
%TD*%
D25*
%TO.C,J8*%
X46210000Y61740000D03*
D18*
X48710000Y61740000D03*
X51210000Y61740000D03*
%TD*%
D21*
%TO.C,J6*%
X38550000Y3955000D03*
D16*
X41050000Y3955000D03*
%TD*%
D33*
%TO.C,TP1*%
X44860000Y55390000D03*
%TD*%
%TO.C,TP8*%
X2950000Y31895000D03*
%TD*%
%TO.C,TP3*%
X30255000Y54120000D03*
%TD*%
%TO.C,TP7*%
X5490000Y31895000D03*
%TD*%
%TO.C,TP6*%
X63829000Y60470000D03*
%TD*%
%TO.C,TP4*%
X55655000Y35070000D03*
%TD*%
D34*
%TO.C,JP1*%
X29930000Y58311000D03*
X29930000Y57011000D03*
%TD*%
D33*
%TO.C,TP9*%
X28985000Y35070000D03*
%TD*%
%TO.C,TP2*%
X33430000Y55390000D03*
%TD*%
%LPD*%
M02*
