%TF.GenerationSoftware,KiCad,Pcbnew,8.0.1*%
%TF.CreationDate,2024-09-06T12:01:45+09:00*%
%TF.ProjectId,raspcat,72617370-6361-4742-9e6b-696361645f70,rev?*%
%TF.SameCoordinates,Original*%
%TF.FileFunction,Soldermask,Bot*%
%TF.FilePolarity,Negative*%
%FSLAX46Y46*%
G04 Gerber Fmt 4.6, Leading zero omitted, Abs format (unit mm)*
G04 Created by KiCad (PCBNEW 8.0.1) date 2024-09-06 12:01:45*
%MOMM*%
%LPD*%
G01*
G04 APERTURE LIST*
G04 Aperture macros list*
%AMRoundRect*
0 Rectangle with rounded corners*
0 $1 Rounding radius*
0 $2 $3 $4 $5 $6 $7 $8 $9 X,Y pos of 4 corners*
0 Add a 4 corners polygon primitive as box body*
4,1,4,$2,$3,$4,$5,$6,$7,$8,$9,$2,$3,0*
0 Add four circle primitives for the rounded corners*
1,1,$1+$1,$2,$3*
1,1,$1+$1,$4,$5*
1,1,$1+$1,$6,$7*
1,1,$1+$1,$8,$9*
0 Add four rect primitives between the rounded corners*
20,1,$1+$1,$2,$3,$4,$5,0*
20,1,$1+$1,$4,$5,$6,$7,0*
20,1,$1+$1,$6,$7,$8,$9,0*
20,1,$1+$1,$8,$9,$2,$3,0*%
G04 Aperture macros list end*
%ADD10R,3.500000X3.500000*%
%ADD11RoundRect,0.750000X-1.000000X0.750000X-1.000000X-0.750000X1.000000X-0.750000X1.000000X0.750000X0*%
%ADD12RoundRect,0.875000X-0.875000X0.875000X-0.875000X-0.875000X0.875000X-0.875000X0.875000X0.875000X0*%
%ADD13RoundRect,0.250000X0.600000X0.750000X-0.600000X0.750000X-0.600000X-0.750000X0.600000X-0.750000X0*%
%ADD14O,1.700000X2.000000*%
%ADD15RoundRect,0.250000X0.600000X0.725000X-0.600000X0.725000X-0.600000X-0.725000X0.600000X-0.725000X0*%
%ADD16O,1.700000X1.950000*%
%ADD17RoundRect,0.250000X0.725000X-0.600000X0.725000X0.600000X-0.725000X0.600000X-0.725000X-0.600000X0*%
%ADD18O,1.950000X1.700000*%
%ADD19R,1.500000X2.300000*%
%ADD20O,1.500000X2.300000*%
%ADD21C,3.200000*%
%ADD22RoundRect,0.250000X-0.600000X-0.725000X0.600000X-0.725000X0.600000X0.725000X-0.600000X0.725000X0*%
%ADD23R,1.600000X1.600000*%
%ADD24C,1.600000*%
%ADD25C,2.300000*%
%ADD26R,1.600000X2.400000*%
%ADD27O,1.600000X2.400000*%
%ADD28O,1.700000X1.700000*%
%ADD29R,1.700000X1.700000*%
%ADD30RoundRect,0.250000X-0.600000X-0.750000X0.600000X-0.750000X0.600000X0.750000X-0.600000X0.750000X0*%
%ADD31C,1.000000*%
%ADD32R,1.500000X1.000000*%
G04 APERTURE END LIST*
D10*
%TO.C,J1*%
X13365000Y55740000D03*
D11*
X13365000Y61740000D03*
D12*
X8665000Y58740000D03*
%TD*%
D13*
%TO.C,J2*%
X23611000Y59200000D03*
D14*
X21111000Y59200000D03*
%TD*%
D15*
%TO.C,J9*%
X22000000Y4590000D03*
D16*
X19500000Y4590000D03*
X17000000Y4590000D03*
X14500000Y4590000D03*
X12000000Y4590000D03*
%TD*%
D17*
%TO.C,J5*%
X4220000Y15385000D03*
D18*
X4220000Y17885000D03*
X4220000Y20385000D03*
%TD*%
D19*
%TO.C,U1*%
X41685000Y55390000D03*
D20*
X39145000Y55390000D03*
X36605000Y55390000D03*
%TD*%
D21*
%TO.C,H3*%
X65000000Y5000000D03*
%TD*%
%TO.C,H4*%
X65000000Y65000000D03*
%TD*%
%TO.C,H1*%
X5000000Y5000000D03*
%TD*%
%TO.C,H2*%
X5000000Y65000000D03*
%TD*%
D22*
%TO.C,J4*%
X38550000Y17925000D03*
D16*
X41050000Y17925000D03*
X43550000Y17925000D03*
X46050000Y17925000D03*
X48550000Y17925000D03*
X51050000Y17925000D03*
X53550000Y17925000D03*
X56050000Y17925000D03*
%TD*%
D22*
%TO.C,J3*%
X38550000Y10830000D03*
D16*
X41050000Y10830000D03*
X43550000Y10830000D03*
X46050000Y10830000D03*
X48550000Y10830000D03*
X51050000Y10830000D03*
X53550000Y10830000D03*
X56050000Y10830000D03*
%TD*%
D23*
%TO.C,C1*%
X29620000Y61740000D03*
D24*
X33120000Y61740000D03*
%TD*%
D25*
%TO.C,F1*%
X5211000Y50310000D03*
X9811000Y50310000D03*
X21111000Y50310000D03*
X25711000Y50310000D03*
%TD*%
D26*
%TO.C,U5*%
X33430000Y21100000D03*
D27*
X30890000Y21100000D03*
X28350000Y21100000D03*
X25810000Y21100000D03*
X23270000Y21100000D03*
X20730000Y21100000D03*
X18190000Y21100000D03*
X15650000Y21100000D03*
X15650000Y13480000D03*
X18190000Y13480000D03*
X20730000Y13480000D03*
X23270000Y13480000D03*
X25810000Y13480000D03*
X28350000Y13480000D03*
X30890000Y13480000D03*
X33430000Y13480000D03*
%TD*%
D28*
%TO.C,U2*%
X2950000Y26110000D03*
X5490000Y26110000D03*
D29*
X8030000Y26110000D03*
D28*
X10570000Y26110000D03*
X13110000Y26110000D03*
X15650000Y26110000D03*
X18190000Y26110000D03*
D29*
X20730000Y26110000D03*
D28*
X23270000Y26110000D03*
X25810000Y26110000D03*
X28350000Y26110000D03*
X30890000Y26110000D03*
D29*
X33430000Y26110000D03*
D28*
X35970000Y26110000D03*
X38510000Y26110000D03*
X41050000Y26110000D03*
X43590000Y26110000D03*
D29*
X46130000Y26110000D03*
D28*
X48670000Y26110000D03*
X51210000Y26110000D03*
X51210000Y43890000D03*
X48670000Y43890000D03*
D29*
X46130000Y43890000D03*
D28*
X43590000Y43890000D03*
X41050000Y43890000D03*
X38510000Y43890000D03*
X35970000Y43890000D03*
D29*
X33430000Y43890000D03*
D28*
X30890000Y43890000D03*
X28350000Y43890000D03*
X25810000Y43890000D03*
X23270000Y43890000D03*
D29*
X20730000Y43890000D03*
D28*
X18190000Y43890000D03*
X15650000Y43890000D03*
X13110000Y43890000D03*
X10570000Y43890000D03*
D29*
X8030000Y43890000D03*
D28*
X5490000Y43890000D03*
X2950000Y43890000D03*
%TD*%
D22*
%TO.C,J8*%
X46210000Y61740000D03*
D16*
X48710000Y61740000D03*
X51210000Y61740000D03*
%TD*%
D30*
%TO.C,J6*%
X38550000Y3955000D03*
D14*
X41050000Y3955000D03*
%TD*%
D31*
%TO.C,TP1*%
X44860000Y55390000D03*
%TD*%
%TO.C,TP8*%
X2950000Y31895000D03*
%TD*%
%TO.C,TP3*%
X30255000Y54120000D03*
%TD*%
%TO.C,TP7*%
X5490000Y31895000D03*
%TD*%
%TO.C,TP6*%
X63829000Y60470000D03*
%TD*%
%TO.C,TP4*%
X55655000Y35070000D03*
%TD*%
D32*
%TO.C,JP1*%
X29930000Y58311000D03*
X29930000Y57011000D03*
%TD*%
D31*
%TO.C,TP9*%
X28985000Y35070000D03*
%TD*%
%TO.C,TP2*%
X33430000Y55390000D03*
%TD*%
M02*
