%TF.GenerationSoftware,KiCad,Pcbnew,8.0.1*%
%TF.CreationDate,2024-08-29T15:45:34+09:00*%
%TF.ProjectId,raspcat,72617370-6361-4742-9e6b-696361645f70,rev?*%
%TF.SameCoordinates,Original*%
%TF.FileFunction,Paste,Top*%
%TF.FilePolarity,Positive*%
%FSLAX46Y46*%
G04 Gerber Fmt 4.6, Leading zero omitted, Abs format (unit mm)*
G04 Created by KiCad (PCBNEW 8.0.1) date 2024-08-29 15:45:34*
%MOMM*%
%LPD*%
G01*
G04 APERTURE LIST*
G04 Aperture macros list*
%AMRoundRect*
0 Rectangle with rounded corners*
0 $1 Rounding radius*
0 $2 $3 $4 $5 $6 $7 $8 $9 X,Y pos of 4 corners*
0 Add a 4 corners polygon primitive as box body*
4,1,4,$2,$3,$4,$5,$6,$7,$8,$9,$2,$3,0*
0 Add four circle primitives for the rounded corners*
1,1,$1+$1,$2,$3*
1,1,$1+$1,$4,$5*
1,1,$1+$1,$6,$7*
1,1,$1+$1,$8,$9*
0 Add four rect primitives between the rounded corners*
20,1,$1+$1,$2,$3,$4,$5,0*
20,1,$1+$1,$4,$5,$6,$7,0*
20,1,$1+$1,$6,$7,$8,$9,0*
20,1,$1+$1,$8,$9,$2,$3,0*%
G04 Aperture macros list end*
%ADD10RoundRect,0.200000X-0.200000X0.700000X-0.200000X-0.700000X0.200000X-0.700000X0.200000X0.700000X0*%
%ADD11RoundRect,0.237500X0.250000X0.237500X-0.250000X0.237500X-0.250000X-0.237500X0.250000X-0.237500X0*%
%ADD12RoundRect,0.237500X-0.237500X0.300000X-0.237500X-0.300000X0.237500X-0.300000X0.237500X0.300000X0*%
%ADD13RoundRect,0.237500X-0.237500X0.250000X-0.237500X-0.250000X0.237500X-0.250000X0.237500X0.250000X0*%
%ADD14RoundRect,0.237500X0.237500X-0.250000X0.237500X0.250000X-0.237500X0.250000X-0.237500X-0.250000X0*%
%ADD15RoundRect,0.237500X-0.250000X-0.237500X0.250000X-0.237500X0.250000X0.237500X-0.250000X0.237500X0*%
%ADD16RoundRect,0.237500X-0.237500X0.287500X-0.237500X-0.287500X0.237500X-0.287500X0.237500X0.287500X0*%
%ADD17R,3.400000X1.000000*%
%ADD18R,3.600000X1.500000*%
%ADD19RoundRect,0.237500X0.287500X0.237500X-0.287500X0.237500X-0.287500X-0.237500X0.287500X-0.237500X0*%
%ADD20RoundRect,0.237500X0.300000X0.237500X-0.300000X0.237500X-0.300000X-0.237500X0.300000X-0.237500X0*%
%ADD21RoundRect,0.237500X0.237500X-0.300000X0.237500X0.300000X-0.237500X0.300000X-0.237500X-0.300000X0*%
%ADD22RoundRect,0.200000X0.750000X0.200000X-0.750000X0.200000X-0.750000X-0.200000X0.750000X-0.200000X0*%
%ADD23RoundRect,0.250000X0.300000X0.300000X-0.300000X0.300000X-0.300000X-0.300000X0.300000X-0.300000X0*%
%ADD24RoundRect,0.237500X-0.300000X-0.237500X0.300000X-0.237500X0.300000X0.237500X-0.300000X0.237500X0*%
%ADD25RoundRect,0.225000X0.225000X0.375000X-0.225000X0.375000X-0.225000X-0.375000X0.225000X-0.375000X0*%
%ADD26RoundRect,0.200000X0.200000X-0.700000X0.200000X0.700000X-0.200000X0.700000X-0.200000X-0.700000X0*%
%ADD27RoundRect,0.250000X-0.450000X0.350000X-0.450000X-0.350000X0.450000X-0.350000X0.450000X0.350000X0*%
%ADD28RoundRect,0.150000X0.150000X-0.675000X0.150000X0.675000X-0.150000X0.675000X-0.150000X-0.675000X0*%
G04 APERTURE END LIST*
D10*
%TO.C,Q2*%
X68035000Y16780000D03*
X66135000Y16780000D03*
X67085000Y13480000D03*
%TD*%
D11*
%TO.C,R8*%
X63830000Y60470000D03*
X62005000Y60470000D03*
%TD*%
D12*
%TO.C,C6*%
X60100000Y61967500D03*
X60100000Y60242500D03*
%TD*%
D13*
%TO.C,R10*%
X60100000Y58650000D03*
X60100000Y56825000D03*
%TD*%
D14*
%TO.C,R12*%
X30890000Y4670000D03*
X30890000Y6495000D03*
%TD*%
%TO.C,R15*%
X55655000Y59200000D03*
X55655000Y61025000D03*
%TD*%
D15*
%TO.C,R6*%
X60815000Y50945000D03*
X62640000Y50945000D03*
%TD*%
D16*
%TO.C,D3*%
X30890000Y10305000D03*
X30890000Y8555000D03*
%TD*%
D14*
%TO.C,R2*%
X64545000Y18282500D03*
X64545000Y20107500D03*
%TD*%
D15*
%TO.C,R5*%
X25810000Y40150000D03*
X27635000Y40150000D03*
%TD*%
D17*
%TO.C,CN1*%
X59375000Y24035000D03*
X59375000Y26035000D03*
X59375000Y28035000D03*
X59375000Y30035000D03*
D18*
X67175000Y32335000D03*
X67175000Y21735000D03*
%TD*%
D19*
%TO.C,D1*%
X63275000Y13480000D03*
X61525000Y13480000D03*
%TD*%
D20*
%TO.C,C2*%
X41685000Y59200000D03*
X39960000Y59200000D03*
%TD*%
D14*
%TO.C,R1*%
X62640000Y18282500D03*
X62640000Y20107500D03*
%TD*%
D21*
%TO.C,C4*%
X31906000Y51580000D03*
X31906000Y53305000D03*
%TD*%
D14*
%TO.C,R11*%
X33430000Y4670000D03*
X33430000Y6495000D03*
%TD*%
D20*
%TO.C,C7*%
X17375000Y10940000D03*
X15650000Y10940000D03*
%TD*%
D16*
%TO.C,D2*%
X33430000Y10305000D03*
X33430000Y8555000D03*
%TD*%
D14*
%TO.C,R9*%
X62005000Y56825000D03*
X62005000Y58650000D03*
%TD*%
D21*
%TO.C,C5*%
X5490000Y39695000D03*
X5490000Y41420000D03*
%TD*%
D22*
%TO.C,U3*%
X31907000Y47770000D03*
X31907000Y49670000D03*
X28907000Y48720000D03*
%TD*%
D23*
%TO.C,D7*%
X37500000Y66820000D03*
X34700000Y66820000D03*
%TD*%
D15*
%TO.C,R3*%
X39860000Y61740000D03*
X41685000Y61740000D03*
%TD*%
D24*
%TO.C,C3*%
X36605000Y47770000D03*
X38330000Y47770000D03*
%TD*%
D25*
%TO.C,D8*%
X32206000Y55390000D03*
X28906000Y55390000D03*
%TD*%
D26*
%TO.C,Q1*%
X64230000Y47645000D03*
X66130000Y47645000D03*
X65180000Y50945000D03*
%TD*%
D27*
%TO.C,R17*%
X41685000Y66820000D03*
X41685000Y64820000D03*
%TD*%
D16*
%TO.C,D6*%
X25810000Y10305000D03*
X25810000Y8555000D03*
%TD*%
D13*
%TO.C,R4*%
X67720000Y50865000D03*
X67720000Y49040000D03*
%TD*%
D16*
%TO.C,D5*%
X55655000Y64760000D03*
X55655000Y63010000D03*
%TD*%
D14*
%TO.C,R7*%
X61525000Y9750000D03*
X61525000Y11575000D03*
%TD*%
D17*
%TO.C,CN2*%
X59465000Y36735000D03*
X59465000Y38735000D03*
X59465000Y40735000D03*
X59465000Y42735000D03*
D18*
X67265000Y45035000D03*
X67265000Y34435000D03*
%TD*%
D14*
%TO.C,R16*%
X25810000Y4670000D03*
X25810000Y6495000D03*
%TD*%
%TO.C,R14*%
X28350000Y4670000D03*
X28350000Y6495000D03*
%TD*%
D28*
%TO.C,U4*%
X63910000Y53400000D03*
X65180000Y53400000D03*
X66450000Y53400000D03*
X67720000Y53400000D03*
X67720000Y58650000D03*
X66450000Y58650000D03*
X65180000Y58650000D03*
X63910000Y58650000D03*
%TD*%
D16*
%TO.C,D4*%
X28350000Y10305000D03*
X28350000Y8555000D03*
%TD*%
M02*
